**ABCDEFGHIJKLMNOPQRSTUVWXYZabcdefghijklmnopqrstuvwxyz**************************
**PARASOLID !"#$%&'()*+,-./:;<=>?@[\]^_`{|}~0123456789**************************
**PART1;
MC=unknown;
MC_MODEL=unknown;
MC_ID=unknown;
OS=unknown;
OS_RELEASE=unknown;
FRU=Parasolid 34.1.198;
APPL=Onshape;
SITE=unknown;
USER=unknown;
FORMAT=text;
GUISE=transmit;
KEY=BTGapi::writeModels_.xmt;
FILE=BTGapi::writeModels_.xmt;
DATE=2023-01-03T18:45:07 (UTC);
**PART2;
SCH=SCH_3401198_34101;
USFLD_SIZE=0;
**PART3;
**END_OF_HEADER*****************************************************************
T51 : TRANSMIT FILE created by modeller version 340119823 SCH_3401198_34101_1300
6231 0 12 36 CCCI7 lattice222 0 CCCI4 mesh1006 0 I8 polyline1008 0 CCCCCCCDI5 ow
ner1040 0 CCCI16 boundary_lattice222 0 CCCI13 boundary_mesh1006 0 I17 boundary_p
olyline1008 0 CCCA16 index_map_offset0 0 1 dA9 index_map82 0 A17 node_id_index_m
ap82 0 A20 schema_embedding_map82 0 A5 child12 0 A14 lowest_node_id0 0 1 dA16 me
sh_offset_data206 0 Z1 3006 2 3 0 0 0 0 0 0 0 1e3 1e-8 0 4 5 1 0 1 1 6 0 7 8 9 0
 0 10 11 12 0 0 0 0 0 0 0 81 255 1 2 2969 13 1 14 0 0 0 15 70 11 CI9 list_type0
 0 1 uI10 notransmit0 0 1 lCCCDCCDI12 finger_index0 0 1 dI12 finger_block1012 0
 CZ3 0 4 T1 0 0 6 20 1 16 16 13 255 6 417 0 1 0 17 0 0 18 0 51 255 7 2259 0 19 2
0 0 21 +.090924753684067 -.000896327087218291 .0656933064399359 -.20642822449227
4 .1192444905163556 .971168440392532 .005 .978147600733806 0 .207911690817759 32
 255 8 2261 0 1 22 0 23 -.0934102426954937 -.00233208458394892 .054 0 0 1 -.8659
10768825433 .50019850102949 0 .001029687496430398 .001 29 255 9 2619 0 12 24 0 .
0895433027977254 -.003339594409407785 .058 19 9 CCCCCCI5 frame230 0 CA5 owner12
 0 Z10 209 0 1 18 0 25 0 V0 16 255 11 2082 26 ?27 0 28 29 0 0 1 18 255 12 2615 3
0 31 0 32 9 ?1 81 1 30 2917 33 12 0 0 34 35 36 17 255 31 0 37 38 39 12 40 41 0 4
2 -18 32 2605 43 44 12 45 24 ?1 81 1 43 2909 33 32 0 0 46 47 48 17 44 0 49 50 51
 32 52 53 0 54 +18 45 2053 55 56 32 57 58 ?1 29 24 2609 0 32 59 9 -.076733518764
5304 -.003339594409407785 .058 29 59 2188 0 60 61 24 -.0943392703357595 .0080053
4254869154 .0546292685910678 18 60 2152 62 63 64 65 59 ?1 29 61 2197 0 65 58 59
 -.0943392703357595 -.00720724290282265 .0546292685910678 18 65 2160 66 67 60 68
 61 ?1 29 58 2056 0 45 69 61 .0983451736932939 -.002357612929612575 .05483164676
3271 29 69 2052 0 57 70 58 .0983451736932939 .003155712575481405 .05483164676327
1 18 57 2049 71 72 45 73 69 ?1 29 70 2038 0 73 74 69 .0934361468241009 .00413769
4055276615 .058 18 73 2035 75 76 57 77 70 ?1 29 74 2034 0 77 78 70 .094432583290
3587 .00315571257548142 .058 18 77 2031 79 80 73 81 74 ?1 29 78 2030 0 81 82 74
 .0944325832903587 -.00235761292961256 .058 18 81 2027 83 84 77 85 78 ?1 29 82 2
026 0 85 86 78 .0934361468241009 -.00333959440940777 .058 18 85 2023 87 88 81 89
 82 ?1 29 86 2012 0 89 90 82 .0934361468241009 .0081078786618419 .05448747737362
06 18 89 2009 91 92 85 93 86 ?1 29 90 1998 0 93 94 86 .1036362000178556 .014 .00
65 18 93 1995 95 96 89 97 90 ?1 29 94 1994 0 97 98 90 -.1036362000178556 .014 .0
065 18 97 1991 99 100 93 101 94 ?1 29 98 1985 0 101 102 94 -.0934361468241008 .0
0810787866184193 .0544874773736206 18 101 1982 103 104 97 105 98 ?1 29 102 1970
 0 105 106 98 -.0936227992571637 -.003322569141252515 .058 18 105 1968 107 108 1
01 109 102 ?1 29 106 1966 0 109 110 102 -.0936227992571637 .0041206687871214 .05
8 18 109 1964 111 112 105 113 106 ?1 29 110 1963 0 113 114 106 -.093436146824100
9 .00413769405527665 .058 18 113 1960 115 116 109 117 110 ?1 29 114 1959 0 117 1
18 110 -.0934361468241009 -.003339594409407785 .058 18 117 1956 119 120 113 121
 114 ?1 29 118 1935 0 121 122 114 .1088600594683686 .00922969882503799 .00536299
854812814 18 121 1932 123 124 117 125 118 ?1 29 122 1931 0 125 126 118 .10975202
90852582 -.00894685072862994 .00116661143176867 18 125 1928 127 128 121 129 122
 ?1 29 126 1927 0 129 130 122 -.1038567749436526 .014 .00646430935151577 18 129
 1924 131 132 125 133 126 ?1 29 130 1923 0 133 134 126 .1038567749436526 .014 .0
0646430935151577 18 133 1920 135 136 129 137 130 ?1 29 134 1909 0 137 138 130 -.
1050178176687108 -.014 0 18 137 1906 139 140 133 141 134 ?1 29 138 1905 0 141 14
2 134 .1050178176687108 -.014 0 18 141 1902 143 144 137 145 138 ?1 29 142 1901 0
 145 146 138 -.0934361468241009 -.00730977901597308 .0544874773736206 18 145 189
8 147 148 141 149 142 ?1 29 146 1897 0 149 150 142 .0934361468241009 -.007309779
01597308 .0544874773736206 18 149 1894 151 152 145 153 146 ?1 29 150 1887 0 153
 154 146 -.0985135372608327 -.002454869144851825 .0540395584540888 18 153 1885 1
55 156 149 157 150 ?1 29 154 1883 0 157 158 150 -.0985135372608327 .003252968790
72071 .0540395584540888 18 157 1881 159 160 153 161 154 ?1 29 158 1880 0 161 162
 154 -.1088600594683686 .00922969882503802 .00536299854812815 18 161 1877 163 16
4 157 165 158 ?1 29 162 1876 0 165 166 158 -.1097520290852584 -.0089468507286299
4 .001166611431768668 18 165 1873 167 168 161 169 162 ?1 29 166 1614 0 169 170 1
62 -.0715144338776156 -.003339594409407785 .058 18 169 1611 171 172 165 173 166
 ?1 29 170 1610 0 173 174 166 -.07203089070496 .004137694055276975 .058 18 173 1
607 175 176 169 177 170 ?1 29 174 1606 0 177 178 170 -.0702702069959165 .0081078
7866184191 .0544874773736206 18 177 1603 179 180 173 181 174 ?1 29 178 1602 0 18
1 182 174 .0702702069959165 .00810787866184191 .0544874773736206 18 181 1599 183
 184 177 185 178 ?1 29 182 1584 0 185 186 178 .0690792263732156 -.00730977901597
308 .0544874773736206 18 185 1581 187 188 181 189 182 ?1 29 186 1580 0 189 190 1
82 -.0690792263732156 -.00730977901597308 .0544874773736206 18 189 1577 191 192
 185 193 186 ?1 29 190 1542 0 193 194 186 .0720308907049599 .004137694055276585
 .058 18 193 1539 195 196 189 64 190 ?1 29 194 1538 0 64 197 190 .07151443387761
56 -.003339594409407785 .058 18 64 1535 198 199 193 60 194 ?1 29 197 2876 0 200
 201 194 .0895433027977254 .004137694055276625 .058 18 200 2806 202 203 204 205
 197 ?1 29 201 2878 0 205 206 197 .0775433027977254 -.003339594409407805 .058 18
 205 2798 207 39 200 208 201 ?1 29 206 2879 0 208 209 201 .0775433027977254 .004
13769405527662 .058 18 208 2810 210 211 205 0 206 ?1 29 209 2880 0 212 213 206 .
0895433027977254 .004137694055276625 .057 18 212 2808 214 215 216 217 209 ?1 29
 213 2881 0 217 218 209 .0895433027977254 -.0033395944094078 .057 18 217 2804 35
 38 212 219 213 ?1 29 218 2882 0 219 220 213 .0775433027977254 -.003339594409407
805 .057 18 219 2800 221 222 217 204 218 ?1 29 220 2883 0 204 223 218 .077543302
7977254 .00413769405527662 .057 18 204 2796 34 224 219 200 220 ?1 29 223 2884 0
 225 226 220 -.0887335187645304 .00413769405527664 .058 18 225 2713 227 228 229
 230 223 ?1 29 226 2885 0 230 231 223 -.0767335187645304 .004137694055276635 .05
8 18 230 2725 232 233 225 216 226 ?1 29 231 2887 0 216 234 226 -.088733518764530
4 -.003339594409407785 .058 18 216 2717 235 51 230 212 231 ?1 29 234 2888 0 68 2
36 231 -.0887335187645304 .00413769405527664 .057 18 68 2715 237 238 65 239 234
 ?1 29 236 2889 0 239 240 234 -.0767335187645304 .004137694055276635 .057 18 239
 2711 46 241 68 242 236 ?1 29 240 2890 0 242 243 236 -.0767335187645304 -.003339
594409407785 .057 18 242 2723 47 50 239 229 240 ?1 29 243 2891 0 229 0 240 -.088
7335187645304 -.003339594409407785 .057 18 229 2719 244 245 242 225 243 ?1 81 1
 244 2912 33 229 0 0 235 202 246 17 245 0 247 248 249 229 51 250 0 251 -15 255 2
47 2734 0 249 252 0 17 248 0 247 228 245 68 251 253 0 254 -17 249 0 247 245 228
 216 255 256 0 52 +17 51 0 49 44 257 216 245 250 0 249 +16 250 2676 258 ?51 259
 260 261 0 0 1 17 251 0 262 263 254 229 248 253 0 257 +15 262 2746 0 254 264 0 1
7 263 0 262 265 251 242 257 266 0 267 +17 254 0 262 251 265 68 268 269 0 0 +16 2
53 2673 270 ?251 271 269 272 0 0 1 17 257 0 49 51 50 229 263 266 0 0 -15 49 2738
 0 44 273 0 17 50 0 49 257 44 242 54 260 0 263 -16 266 2679 274 ?263 269 275 276
 0 0 1 81 1 274 2936 33 266 0 0 277 278 279 16 269 2667 277 ?254 253 266 280 0 0
 1 16 275 2685 281 ?282 266 256 283 0 0 1 30 255 276 2875 0 266 0 280 0 -0 -.003
339594409407785 .057 -1 0 0 30 280 2874 0 269 276 272 0 -512696786721291e-33 .00
4137694055276625 .057 1 -1239088197126292e-31 0 31 255 272 2873 0 253 280 284 0
 +-.0887335187645304 .0003990498229344205 .057 0 0 1 1 0 0 .003738644232342215 3
1 284 2872 0 271 272 285 0 +-.0767335187645304 .0003990498229344205 .057 0 0 -1
 1 0 0 .003738644232342215 16 271 2693 286 ?267 287 253 284 0 0 1 30 285 2871 0
 53 284 288 0 -0 -.003339594409407785 .058 -1 0 0 16 53 2706 289 ?44 290 291 285
 0 0 1 30 288 2870 0 290 285 292 0 -512696786721291e-33 .004137694055276625 .058
 1 -1239088197126292e-31 0 16 290 2696 293 ?294 256 53 288 0 0 1 31 292 2869 0 2
56 288 283 0 +-.0887335187645304 .0003990498229344205 .058 0 0 1 1 0 0 .00373864
4232342215 16 256 2701 278 ?249 275 290 292 0 0 1 31 283 2868 0 275 292 295 0 +-
.0767335187645304 .0003990498229344205 .058 0 0 -1 1 0 0 .003738644232342215 30
 295 2867 0 259 283 296 0 +-.0887335187645304 .00413769405527664 .057 0 0 1 16 2
59 2670 297 ?228 298 250 295 0 0 1 30 296 2866 0 287 295 299 0 +-.07673351876453
04 .004137694055276635 .057 0 0 1 16 287 2690 300 ?233 260 271 296 0 0 1 30 299
 2865 0 260 296 261 0 +-.0767335187645304 -.003339594409407785 .057 0 0 1 16 260
 2682 301 ?54 250 287 299 0 0 1 30 261 2864 0 250 299 302 0 +-.0887335187645304
 -.003339594409407785 .057 0 0 1 31 302 2863 0 303 261 304 0 +.0775433027977254
 .0003990498229344095 .057 0 0 1 1 0 0 .003738644232342215 16 303 2752 305 ?306
 307 308 302 0 0 1 30 304 2862 0 307 302 309 0 +.0835433027977254 -.003339594409
4078 .057 -1 1445602896647338e-31 0 16 307 2783 310 ?311 312 303 304 0 0 1 30 30
9 2861 0 312 304 313 0 +.0835433027977254 .004137694055276625 .057 -1 0 0 16 312
 2774 314 ?315 316 307 309 0 0 1 31 313 2860 0 316 309 317 0 +.0895433027977254
 .0003990498229344075 .057 0 0 -1 1 0 0 .003738644232342215 16 316 2780 318 ?319
 320 312 313 0 0 1 31 317 2859 0 321 313 322 0 +.0775433027977254 .0003990498229
344095 .058 0 0 1 1 0 0 .003738644232342215 16 321 2786 323 ?324 41 0 317 0 0 1
 30 322 2858 0 41 317 325 0 +.0835433027977254 -.0033395944094078 .058 -1 144560
2896647338e-31 0 16 41 2758 326 ?40 327 321 322 0 0 1 30 325 2857 0 327 322 328
 0 +.0835433027977254 .004137694055276625 .058 -1 0 0 16 327 2791 329 ?330 308 4
1 325 0 0 1 31 328 2856 0 308 325 331 0 +.0895433027977254 .0003990498229344075
 .058 0 0 -1 1 0 0 .003738644232342215 16 308 2766 332 ?333 303 327 328 0 0 1 30
 331 2855 0 334 328 335 0 +.0895433027977254 .004137694055276625 .057 0 0 1 16 3
34 2771 336 ?203 337 320 331 0 0 1 30 335 2854 0 337 331 338 0 +.089543302797725
4 -.0033395944094078 .057 0 0 1 16 337 2763 339 ?42 291 334 335 0 0 1 30 338 285
3 0 291 335 340 0 +.0775433027977254 -.003339594409407805 .057 0 0 1 16 291 2755
 341 ?39 53 337 338 0 0 1 30 340 2852 0 320 338 342 0 +.0775433027977254 .004137
69405527662 .057 0 0 1 16 320 2777 343 ?211 334 316 340 0 0 1 31 342 1506 0 344
 340 345 0 +-539459907094154e-32 -.001813065659485285 .0992546151641322 0 -.9925
46151641322 .1218693434051474 0 -.1218693434051474 -.992546151641322 .0825 16 34
4 1578 346 ?347 348 349 342 0 0 1 32 345 1505 0 348 342 350 0 +-539459907094154e
-32 .3341788119899815 .058 0 0 1 0 -1 0 .67695449647032 .0825 16 348 1608 351 ?3
52 353 344 345 353 353 1 30 350 653 0 354 345 355 0 +.119243505404424 .014 .0064
6430935151577 -1 0 0 16 354 1921 356 ?357 358 353 350 0 0 1 30 355 390 0 358 350
 359 0 +.103 -.014 0 -1 0 0 16 358 1903 360 ?361 362 354 355 0 0 1 30 359 764 0
 362 355 363 0 +.1093356362531686 -.000461601003798533 .003125585686989175 -.047
7602577068566 .973258140710788 .2246943464441285 16 362 1929 364 ?365 366 358 35
9 0 0 1 30 363 770 0 366 359 367 0 +-.1087916373134922 .01062400493718572 .00568
489947811501 .0477602577068566 .973258140710788 .2246943464441285 16 366 1874 36
8 ?369 370 362 363 0 0 1 30 367 1296 0 370 363 371 0 +.103 .014 .0065 1 -1239088
19712629e-30 0 16 370 1992 372 ?373 374 366 367 0 0 1 32 371 1412 0 374 367 375
 0 --539459907094154e-32 .00267888618881207 .098703072828842 -1229852221601884e-
31 -.992546151641322 -.1218693434051474 493266784146754e-30 -.1218693434051474 .
992546151641322 .0850256244213666 .0825 16 374 1600 376 ?377 378 370 371 0 0 1 3
0 375 1546 0 379 371 380 0 -512696786721291e-33 .004137694055276625 .058 1 -1239
088197126292e-31 0 16 379 2036 381 ?382 383 378 375 378 378 1 30 380 1550 0 383
 375 384 0 -.0944325832903587 -1734723475976805e-32 .058 0 -1 0 16 383 2028 385
 ?386 387 379 380 0 0 1 30 384 1553 0 388 380 389 0 -0 -.003339594409407785 .058
 -1 0 0 16 388 1551 390 ?391 392 387 384 387 387 1 30 389 1571 0 392 384 393 0 +
.0983451736932939 .215243505404424 .054831646763271 0 -1 0 16 392 2050 394 ?395
 396 388 389 0 0 1 30 393 1591 0 396 389 397 0 -.103 -.00730977901597308 .054487
4773736206 1 0 0 16 396 1589 398 ?399 400 392 393 0 0 1 30 397 1596 0 400 393 40
1 0 -.103 -.00730977901597308 .0544874773736206 1 0 0 16 400 1895 402 ?188 403 3
96 397 0 0 1 38 12 CCCCCCCCCCCA17 intersection_data204 0 Z401 1617 0 403 397 404
 0 +405 406 407 408 409 410 16 403 1615 411 ?176 412 400 401 0 0 1 38 404 1622 0
 412 401 413 0 +414 406 415 416 417 418 51 405 1772 0 419 420 421 422 +512696786
721291e-33 .004137694055276625 .054 1 -1239088197126292e-31 0 .004 1239088197126
292e-31 1 0 51 406 1502 0 423 424 425 426 +-539459907094154e-32 .28241116525709
 .0643562677730748 0 -.992546151641322 .1218693434051474 .0825 0 -.1218693434051
474 -.992546151641322 40 255 5 407 0 1 5 .0003293293985642585 .391138223829662 ?
?-.0702702069959165 .00810787866184192 .0544874773736206 -.0710637540163958 .007
67472761458236 .0558679918630297 -.0716838656782014 .00670850750905539 .05706446
05048638 -.0719934178473886 .00548172955321629 .057767435278844 -.07203089070495
99 .00413769405527664 .058 41 3 CI8 term_use0 0 1 cCZ1 408 L?-.0702702069959165
 .00810787866184192 .0544874773736206 41 1 409 L?-.0720308907049599 .00413769405
527664 .058 204 2 17 INTERSECTION_DATA17 Intersection data7 uv_type0 0 1 u6 valu
es0 1 1 fT20 410 4 .1221730476396038 -.0702702069959165 5.26384975444919 .271055
9684864955 .485892748459112 -.0710637540163958 5.24520740769079 .271654133285918
 .872774596581761 -.0716838656782014 5.23021902874982 .2727589641810825 1.228120
148513482 -.0719934178473886 5.22258768148936 .2740622689942045 1.57079632679489
5 -.0720308907049599 5.22165680403989 .27542462876522 14 255 423 1488 427 ?428 4
29 430 6 406 -0 0 428 429 25 51 424 2840 0 431 432 406 0 +.0775433027977254 .000
3990498229344095 .057 0 0 1 .003738644232342215 1 0 0 50 255 425 1088 0 433 406
 434 0 +-.1012126092268826 .215243505404424 .04134142321496105 .978147600733806
 0 -.207911690817759 -.207911690817759 0 -.978147600733806 141 255 426 401 435 4
36 406 141 435 437 438 426 406 141 436 404 426 438 406 141 438 413 436 435 406 3
8 413 1627 0 439 404 437 0 +420 406 440 441 442 443 16 439 1625 444 ?192 445 412
 413 0 0 1 38 437 1632 0 445 413 446 0 +447 406 448 449 450 451 51 420 1751 0 45
2 414 405 453 +0 -.003339594409407785 .054 -1 0 0 .004 0 0 1 40 6 440 0 1 6 .000
226491835674596 .348132211048771 ??-.0715144338776156 -.003339594409407785 .058
 -.0713201386552599 -.00455531720359554 .0578107765727857 -.0709397284452265 -.0
0561644693219145 .0572887600382962 -.0703806910637708 -.00649241376167179 .05646
16519112152 -.069620959363882 -.00711861234985452 .0553111153289401 -.0690792263
732156 -.00730977901597307 .0544874773736206 41 1 441 L?-.0715144338776156 -.003
339594409407785 .058 41 1 442 L?-.0690792263732156 -.00730977901597307 .05448747
73736206 204 24 443 4 0 .0715144338776156 5.23435300292481 .2828461826555545 5.9
7436947658243 .0713201386552599 5.2390573500251 .284029783101557 5.6776368100794
5 .0709397284452265 5.24815956878568 .285019385517762 5.37529878709331 .07038069
10637708 5.26128836034815 .285788023898956 5.0463405408299 .069620959363882 5.27
869164545627 .2862693397599745 4.83456202802429 .0690792263732156 5.290815432251
52 .286358705281934 14 452 1739 454 ?419 455 456 6 420 +0 0 419 455 25 51 414 17
20 0 428 457 420 458 +512696786721291e-33 .004137694055276625 .054 1 -1239088197
126292e-31 0 .004 1239088197126292e-31 1 0 141 453 413 453 453 420 14 428 1690 4
59 ?460 423 461 6 414 +0 0 460 423 25 51 457 1721 0 460 447 414 0 +.094432583290
3587 .215243505404424 .054 0 -1 0 .004 0 0 -1 141 458 404 458 458 414 14 460 169
2 462 ?455 428 463 6 457 +0 0 455 428 25 51 447 1722 0 455 464 457 465 +0 -.0033
39594409407785 .054 -1 0 0 .004 0 0 1 14 455 1694 466 ?452 460 467 6 447 +0 0 45
2 460 25 50 464 1340 468 429 469 447 0 -.103 .014 .0065 -1229852221601884e-31 -.
992546151641322 -.1218693434051474 1 -123908819712629e-30 0 141 465 437 465 465
 447 81 2 468 1341 470 464 0 0 471 0 472 473 14 429 1328 474 ?423 475 476 6 464
 +0 0 423 475 25 50 469 1259 471 475 477 464 0 -.103 -.014 0 0 .992546151641322
 -.1218693434051474 -1 0 0 81 2 471 1260 470 469 0 0 0 468 478 479 14 475 1247 4
80 ?429 433 481 6 469 +0 0 429 433 25 50 477 412 0 482 483 469 0 +.103 .014 .058
 123908819712629e-30 1 0 -1 123908819712629e-30 0 14 482 408 484 ?485 486 487 6
 477 +0 0 485 486 25 50 483 3 0 486 488 477 489 +0 -1734723475976805e-32 .058 0
 0 1 1 0 0 14 486 1 490 ?482 491 492 6 483 +17 491 482 491 25 50 488 648 0 485 4
34 483 0 +.119243505404424 -242861286636753e-31 .003232154675757885 0 -.22495105
4343865 .974370064785235 0 -.974370064785235 -.224951054343865 141 489 493 494 4
95 483 56 255 493 2167 0 496 421 497 0 +R421 483 498 -.004 -.004 1 1 0 0 0 0 141
 494 20 499 489 483 141 495 500 489 499 483 56 500 2162 0 501 502 503 0 +R502 48
3 504 -.004 -.004 1 1 0 0 0 0 141 499 503 495 494 483 56 503 2224 0 505 500 506
 0 +R506 483 507 -.004 -.004 1 1 0 0 0 0 14 505 2204 508 ?19 509 510 6 503 +0 0
 19 509 25 51 506 2223 0 509 503 20 511 +.1015017303358994 .00780428014655946 .0
1593254361647425 .206428224492274 .1192444905163556 -.971168440392532 .005 -.978
147600733806 0 -.207911690817759 32 507 2225 0 1 512 22 513 -.0934102426954937 .
00313018422981778 .054 0 0 1 .865910768825433 .50019850102949 0 .001029687496430
398 .001 32 512 2227 0 514 504 507 0 -.0934102426954937 .00313018422981778 .054
 .1649439208856805 .0952808360298579 -.981689902794314 .850055858476789 .4910398
17853501 .1904860487061725 .00500602200757299 .005 32 22 2262 0 298 507 8 0 -.09
34102426954937 -.00233208458394892 .054 .1649439208856815 -.0952808360298583 -.9
81689902794314 -.850055858476789 .491039817853501 -.1904860487061735 .0050060220
0757299 .005 141 513 503 513 513 507 16 298 2249 515 ?56 514 259 22 0 0 1 81 1 5
15 2361 33 298 0 0 516 517 518 17 56 0 519 520 521 45 522 298 0 523 +16 514 2214
 524 ?525 526 298 512 0 0 1 81 1 524 2365 33 514 0 0 527 528 529 17 525 0 510 76
 530 89 531 514 0 0 +16 526 2146 532 ?533 534 514 535 0 0 1 81 1 532 2354 33 526
 0 0 536 537 538 17 533 0 539 156 540 65 541 526 0 0 +16 534 2145 542 ?156 543 5
26 544 0 0 1 32 535 2182 0 526 29 544 0 +-.0934102426954937 -.00233208458394892
 .054 -.1649439208856815 -.0952808360298582 -.981689902794314 .850055858476789 .
491039817853501 -.1904860487061735 .00500602200757299 .005 31 29 2084 0 11 545 5
35 0 +.0934361468241009 -.003339594409407785 .054 -1 0 0 0 0 1 .004 32 544 2181
 0 534 535 546 0 +-.0936227992571637 -.002454869144851825 .053 -.198923170096657
 -.290853491480834 -.935859935509639 -.0604718411940256 .956767603179272 -.28449
76448570285 .00507808228309595 .005 31 546 2179 0 543 544 498 0 --.0936227992571
637 -.003322569141252515 .054 -.983413777948223 .181376242494994 0 -.18137624249
4994 -.983413777948223 0 .004 16 543 2139 536 ?67 547 534 546 0 0 1 32 498 2178
 0 1 546 548 549 --.0934102426954937 -.00233208458394892 .054 0 0 1 .86591076882
5433 .50019850102949 0 .001029687496430398 .001 32 548 2177 0 547 498 550 0 +-.0
936227992571637 -.002454869144851825 .053 -.0363198777636932 -.984623667214714 -
.170871590499648 -.20471477146979 .174688963476944 -.963107277711794 .0050780822
8309595 .005 141 549 493 549 549 498 16 547 2138 551 ?552 553 543 548 0 0 1 32 5
50 2176 0 1 548 554 555 +-.0936227992571637 -.002454869144851825 .053 .137972202
3644312 .748079036772304 .649108177514758 -.1555343774006505 .663609640332193 -.
731731714978085 .00133675714843534 .001 32 554 2175 0 553 550 556 0 +-.093622799
2571637 .00325296879072071 .053 .0363198777636932 -.984623667214714 .17087159049
9648 -.2047147714697885 -.174688963476944 -.963107277711794 .00507808228309595 .
005 141 555 497 555 555 550 56 497 2166 0 557 493 558 0 +R558 421 550 -.004 -.00
4 1 1 0 0 559 560 14 557 2118 561 ?496 562 563 6 497 +0 0 496 562 25 51 558 2165
 0 562 497 564 565 +-.0936227992571637 -1734723475976805e-32 .053 0 1 0 .005 0 0
 1 51 421 2168 0 566 405 493 567 +-.090924753684067 -.000896327087218291 .065693
3064399359 .206428224492274 .1192444905163556 .971168440392532 .005 .97814760073
3806 0 -.207911690817759 41 1 559 T?-.0946009468578975 -.002454869144851825 .053
2079116908178 41 1 560 T?-.0926446516564299 -.002454869144851825 .05279208830918
22 14 566 2122 568 ?509 496 539 6 421 +0 0 509 496 25 141 567 493 569 569 421 14
1 569 497 567 567 421 81 1 568 2992 570 566 571 0 572 573 574 14 509 2202 573 ?5
05 566 575 6 506 +0 0 505 566 25 14 496 2120 572 ?566 557 576 6 493 +0 0 566 557
 25 15 539 2123 0 577 566 0 13 25 210 0 0 0 0 0 0 10 17 14 17 2647 578 ?579 0 58
0 6 483 +579 486 579 0 25 81 1 578 2970 570 17 581 0 0 582 583 14 579 2637 582 ?
491 17 584 6 483 +491 17 491 17 25 15 580 2646 0 585 17 0 17 585 0 580 196 391 2
08 324 321 0 586 -17 196 0 580 587 585 193 586 378 0 588 +17 391 0 580 585 587 2
05 589 388 0 0 +17 324 0 590 222 211 205 585 321 0 40 +17 586 0 461 591 592 208
 196 378 0 0 -15 461 1691 0 593 428 0 17 591 0 461 593 586 200 330 327 0 382 -17
 592 0 461 586 594 193 184 412 0 0 -16 378 2626 595 ?196 379 374 375 379 379 1 8
1 1 595 2961 33 378 0 0 596 381 597 80 7 CCCCCDI12 legal_owners0 16 1 lCZ1 33 59
8 599 9000 0 0 0 0 3 6 0 0 0 FFTFTFTTFFFFFFFF1 81 1 596 2960 33 600 0 0 601 595
 602 81 1 381 2962 33 379 0 0 595 603 604 82 255 3 597 26 30 1 81 1 603 2963 33
 486 0 490 381 605 606 82 3 604 26 31 1 81 1 490 2973 570 486 603 0 607 484 608
 81 1 605 2964 33 579 0 582 603 581 609 82 3 606 26 10 2 81 1 582 2971 570 579 6
05 0 578 607 610 81 1 581 2965 33 17 0 578 605 611 612 82 3 609 26 11 2 81 1 611
 2966 33 491 0 607 581 0 613 82 3 612 26 12 2 14 491 2047 607 ?486 579 614 6 483
 +486 579 486 579 25 81 1 607 2972 570 491 611 0 582 490 615 82 3 613 26 13 2 80
 1 570 0 616 8001 0 0 0 0 3 5 0 0 0 FFFFTFTFFFFFFFFF2 83 255 3 615 .286274509803
9215 .2862745098039215 .2862745098039215 79 255 15 616 SDL/TYSA_COLOUR15 614 204
5 0 382 491 0 17 382 0 614 333 617 200 593 379 0 0 +17 333 0 614 88 382 12 618 3
08 0 619 +17 617 0 614 382 386 73 620 621 0 593 -17 593 0 461 92 591 73 382 379
 0 0 -17 92 0 461 594 593 89 76 622 0 623 +17 594 0 461 592 92 181 623 624 0 0 -
17 76 0 510 620 525 73 92 622 0 617 -16 622 2067 625 ?92 626 627 628 0 0 1 17 62
3 0 476 96 629 89 594 624 0 630 +15 476 1411 0 631 429 0 17 96 0 476 631 623 93
 630 632 0 373 +17 629 0 476 623 180 181 377 374 0 594 -16 624 1672 633 ?623 634
 635 636 0 0 1 17 630 0 575 531 637 89 96 632 0 525 -15 575 2203 0 637 509 0 17
 531 0 575 638 630 57 525 514 0 530 -17 637 0 575 630 639 93 136 640 0 0 -16 632
 2013 641 ?96 642 643 644 0 0 1 81 1 641 2380 33 632 0 0 645 646 647 16 642 2018
 648 ?104 649 632 650 0 0 1 16 643 2004 651 ?100 632 640 652 0 0 1 30 644 2015 0
 632 652 650 0 -.103609089873425 .0139843396639756 .00662754320176089 -.20642822
4492274 -.1192444905163556 .971168440392532 32 652 2006 0 643 653 644 0 +-.11222
73533249282 .014 -.0345275452406253 123908819712629e-30 1 0 -.207911690817759 25
7620922136856e-31 -.978147600733806 .0419306584174151 .005 30 650 2020 0 642 644
 654 0 --.0936484506260349 .00823051721458138 .0534886665146851 -.20642822449227
4 .1192444905163556 -.971168440392532 32 654 2041 0 649 650 655 0 -.093410242695
4937 -.00233208458394892 .058 0 0 1 -.865910768825433 .50019850102949 0 .0010296
87496430398 .001 16 649 2039 527 ?656 621 642 654 0 0 1 32 655 2046 0 621 654 65
7 0 -.0934102426954937 .00313018422981778 .058 0 0 1 .865910768825433 .500198501
02949 0 .001029687496430398 .001 16 621 2044 658 ?620 659 649 655 0 0 1 31 657 2
059 0 659 655 660 0 +.0944325832903587 -.00235761292961256 .054 0 1 0 0 0 1 .004
 16 659 2057 517 ?661 627 621 657 0 0 1 31 660 2064 0 627 657 628 0 +.0944325832
903587 .00315571257548142 .054 0 -1 0 0 0 -1 .004 16 627 2062 528 ?80 622 659 66
0 0 0 1 31 628 2069 0 622 660 662 0 +.0934361468241009 .004137694055276615 .054
 -1 0 0 0 0 1 .004 30 662 2074 0 626 628 545 0 -.095815491687736 -.0008963270872
18318 .0667328648940247 -.206428224492274 .1192444905163556 .971168440392532 16
 626 2072 663 ?128 28 622 662 0 0 1 30 545 2079 0 28 662 29 0 -.1063924683395684
 .00780428014655943 .01697210207056305 .206428224492274 .1192444905163556 -.9711
68440392532 16 28 2077 645 ?72 11 626 545 0 0 1 81 1 645 2379 33 28 0 0 648 641
 664 17 72 0 665 395 365 57 638 28 0 666 +15 665 1061 0 365 667 0 17 395 0 665 1
28 72 45 666 392 0 0 +17 365 0 665 72 128 121 668 362 0 638 +17 638 0 575 639 53
1 121 72 28 0 0 -17 666 0 463 80 661 57 395 392 0 531 -15 463 1693 0 666 460 0 1
7 80 0 463 669 666 77 530 627 0 386 +17 661 0 463 666 669 45 520 659 0 395 +17 6
69 0 463 661 80 81 386 383 0 520 -17 520 0 519 656 56 81 661 659 0 0 -15 519 224
3 0 520 670 0 17 656 0 519 521 520 85 84 649 0 0 +17 521 0 519 56 656 149 27 11
 0 0 -17 84 0 614 386 88 81 656 649 0 669 -17 386 0 614 617 84 77 669 383 0 620
 +17 88 0 614 84 333 85 619 387 0 27 +17 619 0 467 40 27 12 88 387 0 0 -16 387 2
616 671 ?88 388 383 384 388 388 1 17 27 0 467 619 672 85 521 11 0 656 +15 467 16
95 0 672 455 0 17 672 0 467 27 673 149 188 400 0 522 -17 673 0 467 672 589 185 1
99 445 0 0 -17 188 0 481 674 152 185 672 400 0 347 +17 522 0 675 676 523 149 56
 298 0 521 -15 675 2241 0 677 19 0 17 676 0 675 677 522 141 152 678 0 0 -17 523
 0 675 522 677 45 128 626 0 661 -17 677 0 675 523 676 125 144 679 0 0 -17 128 0
 665 365 395 125 523 626 0 668 +17 668 0 680 144 124 125 365 362 0 677 -15 680 7
63 0 361 485 0 17 144 0 680 361 668 141 677 679 0 681 +17 124 0 680 668 682 121
 639 683 0 365 +17 682 0 680 124 132 133 357 354 0 639 -17 639 0 575 637 638 133
 124 683 0 0 -16 683 1941 684 ?124 685 679 686 0 0 1 81 1 684 2350 33 683 0 0 68
7 651 688 16 685 1946 687 ?132 689 683 690 0 0 1 16 679 1936 691 ?144 683 692 69
3 0 0 1 32 686 1943 0 683 693 690 0 -.1037544475359328 .0091055756232614 .005334
34244905727 0 -.224951054343865 .974370064785235 .896048192838659 -.432578211417
54 -.0998685491902988 .00513820945891154 .005 32 693 1938 0 679 694 686 0 -.1046
338796683512 -.0088154851744482 .001196939559638816 0 -.224951054343865 .9743700
64785235 -.524996466439921 .829290655392376 .1914568335277705 .00543801419404796
 .005 32 690 1948 0 685 686 695 0 --.1037544475359328 .00910557562326143 .005334
34244905728 0 -.224951054343865 .974370064785235 -.89604819283866 -.432578211417
5395 -.0998685491902987 .00513820945891154 .005 32 695 1953 0 689 690 696 0 --.1
046338796683512 -.0088154851744482 .001196939559638816 0 -.224951054343865 .9743
70064785235 .524996466439921 .829290655392376 .1914568335277705 .005438014194047
96 .005 16 689 1951 697 ?168 698 685 695 0 0 1 32 696 1967 0 698 695 699 0 +-.09
34102426954937 .003130184229817805 .058 0 0 1 -.865910768825433 .50019850102949
 0 .001029687496430398 .001 16 698 1965 516 ?112 700 689 696 0 0 1 30 699 1971 0
 700 696 701 0 +-.0936227992571637 -.003339594409407785 .058 0 -1 0 16 700 1969
 702 ?108 703 698 699 0 0 1 32 701 1974 0 703 699 704 0 +-.0934102426954937 -.00
233208458394892 .058 0 0 1 .865910768825433 .50019850102949 0 .00102968749643039
8 .001 16 703 1972 705 ?120 706 700 701 0 0 1 31 704 1979 0 706 701 707 0 +-.093
4361468241009 -.003339594409407785 .054 1 0 0 0 0 -1 .004 16 706 1977 537 ?148 7
08 703 704 0 0 1 31 707 1988 0 708 704 653 0 +-.0934361468241009 .00413769405527
664 .054 1 0 0 0 0 -1 .004 16 708 1986 709 ?710 640 706 707 0 0 1 32 653 2001 0
 640 707 652 0 +.1122273533249282 .014 -.0345275452406253 123908819712629e-30 1
 0 .207911690817759 -257620922136856e-31 -.978147600733806 .0419306584174151 .00
5 16 640 1999 711 ?136 643 708 653 0 0 1 81 1 711 2352 33 640 0 0 651 536 712 17
 136 0 487 357 373 133 637 640 0 682 +15 487 790 0 357 482 0 17 357 0 487 100 13
6 129 682 354 0 713 +17 373 0 487 136 100 93 631 370 0 637 +17 100 0 487 373 357
 97 713 643 0 631 +17 631 0 476 104 96 97 373 370 0 714 -17 104 0 476 180 631 10
1 714 642 0 715 +17 714 0 716 713 717 97 104 642 0 0 -15 716 2111 0 717 718 0 17
 713 0 716 719 714 129 100 643 0 0 -17 717 0 716 714 720 101 63 349 0 721 -17 72
0 0 716 717 722 60 723 724 0 725 -17 63 0 726 727 721 60 717 349 0 720 +16 349 2
130 728 ?63 344 724 729 0 0 1 17 721 0 726 63 730 101 710 708 0 0 -15 726 2113 0
 721 501 0 17 730 0 726 721 727 113 112 698 0 0 -17 710 0 731 732 715 113 721 70
8 0 730 +15 731 1761 0 715 419 0 17 732 0 731 733 710 225 116 600 0 0 -17 715 0
 731 710 734 101 180 635 0 717 -17 734 0 731 715 735 177 176 403 0 0 -17 180 0 4
76 629 104 177 715 635 0 377 +16 635 1983 736 ?180 624 737 738 0 0 1 81 1 736 23
94 33 635 0 0 402 633 739 16 737 1957 740 ?741 635 742 743 742 742 1 30 738 1669
 0 635 743 636 0 -.103 .0081078786618419 .0544874773736206 -1 1239088197126292e-
31 305851896741174e-47 30 743 1650 0 737 446 738 0 -0 -.003339594409407785 .058
 -1 0 0 30 636 1674 0 624 738 744 0 -.103 .0081078786618419 .0544874773736206 -1
 1239088197126292e-31 305851896741174e-47 30 744 1884 0 634 636 745 0 --.1087392
418234586 .00915990779453285 .00593140087812754 .206428224492274 -.1192444905163
556 .971168440392532 16 634 1882 746 ?164 747 624 744 0 0 1 30 745 1888 0 747 74
4 748 0 --.0985135372608327 .00413769405527664 .0540395584540888 0 -1 0 16 747 1
886 646 ?160 749 634 745 0 0 1 30 748 1891 0 749 745 750 0 --.0985391886297039 -
.0024696868105059 .0539188782517481 -.206428224492274 -.1192444905163556 -.97116
8440392532 16 749 1889 751 ?752 678 747 748 0 0 1 30 750 1912 0 678 748 694 0 -.
1049318331875756 -.01395033055353504 .000404525178896607 .206428224492274 -.1192
444905163556 -.971168440392531 16 678 1910 753 ?152 692 749 750 0 0 1 30 694 191
7 0 692 750 693 0 --.1052301214706448 -.01412263855273948 -.000998810858935525 .
206428224492274 .1192444905163556 .971168440392531 16 692 1915 754 ?140 679 678
 694 0 0 1 81 1 754 2374 33 692 0 0 751 663 755 17 140 0 481 681 399 137 540 692
 0 361 +15 481 1427 0 399 475 0 17 681 0 481 152 140 141 361 358 0 676 -17 399 0
 481 140 674 145 756 396 0 540 +17 540 0 539 533 577 145 140 692 0 541 -17 361 0
 680 168 144 137 681 358 0 577 +17 168 0 680 369 361 165 577 689 0 757 +17 577 0
 539 540 758 137 168 689 0 0 -17 758 0 539 577 156 165 752 749 0 0 -17 156 0 539
 758 533 153 759 534 0 552 +17 752 0 760 160 757 153 758 749 0 0 +15 760 958 0 7
57 433 0 17 160 0 760 164 752 157 761 747 0 722 +17 757 0 760 752 164 165 369 36
6 0 758 -17 164 0 760 757 160 161 722 634 0 369 +17 369 0 680 132 168 161 757 36
6 0 719 +17 132 0 680 682 369 129 719 685 0 357 +17 719 0 716 722 713 161 132 68
5 0 0 -17 722 0 716 720 719 157 164 634 0 723 -17 723 0 762 763 725 157 720 724
 0 764 +15 762 2115 0 725 765 0 17 763 0 762 725 723 109 764 553 0 766 -17 725 0
 762 723 763 60 727 767 0 0 +16 724 2133 768 ?723 349 767 769 0 0 1 17 764 0 770
 761 766 157 763 553 0 0 +15 770 2117 0 764 562 0 17 761 0 770 771 764 153 160 7
47 0 752 -17 766 0 770 764 771 109 108 700 0 0 -16 553 2136 772 ?764 767 547 554
 0 0 1 81 1 772 2372 33 553 0 0 768 751 773 16 767 2134 774 ?725 724 553 556 0 0
 1 81 1 774 2357 33 767 0 0 705 728 775 31 556 2174 0 767 554 769 0 +-.093622799
2571637 .0041206687871214 .054 -.983413777948224 -.1813762424949905 0 .181376242
4949905 -.983413777948224 0 .004 32 769 2173 0 724 556 776 0 +-.0936227992571637
 .00325296879072071 .053 .198923170096657 -.290853491480834 .935859935509639 -.0
604718411940256 -.956767603179272 -.2844976448570285 .00507808228309595 .005 32
 776 2172 0 1 769 729 777 +-.0936227992571637 .00325296879072071 .053 -.13797220
23644312 .748079036772304 -.649108177514758 -.1555343774006505 -.663609640332193
 -.731731714978085 .00133675714843534 .001 32 729 2170 0 349 776 504 0 --.093410
2426954937 .003130184229817805 .054 -.1649439208856805 .0952808360298579 -.98168
9902794314 -.850055858476789 .491039817853501 .1904860487061725 .005006022007572
99 .005 141 777 564 777 777 776 56 564 2164 0 765 558 502 0 +R502 558 776 -.004
 -.004 1 1 0 0 778 779 14 765 2114 780 ?562 501 762 6 564 +0 0 562 501 25 51 502
 2163 0 718 564 500 781 +-.1015017303358994 .00780428014655948 .0159325436164742
5 -.206428224492274 .1192444905163556 -.971168440392532 .005 -.978147600733806 0
 .207911690817759 41 1 778 T?-.0946009468578975 .00325296879072071 .053207911690
8178 41 1 779 T?-.0926446516564299 .00325296879072071 .0527920883091823 14 718 2
110 782 ?501 419 716 6 502 +0 0 501 419 25 141 781 564 783 783 502 141 783 500 7
81 781 502 81 1 782 2986 570 718 784 0 785 786 787 14 501 2112 786 ?765 718 726
 6 500 +0 0 765 718 25 14 419 1760 785 ?718 452 731 6 405 +0 0 718 452 25 81 1 7
85 2985 570 419 788 0 454 782 789 81 1 788 2414 33 419 0 785 790 791 792 81 1 45
4 2984 570 452 793 0 466 785 794 83 3 789 .2862745098039215 .2862745098039215 .2
862745098039215 81 1 793 2412 33 452 0 454 795 790 796 81 1 466 2983 570 455 790
 0 462 454 797 83 3 794 .2862745098039215 .2862745098039215 .2862745098039215 81
 1 790 2413 33 455 0 466 793 788 798 81 1 462 2982 570 460 795 0 459 466 799 83
 3 797 .2862745098039215 .2862745098039215 .2862745098039215 81 1 795 2411 33 46
0 0 462 800 793 801 81 1 459 2981 570 428 791 0 427 462 802 83 3 799 .2862745098
039215 .2862745098039215 .2862745098039215 81 1 791 2415 33 428 0 459 788 803 80
4 81 1 427 2980 570 423 805 0 474 459 806 83 3 802 .2862745098039215 .2862745098
039215 .2862745098039215 81 1 805 1857 33 423 0 427 807 131 808 81 1 474 2979 57
0 429 809 0 480 427 810 83 3 806 .2862745098039215 .2862745098039215 .2862745098
039215 81 1 809 2419 33 429 0 474 811 227 812 81 1 480 2978 570 475 811 0 813 47
4 814 83 3 810 .2862745098039215 .2862745098039215 .2862745098039215 81 1 811 24
18 33 475 0 480 815 809 816 81 1 813 2977 570 433 803 0 817 480 818 83 3 814 .28
62745098039215 .2862745098039215 .2862745098039215 14 433 955 813 ?475 667 760 6
 425 -0 0 475 667 25 81 1 803 2416 33 433 0 813 791 815 819 81 1 817 2976 570 66
7 815 0 820 813 821 83 3 818 .2862745098039215 .2862745098039215 .28627450980392
15 14 667 1058 817 ?433 485 665 6 434 +0 0 433 485 25 81 1 815 2417 33 667 0 817
 803 811 822 81 1 820 2975 570 485 823 0 484 817 824 83 3 821 .2862745098039215
 .2862745098039215 .2862745098039215 14 485 629 820 ?667 482 680 6 488 -0 0 667
 482 25 81 1 823 2409 33 485 0 820 825 800 826 81 1 484 2974 570 482 800 0 490 8
20 827 83 3 824 .2862745098039215 .2862745098039215 .2862745098039215 81 1 800 2
410 33 482 0 484 823 795 828 83 3 827 .2862745098039215 .2862745098039215 .28627
45098039215 82 3 828 22 12 2 81 1 825 2408 33 562 0 829 830 823 831 82 3 826 22
 11 2 14 562 2116 829 ?557 765 770 6 558 +0 0 557 765 25 81 1 829 2989 570 562 8
25 0 780 561 832 81 1 830 2407 33 509 0 573 784 825 833 82 3 831 22 10 2 81 1 57
3 2993 570 509 830 0 568 508 834 81 1 784 2406 33 718 0 782 835 830 836 82 3 833
 22 9 2 81 1 835 2405 33 19 0 837 571 784 838 82 3 836 22 8 2 14 19 2240 837 ?67
0 505 675 6 7 +0 0 670 505 25 81 1 837 2995 570 19 835 0 508 839 840 81 1 571 24
04 33 566 0 568 841 835 842 82 3 838 22 7 2 81 1 841 2403 33 765 0 780 843 571 8
44 82 3 842 22 6 2 81 1 780 2988 570 765 841 0 786 829 845 81 1 843 2402 33 557
 0 561 846 841 847 82 3 844 22 5 2 81 1 561 2990 570 557 843 0 829 572 848 81 1
 846 2401 33 505 0 508 849 843 850 82 3 847 22 4 2 81 1 508 2994 570 505 846 0 5
73 837 851 81 1 849 2400 33 670 0 839 852 846 853 82 3 850 22 3 2 14 670 2242 83
9 ?854 19 519 6 20 +0 0 854 19 25 81 1 839 2996 570 670 849 0 837 855 856 81 1 8
52 2399 33 501 0 786 857 849 858 82 3 853 22 2 2 81 1 786 2987 570 501 852 0 782
 780 859 81 1 857 2398 33 496 0 572 633 852 860 82 3 858 22 1 2 81 1 572 2991 57
0 496 857 0 561 568 861 81 1 633 2396 33 624 0 0 736 857 862 82 3 860 22 0 2 82
 3 862 22 49 1 83 3 861 .2862745098039215 .2862745098039215 .2862745098039215 83
 3 859 .2862745098039215 .2862745098039215 .2862745098039215 81 1 855 2997 570 8
54 863 0 839 864 865 83 3 856 .2862745098039215 .2862745098039215 .2862745098039
215 14 854 2727 855 ?252 670 866 6 867 -0 0 252 670 25 81 1 863 2945 33 854 0 85
5 310 868 869 81 1 864 2998 570 252 870 0 855 871 872 83 3 865 .2862745098039215
 .2862745098039215 .2862745098039215 14 252 2731 864 ?273 854 247 6 873 -0 0 273
 854 25 81 1 870 2948 33 252 0 864 874 875 876 81 1 871 2999 570 273 874 0 864 8
77 878 83 3 872 .2862745098039215 .2862745098039215 .2862745098039215 14 273 273
5 871 ?879 252 49 6 880 -0 0 879 252 25 81 1 874 2947 33 273 0 871 868 870 881 8
1 1 877 3000 570 879 875 0 871 882 883 83 3 878 .2862745098039215 .2862745098039
215 .2862745098039215 14 879 2739 877 ?264 273 884 6 885 +0 0 264 273 25 81 1 87
5 2949 33 879 0 877 870 886 887 81 1 882 3001 570 264 868 0 877 888 889 83 3 883
 .2862745098039215 .2862745098039215 .2862745098039215 14 264 2743 882 ?431 879
 262 6 890 +0 0 431 879 25 81 1 868 2946 33 264 0 882 863 874 891 81 1 888 3002
 570 431 892 0 882 893 894 83 3 889 .2862745098039215 .2862745098039215 .2862745
098039215 14 431 2812 888 ?895 264 590 6 424 -0 0 895 264 25 81 1 892 2953 33 43
1 0 888 896 897 898 81 1 893 3003 570 895 897 0 888 899 900 83 3 894 .2862745098
039215 .2862745098039215 .2862745098039215 14 895 2816 893 ?901 431 37 6 432 +0
 0 901 431 25 81 1 897 2954 33 895 0 893 892 902 903 81 1 899 3004 570 901 886 0
 893 904 905 83 3 900 .2862745098039215 .2862745098039215 .2862745098039215 14 9
01 2820 899 ?906 895 907 6 908 +0 0 906 895 25 81 1 886 2950 33 901 0 899 875 90
9 910 81 1 904 3005 570 906 896 0 899 911 912 83 3 905 .2862745098039215 .286274
5098039215 .2862745098039215 14 906 2824 904 ?913 901 914 6 915 -0 0 913 901 25
 81 1 896 2952 33 906 0 904 909 892 916 81 1 911 3006 570 913 909 0 904 0 917 83
 3 912 .2862745098039215 .2862745098039215 .2862745098039215 14 913 2828 911 ?0
 906 918 6 919 +0 0 0 906 25 81 1 909 2951 33 913 0 911 886 896 920 83 3 917 .28
62745098039215 .2862745098039215 .2862745098039215 82 3 920 26 6 2 15 918 2831 0
 306 913 0 50 919 2845 0 913 880 908 0 +.000404892016597505 .0003990498229345855
 .057 0 0 1 1 0 0 50 880 2846 0 273 867 919 0 +0 -.003339594409407785 .057 0 -1
 0 0 0 -1 51 908 2843 0 901 919 915 0 -.0895433027977254 .0003990498229344075 .0
57 0 0 1 .003738644232342215 1 0 0 50 915 2842 0 906 908 432 0 +.083543302797725
4 .004137694055276625 .057 0 1 0 0 0 1 50 432 2841 0 895 915 424 0 +.08354330279
77254 -.0033395944094078 .057 1445602896647338e-31 1 0 -1 1445602896647338e-31 0
 50 867 2847 0 854 873 880 0 +512696786721291e-33 .004137694055276625 .057 12390
88197126292e-31 1 0 -1 1239088197126292e-31 0 51 873 2848 0 252 885 867 0 +-.088
7335187645304 .0003990498229344205 .057 0 0 1 .003738644232342215 1 0 0 51 885 2
849 0 879 890 873 0 --.0767335187645304 .0003990498229344205 .057 0 0 1 .0037386
44232342215 1 0 0 50 890 2851 0 264 0 885 0 +.000404892016597505 .00039904982293
45855 .057 0 0 1 1 0 0 17 306 0 918 921 315 219 922 303 0 0 +17 921 0 918 923 30
6 217 311 307 0 319 -17 315 0 918 306 923 204 924 312 0 922 +17 922 0 590 211 22
2 204 306 303 0 0 -15 590 2815 0 324 431 0 17 211 0 590 324 922 208 224 320 0 33
0 +17 222 0 590 922 324 219 39 291 0 311 -17 39 0 37 31 311 205 222 291 0 324 +1
7 311 0 37 39 38 219 921 307 0 306 +15 37 2819 0 31 895 0 17 38 0 37 311 31 217
 42 337 0 921 -17 42 0 907 618 319 12 38 337 0 333 +15 907 2823 0 618 901 0 17 6
18 0 907 215 42 200 333 308 0 591 -17 319 0 907 42 215 217 923 316 0 0 +17 215 0
 907 319 618 212 203 334 0 923 -17 923 0 918 315 921 212 319 316 0 924 -17 924 0
 914 203 224 212 315 312 0 0 -15 914 2827 0 330 906 0 17 203 0 914 330 924 200 2
15 334 0 618 +17 224 0 914 924 330 204 211 320 0 315 -17 330 0 914 224 203 208 5
91 327 0 585 +82 3 916 26 7 2 82 3 910 26 5 2 81 1 902 2955 33 742 0 0 897 740 9
25 82 3 903 26 9 2 16 742 2606 902 ?172 737 926 743 737 737 1 81 1 740 2956 33 7
37 0 0 902 390 927 82 3 925 26 24 1 81 1 390 2957 33 388 0 0 740 671 928 82 3 92
7 26 25 1 81 1 671 2958 33 387 0 0 390 601 929 82 3 928 26 26 1 81 1 601 2959 33
 926 0 0 671 596 930 82 3 929 26 27 1 16 926 1643 601 ?931 742 600 446 600 600 1
 82 3 930 26 28 1 17 931 0 492 282 932 230 735 926 0 0 +16 600 2596 596 ?116 926
 445 446 926 926 1 30 446 1645 0 926 437 743 0 -512696786721291e-33 .00413769405
5276625 .058 1 -1239088197126292e-31 0 17 116 0 584 112 255 113 732 600 0 710 +1
6 445 1630 933 ?199 600 439 437 0 0 1 81 1 933 1832 33 445 0 0 444 411 934 17 19
9 0 430 588 347 64 673 445 0 587 +15 430 1491 0 347 423 0 17 588 0 430 184 199 1
93 587 353 0 592 +17 347 0 430 199 192 185 674 344 0 673 +17 587 0 580 391 196 6
4 588 353 0 589 -16 353 1536 807 ?588 354 348 345 348 348 1 17 589 0 467 673 40
 64 391 388 0 0 -17 40 0 467 589 619 205 31 41 0 391 +81 1 807 1849 33 353 0 0 3
51 805 935 81 1 351 1848 33 348 0 0 376 807 936 82 3 935 21 28 1 81 1 376 1847 3
3 374 0 0 346 351 937 82 3 936 21 27 1 81 1 346 1846 33 344 0 0 938 376 939 82 3
 937 21 26 1 81 1 938 1838 33 412 0 0 411 346 940 82 3 939 21 25 1 16 412 1620 9
38 ?184 439 403 404 0 0 1 81 1 411 1835 33 403 0 0 933 938 941 82 3 940 21 17 1
 82 3 941 21 14 1 17 184 0 430 377 588 181 592 412 0 629 +17 377 0 430 176 184 1
77 629 374 0 734 +17 176 0 430 352 377 173 734 403 0 932 +17 352 0 430 192 176 1
69 932 348 0 0 +17 932 0 492 931 172 173 352 348 0 735 -15 492 1432 0 931 486 0
 17 172 0 492 932 282 169 942 742 0 943 +17 735 0 731 734 733 173 931 926 0 0 -1
7 733 0 731 735 732 230 294 290 0 931 -17 294 0 866 238 233 225 733 290 0 255 +1
5 866 2730 0 294 854 0 17 238 0 866 268 294 68 228 259 0 248 -17 233 0 866 294 2
68 230 241 287 0 944 +17 255 0 584 116 741 225 249 256 0 732 -15 584 2636 0 255
 579 0 17 741 0 584 255 120 216 945 737 0 0 +17 120 0 584 741 108 117 946 703 0
 945 +17 945 0 456 148 52 117 741 737 0 947 -15 456 1740 0 945 452 0 17 148 0 45
6 756 945 145 947 706 0 399 +17 52 0 456 945 942 216 44 53 0 741 -17 947 0 576 9
46 541 117 148 706 0 0 -15 576 2121 0 946 496 0 17 946 0 576 67 947 105 120 703
 0 0 -17 541 0 576 947 67 145 533 526 0 0 -17 67 0 576 541 946 65 948 543 0 759
 +17 948 0 563 552 759 105 67 543 0 946 -17 759 0 563 948 552 65 156 534 0 533 -
15 563 2119 0 948 557 0 17 552 0 563 759 948 153 771 547 0 761 +17 771 0 770 766
 761 105 552 547 0 948 -17 942 0 456 52 943 32 172 742 0 0 -17 943 0 456 942 756
 169 192 439 0 352 -17 756 0 456 943 148 189 399 396 0 0 -17 192 0 430 347 352 1
89 943 439 0 674 +17 674 0 481 399 188 189 347 344 0 756 -17 108 0 584 120 112 1
05 766 700 0 771 +17 112 0 584 108 116 109 730 698 0 727 +17 727 0 726 730 63 10
9 725 767 0 763 -17 268 0 866 233 238 239 254 269 0 0 -17 241 0 884 267 944 239
 233 287 0 265 -17 944 0 884 241 54 230 282 275 0 733 -15 884 2742 0 944 879 0 1
7 54 0 884 944 267 32 50 260 0 282 +17 282 0 492 172 931 32 944 275 0 942 +17 26
7 0 884 54 241 242 265 271 0 0 +17 265 0 262 254 263 239 267 271 0 268 -17 228 0
 247 249 248 225 238 259 0 294 +81 1 444 1829 33 439 0 0 195 933 949 82 3 934 21
 11 1 81 1 195 1820 33 193 0 0 183 444 950 82 3 949 21 8 1 81 1 183 1819 33 181
 0 0 175 195 951 82 3 950 21 17 0 81 1 175 1818 33 173 0 0 179 183 952 82 3 951
 21 16 0 81 1 179 1817 33 177 0 0 198 175 953 82 3 952 21 15 0 81 1 198 1816 33
 64 0 0 187 179 954 82 3 953 21 14 0 81 1 187 1815 33 185 0 0 171 198 955 82 3 9
54 21 13 0 81 1 171 1814 33 169 0 0 191 187 956 82 3 955 21 12 0 81 1 191 1813 3
3 189 0 0 957 171 958 82 3 956 21 11 0 81 1 957 464 33 1 0 959 0 191 960 82 3 95
8 21 10 0 81 1 959 2967 961 1 957 14 0 0 962 82 3 960 6 0 3 80 1 961 963 964 803
8 0 0 0 0 0 0 0 0 0 TTTTTTTTTTTTTFTF10 81 1 14 2968 963 1 959 2 0 0 965 98 255 6
 962 80 97 114 116 32 49 80 1 963 966 967 8017 0 0 0 0 0 0 0 0 0 TTTTTTTTTTTTTFT
F3 84 255 6 965 Part 179 13 967 SDL/TYSA_NAME79 14 964 SDL/TYSA_UNAME82 3 898 26
 8 2 82 3 891 26 1 2 82 3 887 26 4 2 82 3 881 26 2 2 82 3 876 26 3 2 81 1 310 29
44 33 307 0 0 305 863 968 82 3 869 26 0 2 81 1 305 2943 33 303 0 0 323 310 969 8
2 3 968 26 23 1 81 1 323 2942 33 321 0 0 314 305 970 82 3 969 26 22 1 81 1 314 2
941 33 312 0 0 318 323 971 82 3 970 26 21 1 81 1 318 2940 33 316 0 0 286 314 972
 82 3 971 26 20 1 81 1 286 2939 33 271 0 0 270 318 973 82 3 972 26 19 1 81 1 270
 2938 33 253 0 0 278 286 974 82 3 973 26 18 1 81 1 278 2937 33 256 0 0 274 270 9
75 82 3 974 26 17 1 82 3 975 26 16 1 56 20 2260 0 670 506 7 0 +R7 483 8 -.004 -.
004 1 1 0 0 0 0 83 3 851 .2862745098039215 .2862745098039215 .2862745098039215 8
3 3 848 .2862745098039215 .2862745098039215 .2862745098039215 83 3 845 .28627450
98039215 .2862745098039215 .2862745098039215 83 3 840 .2862745098039215 .2862745
098039215 .2862745098039215 83 3 834 .2862745098039215 .2862745098039215 .286274
5098039215 83 3 832 .2862745098039215 .2862745098039215 .2862745098039215 82 3 8
22 22 19 2 50 434 1082 0 667 425 488 0 +.1012126092268826 .215243505404424 .0413
4142321496105 .978147600733806 0 .207911690817759 .207911690817759 0 -.978147600
733806 82 3 819 22 18 2 82 3 816 22 20 2 81 1 227 2905 33 225 0 0 809 237 976 82
 3 812 22 21 2 81 1 237 2906 33 68 0 0 227 232 977 82 3 976 26 0 0 81 1 232 2907
 33 230 0 0 237 46 978 82 3 977 26 1 0 81 1 46 2908 33 239 0 0 232 43 979 82 3 9
78 26 2 0 82 3 979 26 3 0 81 1 131 2319 33 129 0 0 805 135 980 82 3 808 21 7 2 8
1 1 135 2320 33 133 0 0 131 167 981 82 3 980 22 0 0 81 1 167 2321 33 165 0 0 135
 139 982 82 3 981 22 1 0 81 1 139 2322 33 137 0 0 167 127 983 82 3 982 22 2 0 81
 1 127 2323 33 125 0 0 139 143 984 82 3 983 22 3 0 81 1 143 2324 33 141 0 0 127
 163 985 82 3 984 22 4 0 81 1 163 2325 33 161 0 0 143 123 986 82 3 985 22 5 0 81
 1 123 2326 33 121 0 0 163 99 987 82 3 986 22 6 0 81 1 99 2327 33 97 0 0 123 95
 988 82 3 987 22 7 0 81 1 95 2328 33 93 0 0 99 66 989 82 3 988 22 8 0 81 1 66 23
29 33 65 0 0 95 107 990 82 3 989 22 9 0 81 1 107 2330 33 105 0 0 66 147 991 82 3
 990 22 10 0 81 1 147 2331 33 145 0 0 107 119 992 82 3 991 22 11 0 81 1 119 2332
 33 117 0 0 147 62 993 82 3 992 22 12 0 81 1 62 2333 33 60 0 0 119 111 994 82 3
 993 22 13 0 81 1 111 2334 33 109 0 0 62 103 995 82 3 994 22 14 0 81 1 103 2335
 33 101 0 0 111 115 996 82 3 995 22 15 0 81 1 115 2336 33 113 0 0 103 55 997 82
 3 996 22 16 0 81 1 55 2337 33 45 0 0 115 151 998 82 3 997 22 17 0 81 1 151 2338
 33 149 0 0 55 83 999 82 3 998 22 18 0 81 1 83 2339 33 81 0 0 151 87 1000 82 3 9
99 22 19 0 81 1 87 2340 33 85 0 0 83 71 1001 82 3 1000 22 20 0 81 1 71 2341 33 5
7 0 0 87 91 1002 82 3 1001 22 21 0 81 1 91 2342 33 89 0 0 71 79 1003 82 3 1002 2
2 22 0 81 1 79 2343 33 77 0 0 91 75 1004 82 3 1003 22 23 0 81 1 75 2344 33 73 0
 0 79 155 1005 82 3 1004 22 24 0 81 1 155 2345 33 153 0 0 75 159 1006 82 3 1005
 22 25 0 81 1 159 2346 33 157 0 0 155 697 1007 82 3 1006 22 26 0 81 1 697 2347 3
3 689 0 0 159 691 1008 82 3 1007 22 27 0 81 1 691 2348 33 679 0 0 697 687 1009 8
2 3 1008 22 0 1 81 1 687 2349 33 685 0 0 691 684 1010 82 3 1009 22 1 1 82 3 1010
 22 2 1 82 3 804 22 17 2 82 3 801 22 13 2 82 3 798 22 15 2 82 3 796 22 14 2 82 3
 792 22 16 2 83 3 787 .2862745098039215 .2862745098039215 .2862745098039215 32 5
04 2169 0 1 729 512 1011 --.0934102426954937 .003130184229817805 .054 0 0 1 -.86
5910768825433 .50019850102949 0 .001029687496430398 .001 141 1011 500 1011 1011
 504 81 1 705 2356 33 703 0 0 537 774 1012 81 1 728 2358 33 349 0 0 774 709 1013
 82 3 775 22 10 1 81 1 709 2359 33 708 0 0 728 516 1014 82 3 1013 22 11 1 81 1 5
16 2360 33 698 0 0 709 515 1015 82 3 1014 22 12 1 82 3 1015 22 13 1 81 1 537 235
5 33 706 0 0 532 705 1016 82 3 1012 22 9 1 82 3 1016 22 8 1 81 1 768 2371 33 724
 0 0 551 772 1017 81 1 751 2373 33 749 0 0 772 754 1018 82 3 773 22 25 1 82 3 10
18 22 26 1 81 1 551 2370 33 547 0 0 542 768 1019 82 3 1017 22 24 1 81 1 542 2369
 33 534 0 0 658 551 1020 82 3 1019 22 23 1 81 1 658 2368 33 621 0 0 625 542 1021
 82 3 1020 22 22 1 81 1 625 2367 33 622 0 0 528 658 1022 82 3 1021 22 21 1 81 1
 528 2366 33 627 0 0 524 625 1023 82 3 1022 22 20 1 82 3 1023 22 19 1 17 152 0 4
81 188 681 149 676 678 0 672 +81 1 663 2375 33 626 0 0 754 753 1024 82 3 755 22
 27 1 81 1 753 2376 33 678 0 0 663 746 1025 82 3 1024 22 28 1 81 1 746 2377 33 6
34 0 0 753 648 1026 82 3 1025 22 29 1 81 1 648 2378 33 642 0 0 746 645 1027 82 3
 1026 22 30 1 82 3 1027 22 31 1 81 1 646 2381 33 747 0 0 641 702 1028 81 1 702 2
382 33 700 0 0 646 368 1029 82 3 1028 22 34 1 81 1 368 2383 33 366 0 0 702 364 1
030 82 3 1029 22 35 1 81 1 364 2384 33 362 0 0 368 356 1031 82 3 1030 22 36 1 81
 1 356 2385 33 354 0 0 364 360 1032 82 3 1031 22 37 1 81 1 360 2386 33 358 0 0 3
56 372 1033 82 3 1032 22 38 1 81 1 372 2387 33 370 0 0 360 394 1034 82 3 1033 22
 39 1 81 1 394 2388 33 392 0 0 372 385 1035 82 3 1034 22 40 1 81 1 385 2389 33 3
83 0 0 394 398 1036 82 3 1035 22 41 1 81 1 398 2390 33 396 0 0 385 402 1037 82 3
 1036 22 42 1 81 1 402 2392 33 400 0 0 398 736 1038 82 3 1037 22 43 1 82 3 1038
 22 45 1 82 3 739 22 47 1 81 1 651 2351 33 643 0 0 684 711 1039 81 1 536 2353 33
 543 0 0 711 532 1040 82 3 712 22 5 1 82 3 1040 22 6 1 82 3 1039 22 4 1 82 3 688
 22 3 1 17 620 0 510 530 76 77 617 621 0 0 +15 510 2205 0 76 505 0 17 530 0 510
 525 620 57 80 627 0 0 -82 3 664 22 32 1 81 1 517 2362 33 659 0 0 515 26 1041 81
 1 26 2363 33 11 0 0 517 527 1042 82 3 1041 22 15 1 81 1 527 2364 33 649 0 0 26
 524 1043 82 3 1042 22 16 1 82 3 1043 22 17 1 82 3 647 22 33 1 83 3 610 .2862745
098039215 .2862745098039215 .2862745098039215 83 3 608 .2862745098039215 .286274
5098039215 .2862745098039215 82 3 602 26 29 1 79 9 599 BTI/DetId83 3 583 .286274
5098039215 .2862745098039215 .2862745098039215 83 3 574 .2862745098039215 .28627
45098039215 .2862745098039215 141 565 497 1044 1044 558 141 1044 564 565 565 558
 82 3 538 22 7 1 82 3 529 22 18 1 82 3 518 22 14 1 141 511 503 511 511 506 80 2
 470 1045 1046 8044 0 0 0 0 3 5 0 0 0 FFFFTFFFTTFFFFFF3 2 84 6 478 BACAAB83 4 47
9 0 .0584355698766132 .00712150453236847 .058 79 17 1046 SDL/TYSA_BLEND_ID84 6 4
72 BACAAB83 4 473 -755034324984881e-34 .0518867560111307 .00632340488649959 .051
5 40 5 448 0 1 5 .000389415398063118 .3983211152697155 ??.0690792263732156 -.007
30977901597307 .0544874773736206 .0701523387166484 -.00673328819063058 .05611727
2424439 .0709507842271411 -.00559327471482881 .0573046822965238 .071342778740382
1 -.00446374431129665 .0578387871780138 .0715144338776156 -.003339594409407785 .
058 41 1 449 L?.0690792263732156 -.00730977901597307 .0544874773736206 41 1 450
 L?.0715144338776156 -.003339594409407785 .058 204 20 451 4 4.83456202802429 -.0
690792263732156 .992369874928072 .286358705281934 5.27018562521645 -.07015233871
66484 1.01661467432448 .285985133584512 5.68466564897263 -.0709507842271411 1.03
528830082443 .2849983264577495 5.99831032376844 -.0713427787403821 1.04467416420
5694 .2839423064137785 0 -.0715144338776156 1.048832304254778 .2828461826555545
 141 422 401 422 422 405 40 6 415 0 1 6 .000203258855059653 .342024213635306 ??.
0720308907049599 .00413769405527662 .058 .0720125681418059 .00531724365834814 .0
578221280373496 .0718022791568999 .00637545477337323 .0573154829163402 .07141757
27368458 .00723386401483792 .0565325346160537 .070848365795076 .0078537553507136
4 .0554801650072053 .0702702069959165 .00810787866184191 .0544874773736206 41 1
 416 L?.0720308907049599 .00413769405527662 .058 41 1 417 L?.0702702069959165 .0
0810787866184191 .0544874773736206 204 24 418 4 1.570796326794895 .0720308907049
599 1.061528503139696 .27542462876522 1.27145864957727 .0720125681418059 1.06107
3151732984 .274232194206723 .977086082288924 .0718022791568999 1.055873350239776
 .273120126328644 .685594967937458 .0714175727368458 1.046482283283206 .27217269
8144219 .3790534240932575 .070848365795076 1.032860404681264 .2714291757911095 .
1221730476396038 .0702702069959165 1.0193355527304 .2710559684864955 81 1 343 29
32 33 320 0 0 336 339 1047 81 1 336 2931 33 334 0 0 258 343 1048 81 1 339 2933 3
3 337 0 0 343 341 1049 82 3 1047 26 11 1 81 1 341 2934 33 291 0 0 339 277 1050 8
2 3 1049 26 12 1 81 1 277 2935 33 269 0 0 341 274 1051 82 3 1050 26 13 1 82 3 10
51 26 14 1 81 1 258 2930 33 250 0 0 301 336 1052 82 3 1048 26 10 1 81 1 301 2929
 33 260 0 0 300 258 1053 82 3 1052 26 9 1 81 1 300 2928 33 287 0 0 297 301 1054
 82 3 1053 26 8 1 81 1 297 2927 33 259 0 0 329 300 1055 82 3 1054 26 7 1 81 1 32
9 2926 33 327 0 0 293 297 1056 82 3 1055 26 6 1 81 1 293 2925 33 290 0 0 326 329
 1057 82 3 1056 26 5 1 81 1 326 2924 33 41 0 0 289 293 1058 82 3 1057 26 4 1 81
 1 289 2923 33 53 0 0 332 326 1059 82 3 1058 26 3 1 81 1 332 2922 33 308 0 0 281
 289 1060 82 3 1059 26 2 1 81 1 281 2921 33 275 0 0 221 332 1061 82 3 1060 26 1
 1 81 1 221 2920 33 219 0 0 207 281 1062 82 3 1061 26 0 1 81 1 207 2919 33 205 0
 0 35 221 1063 82 3 1062 26 15 0 81 1 35 2918 33 217 0 0 30 207 1064 82 3 1063 2
6 14 0 82 3 1064 26 13 0 82 3 279 26 15 1 81 1 235 2911 33 216 0 0 47 244 1065 8
1 1 202 2913 33 200 0 0 244 214 1066 82 3 246 26 7 0 81 1 214 2914 33 212 0 0 20
2 210 1067 82 3 1066 26 8 0 81 1 210 2915 33 208 0 0 214 34 1068 82 3 1067 26 9
 0 81 1 34 2916 33 204 0 0 210 30 1069 82 3 1068 26 10 0 82 3 1069 26 11 0 81 1
 47 2910 33 242 0 0 43 235 1070 82 3 1065 26 6 0 82 3 1070 26 5 0 82 3 48 26 4 0
 82 3 36 26 12 0 19 18 418 0 1 0 10 6 0 S0 141 23 20 23 23 8 141 21 20 21 21 7 7
4 4 CI16 index_map_offset0 0 1 dCCZ20 16 6 0 0 611 468 959 14 2 911 0 0 0 0 0 0
 0 0 0 0 0 0 0 0 80 1 13 570 1071 8040 0 0 0 0 3 5 0 0 0 TTTFFFFFFFFFFFFF2 83 3
 15 .2862745098039215 .2862745098039215 .2862745098039215 79 17 1071 SDL/TYSA_CO
LOUR_21 0 
