**ABCDEFGHIJKLMNOPQRSTUVWXYZabcdefghijklmnopqrstuvwxyz**************************
**PARASOLID !"#$%&'()*+,-./:;<=>?@[\]^_`{|}~0123456789**************************
**PART1;
MC=unknown;
MC_MODEL=unknown;
MC_ID=unknown;
OS=unknown;
OS_RELEASE=unknown;
FRU=Parasolid 34.1.198;
APPL=Onshape;
SITE=unknown;
USER=unknown;
FORMAT=text;
GUISE=transmit;
KEY=BTGapi::writeModels_.xmt;
FILE=BTGapi::writeModels_.xmt;
DATE=2023-01-03T18:44:21 (UTC);
**PART2;
SCH=SCH_3401198_34101;
USFLD_SIZE=0;
**PART3;
**END_OF_HEADER*****************************************************************
T51 : TRANSMIT FILE created by modeller version 340119823 SCH_3401198_34101_1300
6231 0 12 36 CCCI7 lattice222 0 CCCI4 mesh1006 0 I8 polyline1008 0 CCCCCCCDI5 ow
ner1040 0 CCCI16 boundary_lattice222 0 CCCI13 boundary_mesh1006 0 I17 boundary_p
olyline1008 0 CCCA16 index_map_offset0 0 1 dA9 index_map82 0 A17 node_id_index_m
ap82 0 A20 schema_embedding_map82 0 A5 child12 0 A14 lowest_node_id0 0 1 dA16 me
sh_offset_data206 0 Z1 1444 2 3 0 0 0 0 0 0 0 1e3 1e-8 0 4 0 1 0 1 1 5 0 6 7 8 0
 0 9 10 11 0 0 0 0 0 0 0 81 255 1 2 1426 12 1 13 0 0 0 14 70 11 CI9 list_type0 0
 1 uI10 notransmit0 0 1 lCCCDCCDI12 finger_index0 0 1 dI12 finger_block1012 0 CZ
3 0 4 T1 0 0 5 20 1 15 15 13 255 5 258 0 1 0 16 0 0 17 0 51 255 6 1229 0 18 19 0
 0 +0 -.03987749891398765 .0032 -1 0 0 .0032 0 0 1 31 255 7 1237 0 20 21 0 0 +.0
27 -.03987749891398765 .0032 1 0 0 0 0 -1 .0032 29 255 8 1045 0 11 22 0 .039 .04
212250108601235 0 19 9 CCCCCCI5 frame230 0 CA5 owner12 0 Z9 89 0 1 17 0 23 0 V0
 16 255 10 1047 24 ?25 0 26 27 0 0 1 18 255 11 1043 28 29 0 30 8 ?1 81 1 28 1341
 31 11 0 0 32 33 34 17 255 29 0 35 36 37 11 38 39 0 40 +18 30 1039 41 42 11 43 2
2 ?1 81 1 41 1329 31 30 0 0 44 45 46 17 42 0 47 25 48 30 49 50 0 36 +18 43 1035
 51 52 30 53 54 ?1 29 22 1041 0 30 54 8 -.039 .04212250108601235 0 29 54 1037 0
 43 55 22 .0421225010860124 .039 0 29 55 1033 0 53 56 54 -.04212250108601235 .03
9 0 18 53 1031 57 48 43 58 55 ?1 29 56 1029 0 58 59 55 .0421225010860124 -.039 0
 18 58 1027 60 61 53 62 56 ?1 29 59 1025 0 62 63 56 -.04212250108601235 -.039 0
 18 62 1023 64 65 58 66 59 ?1 29 63 1021 0 66 67 59 -.039 -.04212250108601235 0
 18 66 1019 68 69 62 70 63 ?1 29 67 1018 0 70 71 63 .039 -.04212250108601235 0 1
8 70 1016 72 73 66 74 67 ?1 29 71 1009 0 74 75 67 .027 .0398774989139876 0 18 74
 1007 76 77 70 78 71 ?1 29 75 1005 0 78 79 71 -.027 .0398774989139876 0 18 78 10
03 80 81 74 82 75 ?1 29 79 1001 0 82 83 75 .03987749891398765 .027 0 18 82 999 8
4 85 78 86 79 ?1 29 83 997 0 86 87 79 -.0398774989139876 .027 0 18 86 995 88 89
 82 90 83 ?1 29 87 993 0 90 91 83 .03987749891398765 -.027 0 18 90 991 92 93 86
 94 87 ?1 29 91 989 0 94 95 87 -.03987749891398765 -.027 0 18 94 987 96 97 90 98
 91 ?1 29 95 985 0 98 99 91 .027 -.03987749891398765 0 18 98 983 100 101 94 102
 95 ?1 29 99 982 0 102 103 95 -.027 -.03987749891398765 0 18 102 980 104 105 98
 106 99 ?1 29 103 747 0 106 107 99 -.027 .037 .0018 18 106 744 108 109 102 110 1
03 ?1 29 107 743 0 110 111 103 .027 .037 .0018 18 110 740 112 113 106 114 107 ?1
 29 111 721 0 114 115 107 .037 -.027 .0018 18 114 718 116 117 110 118 111 ?1 29
 115 717 0 118 119 111 .037 .027 .0018 18 118 714 120 121 114 122 115 ?1 29 119
 695 0 122 123 115 -.027 -.037 .0018 18 122 692 124 125 118 126 119 ?1 29 123 69
1 0 126 127 119 .027 -.037 .0018 18 126 688 128 129 122 130 123 ?1 29 127 669 0
 130 131 123 -.037 -.027 .0018 18 130 666 132 133 126 134 127 ?1 29 131 665 0 13
4 135 127 -.037 .027 .0018 18 134 662 136 137 130 138 131 ?1 29 135 443 0 138 13
9 131 .045 -.039 .0018 18 138 440 140 141 134 142 135 ?1 29 139 439 0 142 143 13
5 .045 .039 .0018 18 142 436 32 144 138 145 139 ?1 29 143 435 0 145 146 139 -.03
9 -.045 .0018 18 145 432 147 148 142 149 143 ?1 29 146 431 0 149 150 143 .039 -.
045 .0018 18 149 428 151 152 145 153 146 ?1 29 150 417 0 153 154 146 -.039 .045
 .0018 18 153 414 45 155 149 156 150 ?1 29 154 413 0 156 157 150 .039 .045 .0018
 18 156 410 33 158 153 159 154 ?1 29 157 355 0 159 160 154 -.045 -.039 .0018 18
 159 352 161 162 156 163 157 ?1 29 160 351 0 163 0 157 -.045 .039 .0018 18 163 3
48 44 164 159 0 160 ?1 81 1 44 1328 31 163 0 0 57 41 165 17 164 0 166 162 167 16
3 168 169 0 170 +15 255 166 6 0 167 16 171 17 162 0 166 148 164 159 170 172 0 17
3 +17 167 0 166 164 158 153 37 174 0 0 +17 168 0 175 176 177 153 164 169 0 167 -
16 169 459 178 ?164 179 180 181 0 0 1 17 170 0 182 183 184 163 162 172 0 177 -15
 182 1083 0 184 185 0 17 183 0 182 186 170 53 177 187 0 49 -17 184 0 182 170 186
 159 188 189 0 0 +16 172 349 190 ?162 191 174 192 0 0 1 17 177 0 175 168 49 163
 183 187 0 0 +15 175 1087 0 177 193 0 17 49 0 175 177 176 53 42 50 0 0 -16 187 1
110 194 ?177 195 39 196 0 0 1 81 1 194 1359 31 187 0 0 132 197 198 16 195 1107 1
99 ?200 189 187 201 0 0 1 16 39 1113 202 ?29 187 203 204 0 0 1 31 196 1145 0 187
 204 201 0 +-.04212250108601235 .039 .0032 0 1 0 0 0 1 .0032 31 204 1146 0 39 20
5 196 0 +.039 .04212250108601235 .0032 -1 0 0 0 0 1 .0032 31 201 1144 0 195 196
 206 0 +.0421225010860124 .039 .0032 0 1 0 0 0 1 .0032 31 206 1143 0 189 201 207
 0 +-.04212250108601235 -.039 .0032 0 1 0 0 0 1 .0032 16 189 1104 208 ?184 209 1
95 206 0 0 1 31 207 1142 0 209 206 210 0 +.0421225010860124 -.039 .0032 0 1 0 0
 0 1 .0032 16 209 1101 211 ?212 213 189 207 0 0 1 31 210 1141 0 213 207 214 0 +-
.039 -.04212250108601235 .0032 -1 0 0 0 0 1 .0032 16 213 1098 215 ?216 217 209 2
10 0 0 1 31 214 1140 0 217 210 218 0 +.039 -.04212250108601235 .0032 1 0 0 0 0 -
1 .0032 16 217 1095 219 ?220 174 213 214 0 0 1 31 218 1244 0 221 214 222 0 +-.02
7 .03987749891398765 .0032 1 0 0 0 0 -1 .0032 16 221 1212 223 ?81 224 0 218 0 0
 1 31 222 1243 0 224 218 225 0 +.027 .0398774989139876 .0032 -1 0 0 0 0 1 .0032
 16 224 1210 226 ?113 227 221 222 0 0 1 31 225 1242 0 227 222 228 0 +-.039877498
91398765 .027 .0032 0 1 0 0 0 1 .0032 16 227 1207 229 ?230 231 224 225 0 0 1 31
 228 1241 0 231 225 232 0 +.03987749891398765 .027 .0032 0 1 0 0 0 1 .0032 16 23
1 1204 233 ?234 235 227 228 0 0 1 31 232 1240 0 235 228 236 0 +-.039877498913987
65 -.027 .0032 0 1 0 0 0 1 .0032 16 235 1201 237 ?238 239 231 232 0 0 1 31 236 1
239 0 239 232 21 0 +.03987749891398765 -.027 .0032 0 1 0 0 0 1 .0032 16 239 1198
 240 ?241 242 235 236 0 0 1 31 21 1238 0 242 236 7 0 +-.027 -.03987749891398765
 .0032 -1 0 0 0 0 1 .0032 16 242 1195 243 ?244 20 239 21 0 0 1 81 1 243 1395 31
 242 0 0 245 237 246 17 244 0 247 248 249 102 250 242 0 0 +16 20 1192 251 ?252 2
03 242 7 0 0 1 81 1 251 1391 31 20 0 0 253 240 254 17 252 0 255 256 257 126 258
 20 0 0 +16 203 1115 197 ?155 39 20 205 0 0 1 81 1 197 1360 31 203 0 0 194 259 2
60 17 155 0 35 37 36 153 176 203 0 168 +31 205 1147 0 203 27 204 0 +-.039 .04212
250108601235 .0032 1 0 0 0 0 -1 .0032 30 255 27 1049 0 10 261 205 0 -69388939039
0723e-32 .04212250108601235 0 -1 0 0 31 261 1046 0 26 262 27 0 -.039 .039 0 0 0
 1 1 0 0 .00312250108601237 16 26 1044 263 ?52 10 50 261 0 0 1 31 262 1042 0 50
 264 261 0 --.039 .039 0 0 0 1 1 0 0 .00312250108601237 16 50 1040 259 ?42 26 26
5 262 0 0 1 30 264 1038 0 265 266 262 0 +.0421225010860124 -1018648908171896e-32
 0 -770988211545248e-31 -1 0 16 265 1036 267 ?61 50 268 264 0 0 1 30 266 1034 0
 268 269 264 0 --.04212250108601235 -3691298726095485e-33 0 -770988211545248e-31
 -1 0 16 268 1032 270 ?48 265 271 266 0 0 1 31 269 1030 0 271 272 266 0 -.039 -.
039 0 0 0 1 1 0 0 .00312250108601237 16 271 1028 273 ?73 268 274 269 0 0 1 31 27
2 1026 0 274 275 269 0 --.039 -.039 0 0 0 1 1 0 0 .00312250108601237 16 274 1024
 276 ?65 271 277 272 0 0 1 30 275 1022 0 277 278 272 0 +693889390390723e-32 -.04
212250108601235 0 -1 0 0 16 277 1020 279 ?69 274 280 275 0 0 1 30 278 1013 0 280
 281 275 0 +693889390390723e-32 .03987749891398765 0 -1 0 0 16 280 1011 282 ?283
 277 284 278 0 0 1 31 281 1010 0 284 285 278 0 +.027 .027 0 0 0 1 1 0 0 .0128774
9891398762 16 284 1008 286 ?77 280 287 281 0 0 1 31 285 1006 0 287 288 281 0 +-.
027 .027 0 0 0 1 1 0 0 .01287749891398762 16 287 1004 289 ?89 284 290 285 0 0 1
 30 288 1002 0 290 291 285 0 -.03987749891398765 -1067816058116852e-32 0 -937688
365392869e-31 -1 0 16 290 1000 292 ?85 287 293 288 0 0 1 30 291 998 0 293 294 28
8 0 +-.03987749891398765 -319962722664593e-32 0 -937688365392869e-31 -1 0 16 293
 996 295 ?97 290 296 291 0 0 1 31 294 994 0 296 297 291 0 +.027 -.027 0 0 0 1 1
 0 0 .01287749891398762 16 296 992 298 ?93 293 299 294 0 0 1 31 297 990 0 299 30
0 294 0 +-.027 -.027 0 0 0 1 1 0 0 .01287749891398762 16 299 988 301 ?105 296 30
2 297 0 0 1 30 300 986 0 302 303 297 0 -693889390390723e-32 -.03987749891398765
 0 -1 0 0 16 302 984 304 ?101 299 305 300 0 0 1 31 303 797 0 305 306 300 0 -.027
 .027 .0018 0 0 1 1 0 0 .01 16 305 786 307 ?121 302 308 303 0 0 1 31 306 795 0 3
08 309 303 0 --.027 .027 .0018 0 0 1 1 0 0 .01 16 308 778 253 ?109 305 310 306 0
 0 1 31 309 793 0 310 311 306 0 -.027 -.027 .0018 0 0 1 1 0 0 .01 16 310 770 245
 ?129 308 179 309 0 0 1 31 311 791 0 179 181 309 0 --.027 -.027 .0018 0 0 1 1 0
 0 .01 16 179 762 312 ?133 310 169 311 0 0 1 31 181 461 0 169 313 311 0 +-.039 .
039 .0018 0 0 1 1 0 0 .006 31 313 456 0 180 314 181 0 +.039 .039 .0018 0 0 1 1 0
 0 .006 16 180 454 315 ?158 169 316 313 0 0 1 31 314 451 0 316 317 313 0 +.039 -
.039 .0018 0 0 1 1 0 0 .006 16 316 449 318 ?141 180 319 314 0 0 1 31 317 446 0 3
19 320 314 0 +-.039 -.039 .0018 0 0 1 1 0 0 .006 16 319 444 321 ?148 316 322 317
 0 0 1 30 320 45 0 322 323 317 0 +-.037 -693889390390723e-32 .0018 -937688365392
869e-31 -1 0 16 322 663 324 ?325 319 326 320 0 0 1 30 323 40 0 326 327 320 0 +0
 -.037 .0018 -1 0 0 16 326 689 328 ?125 322 329 323 0 0 1 30 327 35 0 329 330 32
3 0 +.037 -693889390390723e-32 .0018 -937688365392869e-31 -1 0 16 329 715 331 ?1
17 326 332 327 0 0 1 30 330 30 0 332 333 327 0 +693889390390723e-32 .037 .0018 -
1 0 0 16 332 741 334 ?335 329 336 330 0 0 1 30 333 25 0 336 337 330 0 +.045 -138
7778780781446e-32 .0018 -770988211545248e-31 -1 0 16 336 437 338 ?339 332 191 33
3 0 0 1 30 337 20 0 191 192 333 0 +693889390390723e-32 -.045 .0018 -1 0 0 16 191
 429 340 ?341 336 172 337 0 0 1 30 192 15 0 172 342 337 0 +-.045 -13877787807814
46e-32 .0018 -770988211545248e-31 -1 0 30 342 10 0 174 0 192 0 +693889390390723e
-32 .045 .0018 -1 0 0 16 174 411 343 ?167 172 217 342 0 0 1 81 1 343 1382 31 174
 0 0 24 226 344 80 7 CCCCCDI12 legal_owners0 16 1 lCZ1 31 345 346 9000 0 0 0 0 3
 6 0 0 0 FFTFTFTTFFFFFFFF1 81 1 24 1381 31 10 0 0 338 343 347 81 1 226 1383 31 2
24 0 0 343 233 348 82 255 3 344 9 23 1 81 1 233 1384 31 231 0 0 226 286 349 82 3
 348 9 24 1 81 1 286 1385 31 284 0 0 233 307 350 82 3 349 9 25 1 81 1 307 1386 3
1 305 0 0 286 223 351 82 3 350 9 26 1 81 1 223 1387 31 221 0 0 307 229 352 82 3
 351 9 27 1 81 1 229 1388 31 227 0 0 223 289 353 82 3 352 9 28 1 81 1 289 1389 3
1 287 0 0 229 253 354 82 3 353 9 29 1 81 1 253 1390 31 308 0 0 289 251 355 82 3
 354 9 30 1 82 3 355 9 31 1 81 1 338 1380 31 336 0 0 267 24 356 82 3 347 9 22 1
 81 1 267 1379 31 265 0 0 340 338 357 82 3 356 9 21 1 81 1 340 1378 31 191 0 0 2
79 267 358 82 3 357 9 20 1 81 1 279 1377 31 277 0 0 190 340 359 82 3 358 9 19 1
 81 1 190 1376 31 172 0 0 270 279 360 82 3 359 9 18 1 81 1 270 1375 31 268 0 0 3
15 190 361 82 3 360 9 17 1 81 1 315 1374 31 180 0 0 263 270 362 82 3 361 9 16 1
 81 1 263 1373 31 26 0 0 202 315 363 82 3 362 9 15 1 81 1 202 1372 31 39 0 0 199
 263 364 82 3 363 9 14 1 81 1 199 1371 31 195 0 0 318 202 365 82 3 364 9 13 1 81
 1 318 1370 31 316 0 0 273 199 366 82 3 365 9 12 1 81 1 273 1369 31 271 0 0 211
 318 367 82 3 366 9 11 1 81 1 211 1368 31 209 0 0 219 273 368 82 3 367 9 10 1 81
 1 219 1367 31 217 0 0 321 211 369 82 3 368 9 9 1 81 1 321 1366 31 319 0 0 276 2
19 370 82 3 369 9 8 1 81 1 276 1365 31 274 0 0 215 321 371 82 3 370 9 7 1 81 1 2
15 1364 31 213 0 0 208 276 372 82 3 371 9 6 1 81 1 208 1363 31 189 0 0 178 215 3
73 82 3 372 9 5 1 81 1 178 1362 31 169 0 0 259 208 374 82 3 373 9 4 1 81 1 259 1
361 31 50 0 0 197 178 375 82 3 374 9 3 1 82 3 375 9 2 1 79 255 9 346 BTI/DetId17
 341 0 376 377 378 145 152 191 0 216 +15 376 1075 0 377 379 0 17 377 0 376 380 3
41 66 216 213 0 381 -17 378 0 376 341 380 149 220 217 0 382 -17 152 0 166 141 14
8 149 341 191 0 378 -17 216 0 383 173 381 145 377 213 0 0 +15 383 1079 0 216 384
 0 17 173 0 383 188 216 159 148 319 0 184 -17 381 0 383 216 188 66 65 274 0 0 -1
7 188 0 383 381 173 62 184 189 0 186 -17 65 0 47 48 69 62 381 274 0 188 +15 47 1
017 0 42 385 386 17 48 0 47 42 65 53 186 268 0 183 +17 69 0 47 65 73 66 380 277
 0 377 +17 73 0 47 69 61 70 387 271 0 380 +17 380 0 376 378 377 70 69 277 0 220
 -17 220 0 388 387 382 70 378 217 0 0 +15 388 1077 0 220 389 0 17 387 0 388 390
 220 58 73 271 0 212 -17 382 0 388 220 390 149 141 316 0 0 -17 390 0 388 382 387
 138 212 209 0 339 -17 141 0 166 144 152 138 382 316 0 390 +17 144 0 166 158 141
 142 339 336 0 391 -17 158 0 166 167 144 156 392 180 0 38 +17 339 0 393 212 391
 138 144 336 0 0 +17 391 0 393 339 394 142 200 195 0 392 -15 393 1081 0 212 395
 0 17 394 0 393 391 212 43 61 265 0 200 -17 200 0 396 40 392 43 391 195 0 0 +17
 392 0 396 200 38 142 158 180 0 0 -15 396 1085 0 200 397 0 17 38 0 396 392 40 15
6 29 39 0 37 -17 40 0 396 38 200 11 52 26 0 25 -17 37 0 35 29 155 156 167 174 0
 0 -15 35 1089 0 29 398 0 14 255 398 1088 399 ?18 193 35 5 400 +0 0 18 193 23 81
 1 399 1436 401 398 402 0 403 404 405 14 18 1171 404 ?406 398 407 5 6 +0 0 406 3
98 23 14 193 1086 403 ?398 397 175 5 408 +0 0 398 397 23 51 400 1139 0 398 409 4
08 0 +693889390390723e-32 .04212250108601235 .0032 -1 0 0 .0032 0 0 1 13 23 90 0
 0 0 0 0 0 9 16 14 16 1 410 ?385 0 166 5 411 +0 0 385 0 23 81 1 410 1427 401 16
 412 0 0 413 414 14 385 124 413 ?379 16 47 5 409 -0 0 379 16 23 50 255 411 3 0 1
6 0 409 0 +693889390390723e-32 -693889390390723e-32 .0018 0 0 1 1 0 0 50 409 201
 0 385 411 400 0 +693889390390723e-32 -693889390390723e-32 0 0 0 1 1 0 0 81 1 41
3 1428 401 385 415 0 410 416 417 14 379 1074 416 ?389 385 376 5 418 +0 0 389 385
 23 81 1 416 1429 401 379 419 0 413 420 421 14 389 1076 420 ?384 379 388 5 422 +
0 0 384 379 23 51 418 1132 0 379 422 423 0 +693889390390723e-32 -.04212250108601
235 .0032 -1 0 0 .0032 0 0 1 54 255 422 1133 0 389 424 418 0 +.039 -.039 .0032 0
 0 -1 .00312250108601237 .0032 -1 0 0 51 423 1236 0 425 418 426 0 +6938893903907
23e-32 .03987749891398765 .0032 -1 0 0 .0032 0 0 1 14 425 1185 427 ?0 428 429 5
 423 +0 0 0 428 23 54 426 1235 0 428 423 430 0 +-.027 .027 .0032 0 0 1 .01287749
891398762 .0032 1 0 0 14 428 1183 431 ?425 432 433 5 426 +0 0 425 432 23 54 430
 1234 0 432 426 434 0 +.027 .027 .0032 0 0 1 .01287749891398762 .0032 1 0 0 14 4
32 1181 435 ?428 436 437 5 430 +0 0 428 436 23 51 434 1233 0 436 430 438 0 +-.03
987749891398765 -666907417859955e-32 .0032 -937688365392869e-31 -1 0 .0032 1 -93
7688365392869e-31 0 14 436 1179 439 ?432 440 441 5 434 +0 0 432 440 23 51 438 12
32 0 440 434 442 0 +.03987749891398765 -720871362921491e-32 .0032 -9376883653928
69e-31 -1 0 .0032 1 -937688365392869e-31 0 14 440 1177 443 ?436 444 445 5 438 +0
 0 436 444 23 54 442 1231 0 444 438 19 0 +-.027 -.027 .0032 0 0 1 .0128774989139
8762 .0032 1 0 0 14 444 1175 446 ?440 406 247 5 442 +0 0 440 406 23 54 19 1230 0
 406 442 6 0 +.027 -.027 .0032 0 0 1 .01287749891398762 .0032 1 0 0 14 406 1173
 447 ?444 18 255 5 19 +0 0 444 18 23 81 1 447 1438 401 406 448 0 404 446 449 15
 255 1174 0 252 406 0 80 1 401 0 450 8001 0 0 0 0 3 5 0 0 0 FFFFTFTFFFFFFFFF2 81
 1 448 1417 31 406 0 447 451 452 453 81 1 404 1437 401 18 454 0 399 447 455 81 1
 446 1439 401 444 452 0 447 443 456 83 255 3 449 .2823529411764705 .278431372549
0195 .2784313725490195 81 1 452 1418 31 444 0 446 448 457 458 81 1 443 1440 401
 440 459 0 446 439 460 83 3 456 .2823529411764705 .2784313725490195 .27843137254
90195 81 1 459 1421 31 440 0 443 454 461 462 81 1 439 1441 401 436 461 0 443 435
 463 83 3 460 .2823529411764705 .2784313725490195 .2784313725490195 81 1 461 142
2 31 436 0 439 459 415 464 81 1 435 1442 401 432 465 0 439 431 466 83 3 463 .282
3529411764705 .2784313725490195 .2784313725490195 81 1 465 1415 31 432 0 435 402
 451 467 81 1 431 1443 401 428 451 0 435 427 468 83 3 466 .2823529411764705 .278
4313725490195 .2784313725490195 81 1 451 1416 31 428 0 431 465 448 469 81 1 427
 1444 401 425 457 0 431 0 470 83 3 468 .2823529411764705 .2784313725490195 .2784
313725490195 81 1 457 1419 31 425 0 427 452 454 471 83 3 470 .2823529411764705 .
2784313725490195 .2784313725490195 81 1 454 1420 31 18 0 404 457 459 472 82 3 47
1 9 12 2 82 3 472 9 13 2 82 3 469 9 9 2 81 1 402 1414 31 398 0 399 473 465 474 8
2 3 467 9 8 2 81 1 473 1413 31 395 0 475 419 402 476 82 3 474 9 7 2 14 395 1080
 475 ?185 384 393 5 477 +0 0 185 384 23 81 1 475 1432 401 395 473 0 478 479 480
 81 1 419 1412 31 379 0 416 481 473 482 82 3 476 9 6 2 81 1 481 1411 31 185 0 47
9 483 419 484 82 3 482 9 5 2 14 185 1082 479 ?397 395 182 5 485 +0 0 397 395 23
 81 1 479 1433 401 185 481 0 475 486 487 81 1 483 1410 31 397 0 486 488 481 489
 82 3 484 9 4 2 14 397 1084 486 ?193 185 396 5 490 +0 0 193 185 23 81 1 486 1434
 401 397 483 0 479 403 491 81 1 488 1409 31 389 0 420 492 483 493 82 3 489 9 3 2
 81 1 420 1430 401 389 488 0 416 478 494 81 1 492 1408 31 384 0 478 495 488 496
 82 3 493 9 2 2 14 384 1078 478 ?395 389 383 5 424 +0 0 395 389 23 81 1 478 1431
 401 384 492 0 420 475 497 81 1 495 1407 31 193 0 403 324 492 498 82 3 496 9 1 2
 81 1 403 1435 401 193 495 0 486 399 499 81 1 324 1406 31 322 0 0 295 495 500 82
 3 498 9 0 2 81 1 295 1405 31 293 0 0 331 324 501 82 3 500 9 47 1 81 1 331 1404
 31 329 0 0 292 295 502 82 3 501 9 46 1 81 1 292 1403 31 290 0 0 328 331 503 82
 3 502 9 45 1 81 1 328 1402 31 326 0 0 304 292 504 82 3 503 9 44 1 81 1 304 1401
 31 302 0 0 334 328 505 82 3 504 9 43 1 81 1 334 1400 31 332 0 0 282 304 506 82
 3 505 9 42 1 81 1 282 1399 31 280 0 0 312 334 507 82 3 506 9 41 1 81 1 312 1398
 31 179 0 0 301 282 508 82 3 507 9 40 1 81 1 301 1397 31 299 0 0 237 312 509 82
 3 508 9 39 1 81 1 237 1396 31 235 0 0 243 301 510 82 3 509 9 38 1 82 3 510 9 37
 1 83 3 499 .2823529411764705 .2784313725490195 .2784313725490195 83 3 497 .2823
529411764705 .2784313725490195 .2784313725490195 54 424 1134 0 384 477 422 0 +-.
039 -.039 .0032 0 0 -1 .00312250108601237 .0032 -1 0 0 51 477 1135 0 395 485 424
 0 +.0421225010860124 -136559360336726e-31 .0032 -770988211545248e-31 -1 0 .0032
 1 -770988211545248e-31 0 51 485 1136 0 185 490 477 0 +-.04212250108601235 -1409
963958195632e-32 .0032 -770988211545248e-31 -1 0 .0032 1 -770988211545248e-31 0
 54 490 1137 0 397 408 485 0 +.039 .039 .0032 0 0 -1 .00312250108601237 .0032 -1
 0 0 54 408 1138 0 193 400 490 0 +-.039 .039 .0032 0 0 -1 .00312250108601237 .00
32 -1 0 0 83 3 494 .2823529411764705 .2784313725490195 .2784313725490195 83 3 49
1 .2823529411764705 .2784313725490195 .2784313725490195 83 3 487 .28235294117647
05 .2784313725490195 .2784313725490195 83 3 480 .2823529411764705 .2784313725490
195 .2784313725490195 81 1 415 1423 31 385 0 413 461 0 511 82 3 464 9 15 2 82 3
 511 9 16 2 82 3 462 9 14 2 82 3 458 9 11 2 83 3 455 .2823529411764705 .27843137
25490195 .2784313725490195 82 3 453 9 10 2 79 15 450 SDL/TYSA_COLOUR15 247 1176
 0 244 444 0 15 445 1178 0 241 440 0 17 241 0 445 512 513 114 514 239 0 0 +17 51
2 0 445 515 241 118 117 329 0 234 -17 513 0 445 241 515 90 85 290 0 0 -17 514 0
 255 257 256 90 241 239 0 513 -17 257 0 255 252 514 98 93 296 0 0 -17 256 0 255
 514 252 114 129 310 0 241 -17 129 0 171 125 117 126 256 310 0 516 +15 171 7 0 5
17 16 0 17 125 0 171 133 129 122 516 326 0 250 +17 117 0 171 129 121 114 512 329
 0 256 +17 516 0 407 258 250 126 125 326 0 252 -15 407 1172 0 250 18 0 17 258 0
 407 518 516 98 252 20 0 257 -17 250 0 407 516 518 122 244 242 0 249 -17 518 0 4
07 250 258 102 101 302 0 244 -17 249 0 247 244 519 122 133 179 0 0 -17 519 0 247
 249 248 130 238 235 0 325 -17 133 0 171 137 125 130 249 179 0 519 +17 137 0 171
 109 133 134 325 322 0 520 -17 109 0 171 517 137 106 521 308 0 335 +17 325 0 441
 238 520 130 137 322 0 0 +17 520 0 441 325 522 134 230 227 0 521 -15 441 1180 0
 238 436 0 17 522 0 441 520 238 86 97 293 0 230 -17 230 0 433 523 521 86 520 227
 0 0 +17 521 0 433 230 524 134 109 308 0 0 -15 433 1184 0 230 428 0 17 524 0 433
 521 523 106 81 221 0 0 -17 523 0 433 524 230 78 89 287 0 283 -17 81 0 429 525 3
35 78 524 221 0 523 +15 429 1186 0 113 425 0 17 525 0 429 113 81 74 283 280 0 0
 -17 335 0 429 81 113 106 517 332 0 524 +17 113 0 429 335 525 110 526 224 0 527
 +17 517 0 171 121 109 110 335 332 0 0 -17 121 0 171 117 517 118 527 305 0 512 +
17 527 0 437 526 234 110 121 305 0 517 -15 437 1182 0 234 432 0 17 526 0 437 528
 527 74 113 224 0 525 -17 234 0 437 527 528 118 515 231 0 0 +17 528 0 437 234 52
6 82 77 284 0 0 -17 515 0 445 513 512 82 234 231 0 528 -17 77 0 386 283 85 74 52
8 284 0 526 +15 386 981 0 77 385 0 17 283 0 386 89 77 78 525 280 0 0 +17 85 0 38
6 77 93 82 513 290 0 515 +17 93 0 386 85 101 90 257 296 0 514 +17 101 0 386 93 1
05 98 518 302 0 258 +17 105 0 386 101 97 102 248 299 0 518 +17 97 0 386 105 89 9
4 522 293 0 248 +17 248 0 247 519 244 94 105 299 0 238 -17 238 0 441 522 325 94
 519 235 0 0 +17 89 0 386 97 283 86 523 287 0 522 +83 3 421 .2823529411764705 .2
784313725490195 .2784313725490195 83 3 417 .2823529411764705 .2784313725490195 .
2784313725490195 81 1 412 963 31 16 0 410 529 57 530 83 3 414 .2823529411764705
 .2784313725490195 .2784313725490195 81 1 529 335 31 1 0 531 0 412 532 81 1 57 1
327 31 53 0 0 412 44 533 82 3 530 8 9 2 82 3 533 9 0 0 81 1 531 1424 534 1 529 1
3 0 0 535 82 3 532 6 0 3 80 1 534 536 537 8038 0 0 0 0 0 0 0 0 0 TTTTTTTTTTTTTFT
F10 81 1 13 1425 536 1 531 2 0 0 538 98 255 6 535 80 97 114 116 32 49 80 1 536 5
39 540 8017 0 0 0 0 0 0 0 0 0 TTTTTTTTTTTTTFTF3 84 255 6 538 Part 179 13 540 SDL
/TYSA_NAME79 14 537 SDL/TYSA_UNAME83 3 405 .2823529411764705 .2784313725490195 .
2784313725490195 17 52 0 47 61 25 43 40 26 0 394 +17 25 0 47 52 42 11 36 10 0 0
 +17 36 0 35 155 29 30 25 10 0 176 -17 176 0 175 49 168 30 155 203 0 0 -17 61 0
 47 73 52 58 394 265 0 387 +17 212 0 393 394 339 58 390 209 0 0 +17 186 0 182 18
4 183 62 48 268 0 0 -17 148 0 166 152 162 145 173 319 0 341 +81 1 245 1394 31 31
0 0 0 298 243 541 81 1 298 1393 31 296 0 0 240 245 542 82 3 541 9 35 1 81 1 240
 1392 31 239 0 0 251 298 543 82 3 542 9 34 1 82 3 543 9 33 1 82 3 260 9 1 1 82 3
 254 9 32 1 82 3 246 9 36 1 81 1 132 1358 31 130 0 0 96 194 544 82 3 198 9 0 1 8
1 1 96 1357 31 94 0 0 124 132 545 82 3 544 9 31 0 81 1 124 1356 31 122 0 0 104 9
6 546 82 3 545 9 30 0 81 1 104 1355 31 102 0 0 116 124 547 82 3 546 9 29 0 81 1
 116 1354 31 114 0 0 92 104 548 82 3 547 9 28 0 81 1 92 1353 31 90 0 0 128 116 5
49 82 3 548 9 27 0 81 1 128 1352 31 126 0 0 100 92 550 82 3 549 9 26 0 81 1 100
 1351 31 98 0 0 136 128 551 82 3 550 9 25 0 81 1 136 1350 31 134 0 0 88 100 552
 82 3 551 9 24 0 81 1 88 1349 31 86 0 0 108 136 553 82 3 552 9 23 0 81 1 108 134
8 31 106 0 0 80 88 554 82 3 553 9 22 0 81 1 80 1347 31 78 0 0 120 108 555 82 3 5
54 9 21 0 81 1 120 1346 31 118 0 0 84 80 556 82 3 555 9 20 0 81 1 84 1345 31 82
 0 0 112 120 557 82 3 556 9 19 0 81 1 112 1344 31 110 0 0 76 84 558 82 3 557 9 1
8 0 81 1 76 1343 31 74 0 0 33 112 559 82 3 558 9 17 0 81 1 33 1342 31 156 0 0 28
 76 560 82 3 559 9 16 0 82 3 560 9 15 0 82 3 165 9 1 0 81 1 161 1332 31 159 0 0
 64 68 561 81 1 64 1331 31 62 0 0 45 161 562 81 1 68 1333 31 66 0 0 161 147 563
 82 3 561 9 5 0 81 1 147 1334 31 145 0 0 68 72 564 82 3 563 9 6 0 81 1 72 1335 3
1 70 0 0 147 151 565 82 3 564 9 7 0 81 1 151 1336 31 149 0 0 72 60 566 82 3 565
 9 8 0 81 1 60 1337 31 58 0 0 151 140 567 82 3 566 9 9 0 81 1 140 1338 31 138 0
 0 60 51 568 82 3 567 9 10 0 81 1 51 1339 31 43 0 0 140 32 569 82 3 568 9 11 0 8
1 1 32 1340 31 142 0 0 51 28 570 82 3 569 9 12 0 82 3 570 9 13 0 81 1 45 1330 31
 153 0 0 41 64 571 82 3 562 9 4 0 82 3 571 9 3 0 82 3 46 9 2 0 82 3 34 9 14 0 19
 17 259 0 1 0 9 5 0 S0 74 4 CI16 index_map_offset0 0 1 dCCZ20 15 5 0 0 415 531 1
3 2 427 0 0 0 0 0 0 0 0 0 0 0 0 0 0 0 80 1 12 401 572 8040 0 0 0 0 3 5 0 0 0 TTT
FFFFFFFFFFFFF2 83 3 14 .2823529411764705 .2784313725490195 .2784313725490195 79
 17 572 SDL/TYSA_COLOUR_21 0 
