**ABCDEFGHIJKLMNOPQRSTUVWXYZabcdefghijklmnopqrstuvwxyz**************************
**PARASOLID !"#$%&'()*+,-./:;<=>?@[\]^_`{|}~0123456789**************************
**PART1;
MC=unknown;
MC_MODEL=unknown;
MC_ID=unknown;
OS=unknown;
OS_RELEASE=unknown;
FRU=Parasolid 34.1.198;
APPL=Onshape;
SITE=unknown;
USER=unknown;
FORMAT=text;
GUISE=transmit;
KEY=BTGapi::writeModels_.xmt;
FILE=BTGapi::writeModels_.xmt;
DATE=2023-01-03T18:44:31 (UTC);
**PART2;
SCH=SCH_3401198_34101;
USFLD_SIZE=0;
**PART3;
**END_OF_HEADER*****************************************************************
T51 : TRANSMIT FILE created by modeller version 340119823 SCH_3401198_34101_1300
6231 0 12 36 CCCI7 lattice222 0 CCCI4 mesh1006 0 I8 polyline1008 0 CCCCCCCDI5 ow
ner1040 0 CCCI16 boundary_lattice222 0 CCCI13 boundary_mesh1006 0 I17 boundary_p
olyline1008 0 CCCA16 index_map_offset0 0 1 dA9 index_map82 0 A17 node_id_index_m
ap82 0 A20 schema_embedding_map82 0 A5 child12 0 A14 lowest_node_id0 0 1 dA16 me
sh_offset_data206 0 Z1 104 2 3 0 0 0 0 0 0 0 1e3 1e-8 0 4 0 1 0 1 1 5 0 6 7 0 0
 0 8 9 0 0 0 0 0 0 0 0 81 255 1 2 101 10 1 11 0 0 0 12 70 11 CI9 list_type0 0 1
 uI10 notransmit0 0 1 lCCCDCCDI12 finger_index0 0 1 dI12 finger_block1012 0 CZ3
 0 4 T1 0 0 5 20 1 13 13 13 255 5 49 0 1 0 14 0 0 15 0 50 255 6 82 0 14 16 0 0 +
0 -.001375 .002765411361804965 0 2483546205172605e-32 1 0 -1 2483546205172605e-3
2 31 255 7 84 0 9 17 0 0 +0 686802689335193e-34 .002765411361804965 0 -248354620
5172605e-32 -1 0 1 -2483546205172605e-32 .00275 19 9 CCCCCCI5 frame230 0 CA5 own
er12 0 Z8 57 0 1 15 0 18 0 V0 16 255 9 71 19 ?20 0 21 7 0 0 1 81 1 19 94 22 9 0
 0 23 24 25 17 255 20 0 26 20 20 0 27 9 0 0 +16 21 66 23 ?28 9 0 17 0 0 1 81 1 2
3 93 22 21 0 0 0 19 29 17 28 0 30 28 28 0 31 21 0 0 +31 17 83 0 21 0 7 0 +0 0 0
 0 -2483546205172605e-32 -1 0 1 -2483546205172605e-32 .0039 15 255 30 90 0 28 32
 0 17 31 0 33 31 31 0 28 21 0 0 -15 33 91 0 31 34 26 14 255 34 74 35 ?32 14 33 5
 16 -0 0 32 14 18 15 26 73 0 20 34 0 81 1 35 103 36 34 37 0 38 39 40 14 32 69 39
 ?0 34 30 5 41 +0 0 0 34 18 14 14 77 38 ?34 0 42 5 6 +0 0 34 0 18 53 255 16 81 0
 34 41 6 0 -0 216840434497101e-32 -106388400865978e-32 .0039 0 -2483546205172605
e-32 -1 0 -1 2483546205172605e-32 13 18 56 0 0 0 0 0 0 8 14 50 41 80 0 32 0 16 0
 +0 -.00195 0 0 -2483546205172605e-32 -1 0 1 -2483546205172605e-32 81 1 38 102 3
6 14 43 0 0 35 44 15 42 76 0 27 14 0 17 27 0 42 27 27 0 20 9 0 0 -80 7 CCCCCDI12
 legal_owners0 16 1 lCZ1 36 0 45 8001 0 0 0 0 3 5 0 0 0 FFFFTFTFFFFFFFFF2 81 1 4
3 97 22 14 0 38 37 46 47 83 255 3 44 .231372549019608 .380392156862745 .70588235
2941177 80 1 22 48 49 9000 0 0 0 0 3 6 0 0 0 FFTFTFTTFFFFFFFF1 81 1 37 96 22 34
 0 35 24 43 50 81 1 46 98 22 1 0 51 43 0 52 82 255 3 47 6 2 2 81 1 51 99 53 1 46
 11 0 0 54 82 3 52 6 0 3 80 1 53 55 56 8038 0 0 0 0 0 0 0 0 0 TTTTTTTTTTTTTFTF10
 81 1 11 100 55 1 51 2 0 0 57 98 255 6 54 80 97 114 116 32 49 80 1 55 58 59 8017
 0 0 0 0 0 0 0 0 0 TTTTTTTTTTTTTFTF3 84 255 6 57 Part 179 255 13 59 SDL/TYSA_NAM
E79 14 56 SDL/TYSA_UNAME81 1 24 95 22 32 0 39 19 37 60 82 3 50 6 1 2 81 1 39 104
 36 32 24 0 35 0 61 82 3 60 6 0 2 83 3 61 .231372549019608 .380392156862745 .705
882352941177 79 9 49 BTI/DetId79 15 45 SDL/TYSA_COLOUR83 3 40 .231372549019608 .
380392156862745 .705882352941177 82 3 29 6 0 1 82 3 25 6 1 1 19 15 48 0 1 0 8 5
 0 S0 74 4 CI16 index_map_offset0 0 1 dCCZ20 13 5 0 0 46 51 11 2 39 0 0 0 0 0 0
 0 0 0 0 0 0 0 0 0 80 1 10 36 62 8040 0 0 0 0 3 5 0 0 0 TTTFFFFFFFFFFFFF2 83 3 1
2 .231372549019608 .380392156862745 .705882352941177 79 17 62 SDL/TYSA_COLOUR_21
 0 
