**ABCDEFGHIJKLMNOPQRSTUVWXYZabcdefghijklmnopqrstuvwxyz**************************
**PARASOLID !"#$%&'()*+,-./:;<=>?@[\]^_`{|}~0123456789**************************
**PART1;
MC=unknown;
MC_MODEL=unknown;
MC_ID=unknown;
OS=unknown;
OS_RELEASE=unknown;
FRU=Parasolid 34.1.198;
APPL=Onshape;
SITE=unknown;
USER=unknown;
FORMAT=text;
GUISE=transmit;
KEY=BTGapi::writeModels_.xmt;
FILE=BTGapi::writeModels_.xmt;
DATE=2023-01-03T18:44:42 (UTC);
**PART2;
SCH=SCH_3401198_34101;
USFLD_SIZE=0;
**PART3;
**END_OF_HEADER*****************************************************************
T51 : TRANSMIT FILE created by modeller version 340119823 SCH_3401198_34101_1300
6231 0 12 36 CCCI7 lattice222 0 CCCI4 mesh1006 0 I8 polyline1008 0 CCCCCCCDI5 ow
ner1040 0 CCCI16 boundary_lattice222 0 CCCI13 boundary_mesh1006 0 I17 boundary_p
olyline1008 0 CCCA16 index_map_offset0 0 1 dA9 index_map82 0 A17 node_id_index_m
ap82 0 A20 schema_embedding_map82 0 A5 child12 0 A14 lowest_node_id0 0 1 dA16 me
sh_offset_data206 0 Z1 2352 2 3 0 0 0 0 0 0 0 1e3 1e-8 0 4 5 1 0 1 1 6 0 7 8 9 0
 0 10 11 12 0 0 0 0 0 0 0 81 255 1 2 2327 13 1 14 0 0 0 15 70 11 CI9 list_type0
 0 1 uI10 notransmit0 0 1 lCCCDCCDI12 finger_index0 0 1 dI12 finger_block1012 0
 CZ3 0 4 T1 0 0 6 20 1 16 16 13 255 6 281 0 1 0 17 0 0 18 0 51 255 7 1901 0 19 2
0 0 21 +711189085446192e-33 -.00573961633316814 .011 -1 -123908819712629e-30 0 .
004 123908819712629e-30 -1 0 31 255 8 1911 0 22 23 0 0 +-.1317396163331682 -.005
73961633316816 .011 -1 0 0 0 0 1 .004 29 255 9 1934 0 24 25 0 -.1333055598135054
 .00978880724047329 .01468073647744426 19 9 CCCCCCI5 frame230 0 CA5 owner12 0 Z1
0 144 0 1 18 0 26 0 V0 16 255 11 1739 27 ?28 0 29 30 0 0 1 18 255 12 1735 31 28
 0 32 33 ?1 81 1 31 2006 34 12 0 0 35 36 37 17 255 28 0 38 39 40 12 41 11 0 42 +
18 32 1731 43 39 12 44 45 ?1 29 33 1737 0 12 45 25 .1354983868163118 .0076991698
4716122 .01236808057330266 29 45 1733 0 32 46 33 .1354983868163118 -.00573961633
316815 .01236808057330266 29 25 1843 0 47 33 9 .1333055598135054 .00978880724047
329 .0146807364774443 18 47 1808 35 48 49 24 25 ?1 81 1 35 2005 34 47 0 0 50 31
 51 17 48 0 52 53 54 47 42 55 0 56 +18 49 1534 57 58 59 47 60 ?1 18 24 1899 61 6
2 47 0 9 ?1 81 1 61 2000 34 24 0 0 63 64 65 17 62 0 66 67 68 24 69 70 0 71 +15 2
55 66 1859 0 68 72 0 17 67 0 66 73 62 74 75 76 0 0 -17 68 0 66 62 77 78 79 80 0
 0 -17 69 0 81 82 71 78 62 70 0 68 -16 70 1876 83 ?62 84 85 86 0 0 1 17 71 0 81
 69 87 24 88 85 0 75 -15 81 1857 0 69 89 0 17 87 0 81 71 90 91 92 93 0 94 -17 88
 0 95 96 75 91 71 85 0 87 +16 85 1883 97 ?88 70 76 98 0 0 1 17 75 0 95 88 99 24
 67 76 0 0 +15 95 1861 0 100 101 0 17 99 0 95 75 100 74 102 103 0 67 -16 76 1884
 104 ?75 85 105 106 0 0 1 81 1 104 2035 34 76 0 0 83 107 108 16 105 2257 109 ?11
0 76 111 112 0 0 1 38 12 CCCCCCCCCCCA17 intersection_data204 0 Z106 1918 0 76 11
3 114 0 +115 116 117 118 119 120 31 113 1822 0 121 122 106 0 +.131739616333168 -
.00573961633316813 .011 -.3236155771181795 .3236155771181855 .88912649071599 0 -
.939692620785908 .3420201433256685 .004 32 255 114 1917 0 1 106 98 123 +55970462
7137005e-31 -.2731157164593335 .782532559173811 -116436203534249e-30 .9396926207
85909 .342020143325669 423793122774278e-31 -.342020143325669 .939692620785908 .8
39007818243731 .642717276898988 56 255 115 1910 0 101 124 116 125 +R126 127 114
 .004 -.004 1 1 0 0 0 0 51 116 1909 0 72 115 128 129 +-.15903333377425 .03499288
728824295 -.0639888723623471 .3236155771181845 -.3236155771181845 .8891264907159
89 .004 0 -.939692620785909 -.3420201433256685 40 255 11 117 0 1 11 .00040375057
20384675 .3769558912754585 ??-.131791180074019 .01149974040645882 .0122532046800
515 -.1328911365876834 .01042150243918066 .0140746983686979 -.1336547899214244 .
00910803086775163 .0151386495017967 -.1340842203642034 .00792119044775378 .01557
561282230845 -.134300584763544 .00684619044967231 .0156226459916935 -.1343414703
026526 .00578656086781801 .01531983380615785 -.1342170798139032 .004974149681501
74 .0147720789379498 -.1339552121733666 .00433411854342573 .01400884457241996 -.
1333940113428678 .003774860271870235 .0126704931352245 -.132478357507577 .003677
530098874285 .01078828491825212 -.1317911800741042 .00398221944880678 .009517050
81594586 41 3 CI8 term_use0 0 1 cCZ2 118 TF-.1317852531530734 .01150357715021 .0
122426944411173 -.131791180074019 .01149974040645882 .0122532046800515 41 2 119
 TF-.1317852531530734 .00398603618392274 .00950653329451194 -.1317911800741042 .
00398221944880678 .00951705081594586 204 2 17 INTERSECTION_DATA17 Intersection d
ata7 uv_type0 0 1 u6 values0 1 1 fT52 120 4 3.34810120744259 0 3.141592653589795
 .0841989154657582 3.348114499545375 .002591300116486815 3.143899856321235 .0842
075839837193 3.35059081025363 .500000000000082 3.586986279272435 .08582009381504
39 3.35232117675065 .916185390231271 3.957991906580075 .0869440106986088 3.35329
828314528 1.247020574273122 4.25300535536053 .0875776360292397 3.353791701573845
 1.54224650468441 4.51625907734644 .0878973223209031 3.35388502492699 1.85204269
866375 4.79242298692775 .0879577654263606 3.35360118020926 2.125007552122025 5.0
3562704373684 .0877739056773399 3.35300443557567 2.393664780801365 5.27483511497
85 .0873871622780653 3.35172924136771 2.765469451648125 5.60557897608092 .086559
7965803157 3.349659313045285 3.220502149235045 6.0098614776469 .0852140927980154
 3.34811449954548 3.525841305496635 6.28087810443167 .0842075839836491 ????14 25
5 72 1858 130 ?101 89 66 6 116 +0 0 101 89 26 56 128 1908 0 1 116 131 132 +R131
 133 134 .004 -.004 1 1 0 0 0 0 141 255 129 106 129 129 116 51 131 1907 0 1 128
 133 135 +-488663291182287e-31 .572964425979825 .474584571522249 116436203534249
e-30 -.939692620785909 .3420201433256685 .638717276898988 0 -.3420201433256685 -
.939692620785909 141 132 98 132 132 128 50 255 133 1905 136 1 131 137 138 +-1301
042606982606e-33 .0105 .015 -116436203534249e-30 .939692620785909 .3420201433256
69 1 123908819712629e-30 0 32 134 1915 0 1 98 86 139 +559704627137005e-31 -.2731
157164593335 .782532559173811 -116436203534249e-30 .939692620785909 .34202014332
5669 423793122774278e-31 -.342020143325669 .939692620785908 .839007818243731 .64
2717276898988 38 98 1916 0 85 114 134 0 +128 137 140 141 142 143 32 86 1914 0 70
 134 144 0 --.1317396163331682 .00769916984716113 .011 .1988994056809645 -.81351
5696565894 .546471625851395 .278238755137148 .581542957519827 .764454696956479 .
00491693032707944 .004 141 139 128 139 139 134 31 144 1913 0 84 86 23 0 --.13173
96163331682 -.00573961633316816 .011 -969178436376503e-29 -1 0 1 -96917843637650
3e-29 0 .004 16 84 1874 145 ?146 147 70 144 0 0 1 31 23 1912 0 147 144 8 0 +-.13
17396163331682 -.00573961633316812 .011 .3236155771181845 .3236155771181835 .889
126490715989 .939692620785908 0 -.3420201433256685 .004 16 147 1871 148 ?149 22
 84 23 0 0 1 81 1 148 2022 34 147 0 0 57 145 150 17 149 0 151 152 153 154 155 14
7 0 0 +16 22 1870 156 ?152 157 147 8 0 0 1 81 1 156 2024 34 22 0 0 145 158 159 1
7 152 0 151 153 149 160 161 22 0 146 +16 157 1793 162 ?163 164 22 165 0 0 1 81 1
 162 2048 34 157 0 0 166 167 168 17 163 0 169 170 171 47 53 157 0 0 +16 164 1792
 172 ?170 173 157 174 0 0 1 38 165 1829 0 157 30 175 0 +176 177 178 179 180 181
 30 255 30 1741 0 11 182 165 0 +.1627921042573935 .034992887288243 -.06262079178
90444 -.323615577118185 -.3236155771181845 .889126490715988 32 175 1828 0 1 165
 174 183 +559704627137005e-31 -.2731157164593335 .782532559173811 -1164362035342
49e-30 .939692620785909 .342020143325669 423793122774278e-31 -.342020143325669 .
939692620785908 .839007818243731 .642717276898988 56 176 1821 0 1 127 184 185 +R
184 186 175 .004 -.004 1 1 0 0 0 0 51 177 1817 0 187 186 188 189 +.1317396163331
68 .2678060255220075 .011 123908819712629e-30 -1 0 .004 1 123908819712629e-30 0
 40 2 178 0 1 2 .0004350600618310115 .3938055908232485 ??.1324256563375876 .0089
1955731449865 .01494072951524666 .133947890298731 .0103363564225949 .01433519506
071486 41 1 179 L?.1324256563375876 .00891955731449865 .01494072951524666 41 1 1
80 L?.133947890298731 .0103363564225949 .01433519506071486 204 8 181 4 2.9327400
5752732 1.00744456565286 1.398434149243296 .258886468207509 2.93091600470056 .49
3888964738956 .985953316405049 .257469669099413 14 187 1769 190 ?191 192 52 6 17
7 +0 0 191 192 26 50 186 1818 193 1 184 177 194 +-1301042606982606e-33 .0105 .01
5 -116436203534249e-30 .939692620785909 .342020143325669 1 123908819712629e-30 0
 51 188 1816 0 192 177 195 196 +.15903333377425 .034992887288243 -.0639888723623
471 -.323615577118185 -.3236155771181845 .889126490715988 .004 .939692620785908
 0 .342020143325669 141 189 165 197 197 177 141 197 198 189 189 177 38 198 1569
 0 199 200 201 0 +177 126 202 203 204 205 16 199 1567 167 ?206 207 208 198 0 0 1
 30 200 1178 0 209 210 198 0 +-1488684088761842e-33 .01398000595903208 .00543876
220799186 1 115721668292443e-30 2249401365661755e-32 32 201 1572 0 207 198 211 0
 -559704627137005e-31 -.2731157164593335 .782532559173811 116305305392159e-30 -.
938636213805407 -.344908767840208 427372383316173e-31 -.344908767840208 .9386362
13805407 .835947594564943 .638717276898988 51 126 1463 0 212 213 214 215 +-48866
3291182287e-31 .572964425979825 .474584571522249 116436203534249e-30 -.939692620
785909 .3420201433256685 .638717276898988 0 -.3420201433256685 -.939692620785909
 40 3 202 0 1 3 .000247275790097741 .36113936585006 ??.131739616333168 .00833301
551009515 .015 .132601608918562 .00912429834071989 .01490601699723976 .133555898
250912 .0106587408598912 .01456386307190342 41 1 203 L?.131739616333168 .0083330
1551009515 .015 41 1 204 L?.133555898250912 .0106587408598912 .01456386307190342
 204 12 205 4 1.5707963267949 .2594730100119125 .207747686976544 .37339278886003
9 1.35359439335282 .258681727181288 .2091271124058145 .372617082143072 1.0994676
63391716 .2571472846621165 .2106547093099935 .3710581542962035 14 212 1445 216 ?
217 218 219 6 126 -0 0 217 218 26 51 213 2304 0 220 221 126 0 --.126645551451681
2 -.000645551451680706 .014 0 0 1 .004 1 0 0 50 214 952 0 222 126 223 0 +-.13555
81405550442 .2678060255220075 .0122039085254073 .939692620785908 116436203534249
e-30 -.342020143325668 -.3420201433256685 0 -.939692620785909 141 215 195 224 22
5 126 56 195 1815 0 191 188 226 227 +R126 127 228 .004 -.004 1 1 0 0 0 0 141 224
 229 230 215 126 141 225 115 215 231 126 141 231 198 225 232 126 141 232 211 231
 230 126 38 211 1577 0 233 201 234 0 +235 126 236 237 238 239 141 230 234 232 22
4 126 38 234 1582 0 240 211 229 0 +7 126 241 242 243 244 16 240 1580 245 ?246 93
 233 234 0 0 1 38 229 1588 0 93 234 247 0 +137 126 248 249 250 251 40 3 241 0 1
 3 .00153289282675404 .2953524696056415 ??-.106376286311451 -.00573961633316816
 .015 -.0993943601784893 -.00768466715769173 .01449525067627776 -.08103865538650
85 -.00949838681631183 .01236808057330254 41 1 242 L?-.106376286311451 -.0057396
1633316816 .015 41 1 243 L?-.0810386553865085 -.00949838681631183 .0123680805733
0254 204 12 244 4 1.570796326794895 .106376286311451 6.11585884492334 .386616737
1581905 1.062988685580162 .0993943601784893 6.12693471163684 .3882718526290055 .
349065850398832 .0810386553865085 6.15596521634858 .3892486565848875 16 93 1586
 252 ?92 253 240 229 0 0 1 32 247 1591 0 253 229 254 0 -559704627137005e-31 -.27
31157164593335 .782532559173811 116305305392159e-30 -.938636213805407 -.34490876
7840208 427372383316173e-31 -.344908767840208 .938636213805407 .835947594564943
 .638717276898988 51 137 1904 0 89 133 255 256 +-.1317396163331682 -197931473211
911e-31 .011 -123908819712629e-30 1 0 .004 -1 -123908819712629e-30 0 40 3 248 0
 1 3 .000593190247155856 .397986905890976 ??-.1335558982509114 .0106587408598914
6 .0145638630719035 -.1321575213988694 .00865114307112986 .01497810952037036 -.1
317396163331686 .00833301551009494 .015 41 1 249 L?-.1335558982509114 .010658740
85989146 .0145638630719035 41 1 250 L?-.1317396163331686 .00833301551009494 .015
 204 12 251 4 1.099467663391854 .0106587408598915 6.07253059786959 .371058154296
2035 1.466129055887658 .00865114307112988 6.074768907315 .3730863597534855 1.570
7963267948 .00833301551009496 6.07543762020304 .3733927888600395 14 89 1856 257
 ?72 258 81 6 137 +0 0 72 258 26 53 255 255 1903 0 258 137 20 0 +-.1317396163331
682 -.00573961633316816 .011 .004 0 216840434497101e-30 1 0 -1 216840434497101e-
30 141 256 98 259 259 137 141 259 229 256 256 137 14 258 1854 260 ?89 261 151 6
 255 +0 0 89 261 26 51 20 1902 0 261 255 7 0 +-.1031454863835446 .02285451361645
535 .0895617263655416 .323615577118184 .323615577118185 .889126490715988 .004 0
 -.939692620785908 .342020143325669 14 261 1852 262 ?258 19 263 6 20 +0 0 258 19
 26 81 1 262 2344 264 261 265 0 266 260 267 14 19 1850 266 ?261 191 268 6 7 +0 0
 261 191 26 15 263 1853 0 269 261 0 13 26 145 0 0 0 0 0 0 10 17 14 17 1344 270 ?
271 0 272 6 273 +274 274 271 0 26 81 1 270 2328 264 17 275 0 0 276 277 14 271 12
94 276 ?274 17 278 6 127 +218 218 274 17 26 15 272 2247 0 279 17 280 50 273 3 0
 274 281 282 0 +0 -3469446951953615e-33 .015 0 0 1 1 0 0 14 274 1 283 ?284 271 2
85 6 273 +17 17 284 271 26 81 1 283 2330 264 274 286 0 276 287 288 14 284 493 28
7 ?289 274 290 6 281 -0 0 289 274 26 15 285 2239 0 291 274 292 17 291 0 285 291
 291 0 293 294 0 0 +15 292 1343 0 295 274 0 17 295 0 292 296 297 298 299 300 0 9
0 -17 296 0 292 297 295 160 90 301 0 302 +17 297 0 292 295 296 303 302 304 0 299
 +18 298 1550 305 92 303 306 307 ?1 17 299 0 219 246 92 303 295 300 0 308 +16 30
0 1551 309 ?299 310 311 312 310 310 1 17 90 0 81 87 146 298 296 301 0 0 -17 146
 0 81 90 82 160 153 84 0 0 +16 301 1686 166 ?296 80 304 313 0 0 1 81 1 166 2047
 34 301 0 0 314 162 315 16 80 1692 316 ?79 317 301 318 0 0 1 16 304 1683 319 ?29
7 301 103 320 0 0 1 30 313 1688 0 301 320 318 0 +-.1317396163331682 -.0085404464
8600699 .015 123908819712629e-30 -1 0 30 320 1685 0 304 321 313 0 -7111890854461
92e-33 -.00573961633316814 .015 -1 -123908819712629e-30 0 30 318 1694 0 80 313 3
22 0 +-.1384140973583692 .01061488038921854 .004357231697334135 -.32361557711818
45 .323615577118185 -.889126490715989 30 322 1698 0 317 318 323 0 --.13549838681
63118 .0100783658484711 .01236808057330266 123908819712629e-30 -1 90680457835579
3e-47 16 317 1696 314 ?324 325 80 322 0 0 1 30 323 1701 0 325 322 326 0 --.13493
4091399337 -.00517532091619346 .01391846948934226 -.3236155771181845 -.323615577
118185 -.889126490715989 16 325 1699 327 ?328 329 317 323 0 0 1 30 326 1707 0 32
9 323 330 0 -.1219730885846914 .000268140932164868 .0392013950287192 .3236155771
18185 -.3236155771181845 -.889126490715988 16 329 1705 331 ?332 333 325 326 0 0
 1 30 330 1710 0 333 326 334 0 --55778957639362e-32 -.00949838681631178 .0123680
8057330268 1 123908819712629e-30 0 16 333 1708 335 ?336 337 329 330 0 0 1 30 334
 1716 0 337 330 338 0 --.1366348744301864 -.01439364491333016 -.0010815305106576
96 .323615577118184 .323615577118185 .889126490715989 16 337 1714 339 ?340 341 3
33 334 0 0 1 30 338 1719 0 341 334 342 0 --55778957639362e-32 -.0094983868163117
8 .01236808057330268 1 123908819712629e-30 0 16 341 1717 343 ?344 345 337 338 0
 0 1 30 342 1725 0 345 338 346 0 -.131739616333168 1285425341728384e-32 .015 123
908819712629e-30 -1 0 16 345 1723 347 ?348 349 341 342 0 0 1 30 346 1728 0 349 3
42 350 0 -711189085446192e-33 -.00573961633316814 .015 -1 -123908819712629e-30 0
 16 349 1726 351 ?352 353 345 346 0 0 1 30 350 1734 0 353 346 182 0 -.1069042568
666882 .02285451361645525 .0909298069388442 -.323615577118185 .3236155771181845
 .889126490715988 16 353 1732 354 ?355 29 349 350 0 0 1 30 182 1738 0 29 350 30
 0 +.1354983868163118 .2678060255220075 .01236808057330266 123908819712629e-30 -
1 -741419318684845e-47 16 29 1736 356 ?39 11 353 182 0 0 1 81 1 356 2050 34 29 0
 0 167 347 357 17 39 0 38 355 28 32 54 29 0 358 +15 38 1333 0 40 289 0 17 355 0
 38 40 39 359 358 353 0 360 +17 54 0 52 48 361 12 39 29 0 0 -17 358 0 362 363 36
4 32 355 353 0 365 -15 362 1762 0 364 217 0 17 363 0 362 366 358 367 365 121 0 3
68 -17 364 0 362 358 366 359 369 370 0 0 -17 365 0 371 372 368 32 363 121 0 361
 +15 371 1766 0 368 373 0 17 372 0 371 368 365 44 361 173 0 374 -17 368 0 371 36
5 372 367 375 376 0 0 +16 121 1781 158 ?365 377 376 113 0 0 1 17 361 0 52 54 374
 32 372 173 0 0 +15 52 1770 0 54 187 0 17 374 0 52 361 378 44 348 345 0 0 -16 17
3 1788 379 ?361 55 164 380 0 0 1 81 1 379 2026 34 173 0 0 158 381 382 16 55 1786
 383 ?48 376 173 384 0 0 1 31 380 1825 0 173 228 384 0 -.131739616333168 -.00573
961633316815 .011 -1821253286733835e-30 -1 563785129692462e-29 0 -56378512969246
2e-29 -1 .004 32 228 1826 0 1 174 380 385 +559704627137005e-31 -.273115716459333
5 .782532559173811 -116436203534249e-30 .939692620785909 .342020143325669 423793
122774278e-31 -.342020143325669 .939692620785908 .839007818243731 .6427172768989
88 32 384 1824 0 55 380 122 0 +.131739616333168 .00769916984716119 .011 -.198899
4056809645 -.813515696565894 .546471625851395 -.278238755137149 .581542957519827
 .764454696956479 .00491693032707944 .004 31 122 1823 0 376 384 113 0 +.13173961
6333168 -.00573961633316813 .011 1 -738421665810668e-29 0 738421665810668e-29 1
 0 .004 16 376 1782 381 ?368 121 55 122 0 0 1 81 1 381 2027 34 376 0 0 379 339 3
86 80 7 CCCCCDI12 legal_owners0 16 1 lCZ1 34 387 388 9000 0 0 0 0 3 6 0 0 0 FFTF
TFTTFFFFFFFF1 81 1 339 2028 34 337 0 0 381 389 390 82 255 3 386 21 5 1 81 1 389
 2029 34 391 0 0 339 327 392 82 3 390 21 6 1 16 391 1649 389 ?393 394 395 396 0
 0 1 81 1 327 2030 34 325 0 0 389 331 397 82 3 392 21 7 1 81 1 331 2031 34 329 0
 0 327 398 399 82 3 397 21 8 1 81 1 398 2032 34 370 0 0 331 354 400 82 3 399 21
 9 1 16 370 1634 398 ?369 401 253 254 0 0 1 81 1 354 2033 34 353 0 0 398 83 402
 82 3 400 21 10 1 81 1 83 2034 34 70 0 0 354 104 403 82 3 402 21 11 1 82 3 403 2
1 12 1 17 369 0 290 404 360 405 364 370 0 406 +16 401 1639 407 ?408 395 370 409
 0 0 1 16 253 1589 410 ?94 370 93 247 0 0 1 32 254 1636 0 370 247 409 0 -.135419
203776702 -.00941920377670216 .000890416585981532 0 -.1908089953765445 .98162718
3447664 -.553200398063161 .817742767704061 .1589530919814485 .00493192726107099
 .004 32 409 1641 0 401 254 411 0 -.134044999285974 .01000455279996704 .00466601
239397027 0 -.1908089953765445 .981627183447664 -.909391614322681 -.408298964366
1545 -.0793652789141034 .00428018293208168 .004 32 411 1646 0 395 409 396 0 --.1
34044999285974 .010004552799967 .00466601239397026 0 -.1908089953765445 .9816271
83447664 .909391614322681 -.408298964366155 -.0793652789141034 .0042801829320816
75 .004 16 395 1644 107 ?412 391 401 411 0 0 1 32 396 1651 0 391 411 413 0 --.13
54192037767022 -.00941920377670213 .000890416585981518 0 -.1908089953765445 .981
627183447664 .55320039806316 .817742767704061 .158953091981449 .0049319272610709
9 .004 38 413 1656 0 394 396 414 0 +115 281 415 416 417 418 16 394 1654 419 ?420
 421 391 413 0 0 1 38 414 1661 0 421 413 422 0 +195 281 423 424 425 426 50 281 5
12 0 284 223 273 427 +.1418060255220076 -3469446951953615e-33 .00272132432792806
 0 -.1908089953765445 .981627183447664 0 -.981627183447664 -.1908089953765445 40
 3 415 0 1 3 .000718986478834595 .168229817479943 ??-.1017755587118906 .01398000
595903206 .00543876220799186 -.0937755587118906 .01363382757095946 .005371471945
90151 -.0867820700192282 .0125362282811865 .0051581202566461 41 1 416 L?-.101775
5587118906 .01398000595903206 .00543876220799186 41 1 417 L?-.0867820700192282 .
0125362282811865 .0051581202566461 204 12 418 4 3.30061401149619 0 -.01424166546
603934 -.2435815842338985 3.28850718798534 .476835583497573 -.0138890077626771 -
.2355815842338985 3.277883501175505 1 -.0127708650418144 -.228588095541236 50 22
3 946 0 289 214 281 0 +.1355581405550442 .2678060255220075 .0122039085254073 .93
9692620785908 116436203534249e-30 .342020143325669 .342020143325669 0 -.93969262
0785908 141 427 413 428 428 281 141 428 414 427 427 281 14 289 922 429 ?222 284
 38 6 223 +0 0 222 284 26 81 1 429 2332 264 289 430 0 287 431 432 14 222 819 431
 ?433 289 434 6 214 -0 0 433 289 26 81 1 431 2333 264 222 435 0 429 436 437 14 4
33 1111 436 ?218 222 438 6 282 +0 0 218 222 26 15 434 814 0 439 222 0 17 439 0 4
34 328 79 440 441 442 0 443 -17 328 0 434 324 439 444 443 325 0 155 +17 79 0 434
 439 324 445 68 80 0 441 +18 440 1626 446 393 445 447 448 ?1 17 441 0 290 412 39
3 445 439 442 0 77 +16 442 1627 449 ?441 209 450 210 0 0 1 17 443 0 263 269 155
 440 328 325 0 0 -17 269 0 263 451 443 447 393 391 0 0 -17 155 0 263 443 451 444
 149 147 0 153 -17 451 0 263 155 269 154 340 337 0 161 -18 444 1695 452 328 367
 78 453 ?1 17 153 0 151 149 152 444 146 84 0 82 -15 151 1855 0 149 258 0 17 82 0
 81 146 69 444 324 317 0 0 -17 324 0 434 79 328 78 82 317 0 69 +18 78 1691 64 32
4 444 160 454 ?1 81 1 64 2001 34 78 0 0 61 455 456 18 160 1682 457 296 78 74 458
 ?1 29 454 1693 0 78 458 453 -.1354983868163118 .00769916984716113 .012368080573
30266 29 458 1684 0 160 459 454 -.1317396163331682 -.00573961633316816 .015 29 4
53 1697 0 444 454 460 -.1354983868163118 -.00573961633316812 .01236808057330266
 29 460 1706 0 367 453 461 .131739616333168 -.00949838681631176 .012368080573302
68 18 367 1704 462 332 154 444 460 ?1 29 461 1715 0 154 460 46 -.131739616333168
2 -.0094983868163118 .01236808057330266 18 154 1713 463 344 44 367 461 ?1 29 46
 1724 0 44 461 45 .131739616333168 -.00573961633316813 .015 18 44 1722 464 352 3
2 154 46 ?1 81 1 464 1995 34 44 0 0 462 465 466 17 352 0 280 348 467 44 468 349
 0 375 +15 280 1348 0 467 17 0 17 348 0 280 467 352 59 374 345 0 469 +17 467 0 2
80 352 348 49 469 310 0 468 -17 468 0 470 471 375 49 352 349 0 0 -17 375 0 470 4
68 472 44 368 376 0 372 -15 470 1764 0 471 473 0 17 472 0 470 375 471 367 336 33
3 0 363 -17 471 0 470 472 468 474 58 233 0 0 -17 336 0 438 475 332 474 472 333 0
 476 +15 438 1313 0 475 433 0 17 475 0 438 344 336 477 476 377 0 478 -17 332 0 4
38 336 406 367 366 329 0 472 +18 474 1562 479 336 480 477 481 ?1 17 476 0 219 58
 246 474 475 377 0 471 +15 219 1448 0 482 212 0 17 58 0 219 469 476 49 471 233 0
 467 +17 246 0 219 476 299 477 308 240 0 475 +16 377 1559 483 ?476 311 121 484 0
 0 1 81 1 483 2067 34 377 0 0 485 486 487 16 311 1543 486 ?488 300 377 489 0 0 1
 31 484 1474 0 377 490 489 0 +-354369331467768e-32 .207190335736178 .60771545283
6736 116436203534249e-30 -.939692620785908 .3420201433256685 0 -.342020143325668
5 -.939692620785908 .638717276898988 31 490 2310 0 294 491 484 0 +-.126645551451
6812 -.000645551451680706 .015 0 0 -1 1 0 0 .004 32 489 1469 0 311 484 312 0 +-1
28866109358509e-30 1.218598694999712 .2395929153767925 0 -.1908089953765445 .981
627183447664 1358383636880166e-31 -.981627183447664 -.1908089953765445 1.2401360
36564934 .638717276898988 32 312 1468 0 300 489 492 0 +-20532577677132e-29 1.835
66265856693 .015 0 0 1 123908819712629e-30 -1 0 1.867484384657445 .6387172768989
88 30 492 255 0 493 312 494 0 +0 -.014 0 -1 -123908819712629e-30 0 16 493 1619 4
95 ?404 450 310 492 0 0 1 30 494 628 0 450 492 210 0 +.139022942134002 -.0001897
306561631765 .00268444442433016 -.069281917698654 .979268452128563 .190350504453
565 16 450 1611 485 ?40 442 493 494 0 0 1 30 210 634 0 442 494 200 0 +-.13766160
8792749 .0190520980662756 .00642467703977283 .0692819176986536 .979268452128562
 .190350504453565 81 1 485 2066 34 450 0 0 449 483 496 17 40 0 38 28 355 497 360
 450 0 41 +18 497 1614 498 408 405 359 499 ?1 17 360 0 290 369 408 359 40 450 0
 364 -17 41 0 500 501 42 497 28 11 0 0 -15 500 1768 0 42 192 0 17 501 0 500 502
 41 503 408 401 0 0 -17 42 0 500 41 56 12 48 55 0 54 -17 56 0 500 42 502 47 170
 164 0 163 -17 502 0 500 56 501 504 505 506 0 170 -17 170 0 169 507 163 504 56 1
64 0 0 +15 169 1772 0 170 191 0 17 507 0 169 508 170 509 510 511 0 0 -18 504 166
4 36 510 74 445 512 ?1 81 1 36 2007 34 504 0 0 31 498 513 17 510 0 278 505 514 5
04 507 511 0 502 +18 74 1673 455 515 160 504 459 ?1 18 445 1630 516 79 504 440 5
17 ?1 29 512 1666 0 504 517 459 .1317852531530734 .01150357715021012 .0122426944
4111712 29 517 1633 0 445 448 512 -.1382688094479592 .01046959247880872 .0047564
0695050483 29 459 1675 0 74 512 458 -.1317852531530734 .0115035771502101 .012242
69444111712 29 448 1629 0 440 518 517 -.1397138256255358 -.00995505514239219 .00
0786257631866833 29 518 1625 0 447 519 448 -.1362412295168564 -.014 0 18 447 162
2 465 340 440 405 518 ?1 29 519 1621 0 405 499 518 .1362412295168564 -.014 0 18
 405 1618 520 369 447 497 519 ?1 29 499 1617 0 497 521 519 .1382688094479594 .01
04695924788088 .00475640695050485 29 521 1613 0 359 522 499 .139713825625536 -.0
0995505514239224 .000786257631866825 18 359 1610 63 355 497 503 521 ?1 29 522 16
09 0 503 523 521 .1342616819618954 .0139800059590321 .00543876220799187 18 503 1
606 524 505 359 509 522 ?1 29 523 1605 0 509 525 522 .1017755587118908 .01398000
59590321 .00543876220799187 18 509 1602 526 527 503 528 523 ?1 29 525 1601 0 528
 529 523 -.1017755587118906 .01398000595903206 .00543876220799186 18 528 1598 53
0 102 509 531 525 ?1 29 529 1597 0 531 532 525 -.1342616819618954 .0139800059590
3206 .00543876220799186 18 531 1594 50 412 528 91 529 ?1 29 532 1587 0 91 533 52
9 -.132446526601755 .0089428927128953 .01493703922664816 18 91 1585 534 88 531 4
80 532 ?1 29 533 1568 0 480 481 532 .132446526601755 .00894289271289513 .0149370
392266482 18 480 1566 535 206 91 474 533 ?1 29 481 1565 0 474 536 533 .081038655
3865086 -.00949838681631182 .01236808057330252 29 536 1561 0 477 537 481 -.08103
86553865085 -.0094983868163118 .01236808057330252 18 477 1558 538 246 474 303 53
6 ?1 29 537 1557 0 303 307 536 -.106376286311451 -.00573961633316823 .015 18 303
 1554 539 297 477 298 537 ?1 29 307 1553 0 298 540 537 -.1317396163331686 .00833
301551009556 .015 29 540 1549 0 306 541 307 .0867820700192287 .01253622828118606
 .00515812025664603 18 306 1546 542 508 298 543 540 ?1 29 541 1545 0 543 544 540
 -.0867820700192283 .01253622828118604 .00515812025664602 18 543 1542 545 420 30
6 59 541 ?1 29 544 1541 0 59 60 541 .131739616333168 .00833301551009515 .015 18
 59 1538 546 348 543 49 544 ?1 29 60 1537 0 49 0 544 .106376286311451 -.00573961
633316821 .015 81 1 546 2013 34 59 0 0 535 545 547 81 1 535 2012 34 480 0 0 305
 546 548 81 1 545 2014 34 543 0 0 546 530 549 82 3 547 21 23 0 81 1 530 2015 34
 528 0 0 545 542 550 82 3 549 21 24 0 81 1 542 2016 34 306 0 0 530 526 551 82 3
 550 21 25 0 81 1 526 2017 34 509 0 0 542 538 552 82 3 551 21 26 0 81 1 538 2018
 34 477 0 0 526 539 553 82 3 552 21 27 0 81 1 539 2019 34 303 0 0 538 479 554 82
 3 553 21 28 0 81 1 479 2020 34 474 0 0 539 57 555 82 3 554 21 29 0 81 1 57 2021
 34 49 0 0 479 148 556 82 3 555 21 30 0 82 3 556 21 31 0 81 1 305 2011 34 298 0
 0 534 535 557 82 3 548 21 22 0 81 1 534 2010 34 91 0 0 524 305 558 82 3 557 21
 21 0 81 1 524 2009 34 503 0 0 498 534 559 82 3 558 21 20 0 81 1 498 2008 34 497
 0 0 36 524 560 82 3 559 21 19 0 82 3 560 21 18 0 17 420 0 290 488 561 543 100 3
94 0 482 +15 290 627 0 488 284 0 17 488 0 290 527 420 306 482 311 0 0 +17 561 0
 290 420 412 528 562 208 0 100 +17 100 0 95 99 96 528 420 394 0 0 -17 482 0 219
 94 563 543 488 311 0 96 -17 94 0 219 92 482 91 96 253 0 0 +17 563 0 219 482 206
 306 171 207 0 488 +17 96 0 95 100 88 543 94 253 0 0 -17 206 0 219 563 469 480 3
78 199 0 53 +17 171 0 169 163 508 480 563 207 0 0 -16 207 1570 564 ?563 233 199
 201 0 0 1 81 1 564 2055 34 207 0 0 565 566 567 16 233 1575 568 ?58 240 207 211
 0 0 1 81 1 568 2061 34 233 0 0 319 335 569 81 1 319 2060 34 304 0 0 343 568 570
 81 1 335 2062 34 333 0 0 568 351 571 82 3 569 21 39 1 81 1 351 2063 34 349 0 0
 335 495 572 82 3 571 21 40 1 81 1 495 2064 34 493 0 0 351 449 573 82 3 572 21 4
1 1 81 1 449 2065 34 442 0 0 495 485 574 82 3 573 21 42 1 82 3 574 21 43 1 81 1
 343 2059 34 341 0 0 245 319 575 82 3 570 21 38 1 81 1 245 2058 34 240 0 0 576 3
43 577 82 3 575 21 37 1 81 1 576 2057 34 511 0 0 566 245 578 82 3 577 21 36 1 16
 511 1668 576 ?510 579 506 580 0 0 1 81 1 566 2056 34 421 0 0 564 576 581 82 3 5
78 21 35 1 16 421 1659 566 ?527 506 394 414 0 0 1 82 3 581 21 34 1 17 527 0 290
 582 488 509 508 421 0 514 +16 506 1665 583 ?505 511 421 422 0 0 1 81 1 583 2043
 34 506 0 0 27 97 584 17 505 0 278 514 510 503 502 506 0 582 +30 422 1667 0 506
 414 580 0 -.117085297959514 -.003196378043349235 .0526304894024162 -.3236155771
18185 -.323615577118185 .889126490715988 32 580 1670 0 511 422 585 0 -5550471789
95636e-31 -.26935694597619 .783900639747114 -116436203534249e-30 .93969262078590
9 .342020143325669 423793122774278e-31 -.342020143325669 .939692620785908 .83900
7818243731 .642717276898988 30 585 1676 0 579 580 321 0 --.1312340542637884 .010
9523782609251 .01375710094305614 -.3236155771181845 .3236155771181845 -.88912649
0715989 16 579 1674 586 ?515 103 511 585 0 0 1 32 321 1679 0 103 585 320 0 -5550
47178995636e-31 -.26935694597619 .783900639747114 -116436203534249e-30 .93969262
0785909 .342020143325669 423793122774278e-31 -.342020143325669 .939692620785908
 .839007818243731 .642717276898988 16 103 1677 565 ?102 304 579 321 0 0 1 81 1 5
65 2054 34 103 0 0 419 564 587 17 102 0 588 562 515 528 99 103 0 561 +15 588 129
2 0 515 218 0 17 562 0 588 515 102 531 561 208 0 73 -17 515 0 588 102 562 74 73
 579 0 99 +17 73 0 66 77 67 531 515 579 0 0 -17 77 0 66 68 73 445 412 395 0 0 -1
7 412 0 290 561 441 531 77 395 0 562 +16 208 1595 589 ?561 199 209 200 209 209 1
 81 1 589 2071 34 208 0 0 590 591 592 16 209 1603 591 ?582 208 442 200 208 208 1
 81 1 591 2072 34 209 0 0 589 593 594 17 582 0 290 408 527 503 514 209 0 501 +17
 408 0 290 360 582 497 501 401 0 40 +17 514 0 278 510 505 509 582 209 0 507 -15
 278 1298 0 514 271 0 81 1 593 2073 34 258 0 260 591 595 596 82 3 594 21 50 1 81
 1 260 2345 264 258 593 0 262 257 597 81 1 595 2074 34 373 0 598 593 265 599 82
 3 596 21 0 2 14 373 1765 598 ?192 473 371 6 226 +0 0 192 473 26 81 1 598 2339 2
64 373 595 0 600 601 602 81 1 265 2075 34 261 0 262 595 603 604 82 3 599 21 1 2
 81 1 603 2076 34 217 0 605 265 606 607 82 3 604 21 2 2 14 217 1761 605 ?473 212
 362 6 124 +0 0 473 212 26 81 1 605 2337 264 217 603 0 216 600 608 81 1 606 2077
 34 72 0 130 603 609 610 82 3 607 21 3 2 81 1 130 2347 264 72 606 0 257 611 612
 81 1 609 2078 34 192 0 601 606 613 614 82 3 610 21 4 2 14 192 1767 601 ?187 373
 500 6 188 +0 0 187 373 26 81 1 601 2340 264 192 609 0 598 190 615 81 1 613 2079
 34 89 0 257 609 616 617 82 3 614 21 5 2 81 1 257 2346 264 89 613 0 260 130 618
 81 1 616 2080 34 187 0 190 613 619 620 82 3 617 21 6 2 81 1 190 2341 264 187 61
6 0 601 621 622 81 1 619 2081 34 101 0 611 616 623 624 82 3 620 21 7 2 14 101 18
60 611 ?220 72 95 6 115 +0 0 220 72 26 81 1 611 2348 264 101 619 0 130 625 626 8
1 1 623 2082 34 191 0 621 619 627 628 82 3 624 21 8 2 14 191 1771 621 ?19 187 16
9 6 195 +0 0 19 187 26 81 1 621 2342 264 191 623 0 190 266 629 81 1 627 2083 34
 19 0 266 623 630 631 82 3 628 21 9 2 81 1 266 2343 264 19 627 0 621 262 632 81
 1 630 2084 34 473 0 600 627 633 634 82 3 631 21 10 2 14 473 1763 600 ?373 217 4
70 6 235 +0 0 373 217 26 81 1 600 2338 264 473 630 0 605 598 635 81 1 633 2085 3
4 212 0 216 630 636 637 82 3 634 21 11 2 81 1 216 2336 264 212 633 0 638 605 639
 81 1 636 2086 34 433 0 436 633 640 641 82 3 637 21 12 2 81 1 436 2334 264 433 6
36 0 431 638 642 81 1 640 2087 34 284 0 287 636 435 643 82 3 641 21 13 2 81 1 28
7 2331 264 284 640 0 283 429 644 81 1 435 2088 34 222 0 431 640 430 645 82 3 643
 21 14 2 81 1 430 2089 34 289 0 429 435 646 647 82 3 645 21 15 2 81 1 646 2090 3
4 218 0 638 430 648 649 82 3 647 21 16 2 14 218 1195 638 ?212 433 588 6 127 +271
 271 212 433 26 81 1 638 2335 264 218 646 0 436 216 650 81 1 648 2091 34 271 0 2
76 646 651 652 82 3 649 21 17 2 81 1 276 2329 264 271 648 0 270 283 653 81 1 651
 2315 34 294 0 0 648 654 655 82 3 652 21 18 2 16 294 2279 651 ?291 656 0 490 0 0
 1 81 1 654 2316 34 111 0 0 651 109 657 82 3 655 25 0 1 16 111 2260 654 ?658 105
 656 659 0 0 1 81 1 109 2317 34 105 0 0 654 660 661 82 3 657 25 1 1 81 1 660 231
8 34 656 0 0 109 662 663 82 3 661 25 2 1 16 656 2284 660 ?664 111 294 491 0 0 1
 81 1 662 2319 34 665 0 666 660 667 668 82 3 663 25 3 1 14 665 2265 666 ?669 670
 671 6 672 -0 0 669 670 26 81 1 666 2351 264 665 662 0 673 674 675 81 1 667 2320
 34 669 0 674 662 676 677 82 3 668 25 0 2 14 669 2270 674 ?0 665 678 6 679 +0 0
 0 665 26 81 1 674 2352 264 669 667 0 666 0 680 81 1 676 2321 34 220 0 625 667 6
81 682 82 3 677 25 1 2 14 220 2287 625 ?670 101 683 6 213 +0 0 670 101 26 81 1 6
25 2349 264 220 676 0 611 673 684 81 1 681 2322 34 670 0 673 676 286 685 82 3 68
2 25 2 2 14 670 2292 673 ?665 220 686 6 221 +0 0 665 220 26 81 1 673 2350 264 67
0 681 0 625 666 687 81 1 286 2323 34 274 0 283 681 275 688 82 3 685 25 3 2 81 1
 275 2324 34 17 0 270 286 0 689 82 3 688 25 4 2 82 3 689 25 5 2 80 1 264 0 690 8
001 0 0 0 0 3 5 0 0 0 FFFFTFTFFFFFFFFF2 83 255 3 687 .2941176470588235 .29411764
70588235 .2941176470588235 79 255 15 690 SDL/TYSA_COLOUR15 686 2295 0 691 670 0
 50 221 2306 0 670 672 213 0 +0 -.01143303327262402 .014 0 0 1 1 0 0 51 672 2307
 0 665 679 221 0 +.1266455514516812 -.000645551451680675 .014 0 0 1 .004 1 0 0 5
0 679 2309 0 669 0 672 0 +0 -.01143303327262402 .014 0 0 1 1 0 0 17 691 0 686 69
1 691 0 664 656 0 0 -17 664 0 683 664 664 0 691 656 0 0 +15 683 2290 0 664 220 6
92 15 692 2291 0 293 220 0 17 293 0 692 293 293 0 291 294 0 0 -83 3 684 .2941176
470588235 .2941176470588235 .2941176470588235 83 3 680 .2941176470588235 .294117
6470588235 .2941176470588235 15 678 2273 0 110 669 0 17 110 0 678 110 110 0 693
 105 0 0 +17 693 0 671 693 693 0 110 105 0 0 -15 671 2268 0 693 665 694 15 694 2
269 0 658 665 0 17 658 0 694 658 658 0 279 111 0 0 +17 279 0 272 279 279 0 658 1
11 0 0 -83 3 675 .2941176470588235 .2941176470588235 .2941176470588235 31 491 23
11 0 656 659 490 0 +-.1266455514516812 -.000645551451680706 .014 0 0 -1 1 0 0 .0
04 31 659 2312 0 111 112 491 0 +.1266455514516812 -.000645551451680675 .015 0 0
 1 1 0 0 .004 31 112 2313 0 105 0 659 0 +.1266455514516812 -.000645551451680675
 .014 0 0 1 1 0 0 .004 83 3 653 .2941176470588235 .2941176470588235 .29411764705
88235 83 3 650 .2941176470588235 .2941176470588235 .2941176470588235 50 127 1207
 695 218 282 176 696 +-1301042606982606e-33 .0105 .015 -116436203534249e-30 .939
692620785909 .342020143325669 1 123908819712629e-30 0 81 2 695 1208 697 127 0 0
 698 193 699 700 50 282 1123 698 433 273 127 0 -0 -.014 0 -116436203534249e-30 .
939692620785908 -.3420201433256685 -1 -123908819712629e-30 0 141 696 195 701 701
 127 141 701 115 696 696 127 81 2 698 1124 697 282 0 0 0 695 702 703 80 2 697 70
4 705 8044 0 0 0 0 3 5 0 0 0 FFFFTFFFTTFFFFFF3 2 84 255 6 702 BACAAB83 4 703 -16
9517249113684e-33 .0159626665871387 .00545955351399304 .015 79 17 705 SDL/TYSA_B
LEND_ID81 2 193 1819 697 186 0 0 695 136 706 707 84 6 699 BACAAB83 4 700 1695172
49113684e-33 .0102333154005708 .00961617096809118 .0035 81 2 136 1906 697 133 0
 0 193 0 708 709 84 6 706 BACAAB83 4 707 169517249113684e-33 .0102333154005708 .
00961617096809118 .0035 84 6 708 BACAAB83 4 709 169517249113684e-33 .01023331540
05708 .00961617096809118 .0035 83 3 644 .2941176470588235 .2941176470588235 .294
1176470588235 83 3 642 .2941176470588235 .2941176470588235 .2941176470588235 83
 3 639 .2941176470588235 .2941176470588235 .2941176470588235 83 3 635 .294117647
0588235 .2941176470588235 .2941176470588235 51 235 1813 0 473 226 124 710 +71118
9085446192e-33 -.00573961633316814 .011 -1 -123908819712629e-30 0 .004 123908819
712629e-30 -1 0 53 226 1814 0 373 195 235 0 +.131739616333168 -.0057396163331681
3 .011 .004 0 -216840434497101e-30 1 0 -1 -216840434497101e-30 51 124 1812 0 217
 235 115 0 +.1031454863835446 .0228545136164553 .0895617263655416 -.323615577118
185 .3236155771181845 .889126490715988 .004 .939692620785908 0 .342020143325669
 141 710 211 710 710 235 83 3 632 .2941176470588235 .2941176470588235 .294117647
0588235 83 3 629 .2941176470588235 .2941176470588235 .2941176470588235 83 3 626
 .2941176470588235 .2941176470588235 .2941176470588235 83 3 622 .294117647058823
5 .2941176470588235 .2941176470588235 83 3 618 .2941176470588235 .29411764705882
35 .2941176470588235 83 3 615 .2941176470588235 .2941176470588235 .2941176470588
235 83 3 612 .2941176470588235 .2941176470588235 .2941176470588235 83 3 608 .294
1176470588235 .2941176470588235 .2941176470588235 83 3 602 .2941176470588235 .29
41176470588235 .2941176470588235 83 3 597 .2941176470588235 .2941176470588235 .2
941176470588235 81 1 590 2070 34 310 0 0 309 589 711 82 3 592 21 49 1 16 310 153
5 590 ?469 493 300 312 300 300 1 81 1 309 2069 34 300 0 0 486 590 712 82 3 711 2
1 48 1 81 1 486 2068 34 311 0 0 483 309 713 82 3 712 21 47 1 82 3 713 21 46 1 17
 469 0 219 206 58 59 467 310 0 378 +17 378 0 52 374 53 59 206 199 0 0 -17 53 0 5
2 378 48 480 163 157 0 171 -81 1 419 2053 34 394 0 0 410 565 714 82 3 587 21 32
 1 81 1 410 2052 34 253 0 0 347 419 715 82 3 714 21 31 1 81 1 347 2051 34 345 0
 0 356 410 716 82 3 715 21 30 1 82 3 716 21 29 1 81 1 586 2038 34 579 0 0 316 38
3 717 81 1 316 2037 34 80 0 0 107 586 718 81 1 383 2039 34 55 0 0 586 172 719 82
 3 717 21 16 1 81 1 172 2040 34 164 0 0 383 407 720 82 3 719 21 17 1 81 1 407 20
41 34 401 0 0 172 27 721 82 3 720 21 18 1 81 1 27 2042 34 11 0 0 407 583 722 82
 3 721 21 19 1 82 3 722 21 20 1 81 1 107 2036 34 395 0 0 104 316 723 82 3 718 21
 15 1 82 3 723 21 14 1 81 1 97 2044 34 85 0 0 583 252 724 82 3 584 21 21 1 81 1
 252 2045 34 93 0 0 97 314 725 82 3 724 21 22 1 81 1 314 2046 34 317 0 0 252 166
 726 82 3 725 21 23 1 82 3 726 21 24 1 17 508 0 169 171 507 306 527 421 0 563 -8
2 3 567 21 33 1 17 92 0 219 299 94 298 87 93 0 295 +81 1 50 2004 34 531 0 0 516
 35 727 81 1 516 2003 34 445 0 0 455 50 728 82 3 727 21 14 0 81 1 455 2002 34 74
 0 0 64 516 729 82 3 728 21 13 0 82 3 729 21 12 0 81 1 63 1999 34 359 0 0 520 61
 730 81 1 520 1998 34 405 0 0 446 63 731 82 3 730 21 9 0 81 1 446 1997 34 440 0
 0 465 520 732 82 3 731 21 8 0 81 1 465 1996 34 447 0 0 464 446 733 82 3 732 21
 7 0 82 3 733 21 6 0 17 340 0 438 406 344 447 451 337 0 404 +17 406 0 438 332 34
0 405 404 493 0 366 -17 344 0 438 340 475 154 478 341 0 451 +17 404 0 290 393 36
9 447 406 493 0 269 +17 393 0 290 441 404 440 269 391 0 439 +17 478 0 268 308 16
1 477 344 341 0 0 -15 268 1851 0 308 19 0 17 308 0 268 302 478 303 246 240 0 0 -
17 161 0 268 478 302 154 152 22 0 149 -17 302 0 268 161 308 160 297 304 0 152 -1
7 366 0 362 364 363 405 332 329 0 0 -82 3 513 21 17 0 82 3 496 21 44 1 82 3 487
 21 45 1 81 1 462 1994 34 367 0 0 43 464 734 82 3 466 21 5 0 81 1 43 1993 34 32
 0 0 457 462 735 82 3 734 21 4 0 81 1 457 1992 34 160 0 0 463 43 736 82 3 735 21
 3 0 81 1 463 1991 34 154 0 0 452 457 737 82 3 736 21 2 0 81 1 452 1990 34 444 0
 0 738 463 739 82 3 737 21 1 0 81 1 738 328 34 1 0 740 0 452 741 82 3 739 21 0 0
 81 1 740 2325 742 1 738 14 0 0 743 82 3 741 6 0 3 80 1 742 744 745 8038 0 0 0 0
 0 0 0 0 0 TTTTTTTTTTTTTFTF10 81 1 14 2326 744 1 740 2 0 0 746 98 255 6 743 80 9
7 114 116 32 49 80 1 744 747 748 8017 0 0 0 0 0 0 0 0 0 TTTTTTTTTTTTTFTF3 84 6 7
46 Part 179 13 748 SDL/TYSA_NAME79 14 745 SDL/TYSA_UNAME82 3 456 21 11 0 83 3 43
7 .2941176470588235 .2941176470588235 .2941176470588235 83 3 432 .29411764705882
35 .2941176470588235 .2941176470588235 40 3 423 0 1 3 .000887448189775614 .18108
6479490004 ??.0867820700192287 .012536228281186 .00515812025664605 .094741053064
0264 .01371506124824872 .00538726217320539 .1017755587118906 .0139800059590322 .
00543876220799189 41 1 424 L?.0867820700192287 .012536228281186 .005158120256646
05 41 1 425 L?.1017755587118906 .0139800059590322 .00543876220799189 204 12 426
 4 3.00530180600408 1 -.0127708650418139 -.0550239555027791 2.993213907016955 .4
16338814359091 -.01397176186592428 -.0470649724579813 2.982571295683395 0 -.0142
416654660395 -.040030466810117 79 9 388 BTI/DetId38 174 1827 0 164 175 228 0 -18
8 195 749 750 751 752 141 385 195 385 385 228 40 11 749 0 1 11 .0004037505720382
595 .3804559714462945 ??.131791180074034 .01149974040646172 .012253204680044 .13
28911365876832 .01042150243918082 .01407469836869772 .1336119774035146 .00920107
79615187 .0150859576528337 .134061372719423 .00800220066740662 .0155588338095081
 .1342912657097258 .00691804327198811 .01562991330960835 .1343442130471966 .0058
4010649770768 .0153448818817209 .1342277466244268 .00501501084147729 .0148085617
9640322 .1339741217465994 .004366531141882565 .0140589173994305 .133427916844360
2 .003793561062726415 .0127457965689089 .1325293573187364 .003666296815661915 .0
1088690384394016 .131791180074095 .00398221944880516 .00951705081595037 41 2 750
 TF.1317852531530734 .0115035771502102 .0122426944411169 .131791180074034 .01149
974040646172 .012253204680044 41 2 751 TF.1317852531530734 .00398603618392294 .0
0950653329451155 .131791180074095 .00398221944880516 .00951705081595037 204 52 7
52 4 1.453550108639394 .0841989154657577 2.935084099736995 0 1.451242905905048 .
0842075839837068 2.935070807634195 .002591300113204365 1.008156482956778 .085820
0938150437 2.932594496925955 .500000000000034 .66124070612019 .0868809042885936
 2.930961383502495 .889167879126632 .361866753845887 .0875438950492369 2.9299390
84430135 1.22489639374077 .0967597565264833 .0878835469841959 2.929414873087795
 1.522197553003015 6.10066499982207 .0879618205391078 2.929294020840055 1.835481
5158779 5.85608477685261 .087789668299337 2.9295597962311 2.10998166759581 5.617
49381242447 .0874150747008151 2.93013781702455 2.377934800669625 5.2898462651782
6 .0866097266423879 2.93137916536327 2.74623946798239 4.88916641963228 .08528890
84294391 2.933411050041505 3.197189821584445 4.59744996497531 .0842075839836566
 2.93507080763412 3.525841305494635 ????81 1 158 2025 34 121 0 0 156 379 753 82
 3 382 21 4 1 82 3 753 21 3 1 81 1 167 2049 34 199 0 0 162 356 754 82 3 357 21 2
8 1 82 3 754 21 27 1 82 3 315 21 25 1 83 3 288 .2941176470588235 .29411764705882
35 .2941176470588235 83 3 277 .2941176470588235 .2941176470588235 .2941176470588
235 83 3 267 .2941176470588235 .2941176470588235 .2941176470588235 40 3 236 0 1
 3 .00507288286201328 .391919033240102 ??.0810386553865085 -.00949838681631177 .
01236808057330268 .0889676460016898 -.00899863024467796 .0133192301146254 .10637
6286311451 -.00573961633316854 .015 41 1 237 L?.0810386553865085 -.0094983868163
1177 .01236808057330268 41 1 238 L?.106376286311451 -.00573961633316854 .015 204
 12 239 4 .349065850398866 -.0810386553865085 .127220090831006 .3892486565848875
 .618492438196244 -.0889676460016898 .1397455218394894 .3891043513247815 1.57079
6326794795 -.106376286311451 .1673264622562435 .3866167371581905 141 227 174 755
 755 195 141 755 414 227 227 195 141 196 174 196 196 188 51 184 1820 0 1 176 186
 756 +-488663291182287e-31 .572964425979825 .474584571522249 116436203534249e-30
 -.939692620785909 .3420201433256685 .638717276898988 0 -.3420201433256685 -.939
692620785909 141 194 176 194 194 186 141 756 176 756 756 184 141 185 165 185 185
 176 141 183 176 183 183 175 82 3 168 21 26 1 81 1 145 2023 34 84 0 0 148 156 75
7 82 3 159 21 2 1 82 3 757 21 1 1 82 3 150 21 0 1 40 2 140 0 1 2 .00043506006183
2761 .3938055908241145 ??-.1339478902987312 .010336356422595 .01433519506071472
 -.1324256563375844 .00891955731449534 .01494072951524722 41 1 141 L?-.133947890
2987312 .010336356422595 .01433519506071472 41 1 142 L?-.1324256563375844 .00891
955731449534 .01494072951524722 204 8 143 4 3.352269302479025 .493888964738901 .
985953316404989 .01033635642259502 3.350445249652265 1.007444565653914 1.3984341
49244112 .00891955731449536 141 138 128 138 138 133 141 135 128 135 135 131 141
 125 106 758 758 115 141 758 413 125 125 115 141 123 115 123 123 114 82 3 108 21
 13 1 82 3 65 21 10 0 82 3 51 21 15 0 82 3 37 21 16 0 19 18 282 0 1 0 10 6 0 S0
 141 21 234 21 21 7 74 4 CI16 index_map_offset0 0 1 dCCZ20 16 6 0 0 275 136 740
 14 2 674 0 0 0 0 0 0 0 0 0 0 0 0 0 0 80 1 13 264 759 8040 0 0 0 0 3 5 0 0 0 TTT
FFFFFFFFFFFFF2 83 3 15 .2941176470588235 .2941176470588235 .2941176470588235 79
 17 759 SDL/TYSA_COLOUR_21 0 
