**ABCDEFGHIJKLMNOPQRSTUVWXYZabcdefghijklmnopqrstuvwxyz**************************
**PARASOLID !"#$%&'()*+,-./:;<=>?@[\]^_`{|}~0123456789**************************
**PART1;
MC=unknown;
MC_MODEL=unknown;
MC_ID=unknown;
OS=unknown;
OS_RELEASE=unknown;
FRU=Parasolid 34.1.198;
APPL=Onshape;
SITE=unknown;
USER=unknown;
FORMAT=text;
GUISE=transmit;
KEY=BTGapi::writeModels_.xmt;
FILE=BTGapi::writeModels_.xmt;
DATE=2023-01-03T18:44:56 (UTC);
**PART2;
SCH=SCH_3401198_34101;
USFLD_SIZE=0;
**PART3;
**END_OF_HEADER*****************************************************************
T51 : TRANSMIT FILE created by modeller version 340119823 SCH_3401198_34101_1300
6231 0 12 36 CCCI7 lattice222 0 CCCI4 mesh1006 0 I8 polyline1008 0 CCCCCCCDI5 ow
ner1040 0 CCCI16 boundary_lattice222 0 CCCI13 boundary_mesh1006 0 I17 boundary_p
olyline1008 0 CCCA16 index_map_offset0 0 1 dA9 index_map82 0 A17 node_id_index_m
ap82 0 A20 schema_embedding_map82 0 A5 child12 0 A14 lowest_node_id0 0 1 dA16 me
sh_offset_data206 0 Z1 619 2 3 0 0 0 0 0 0 0 1e3 1e-8 0 4 5 1 0 1 1 6 0 7 8 9 0
 0 10 11 12 0 0 0 0 0 0 0 81 255 1 2 613 13 1 14 0 0 0 15 70 11 CI9 list_type0 0
 1 uI10 notransmit0 0 1 lCCCDCCDI12 finger_index0 0 1 dI12 finger_block1012 0 CZ
3 0 4 T1 0 0 5 20 1 16 16 13 255 6 87 0 1 0 17 0 0 18 0 53 255 7 175 0 19 20 0 0
 +.006 -1327877820429424e-31 162618132244766e-46 .0037385 -1 0 0 0 -1 1224646799
147352e-31 31 255 8 467 0 11 21 0 0 -.006 -1327877820429424e-31 .0028 0 0 -1 -1
 0 0 .00247717222857031 29 255 9 459 0 12 22 0 .006 -.002477172228570455 .002800
00000000005 19 9 CCCCCCI5 frame230 0 CA5 owner12 0 Z10 109 0 1 18 0 23 0 V0 16 2
55 11 465 24 ?25 0 26 8 0 0 1 18 255 12 455 27 28 0 29 9 ?1 81 1 27 600 30 12 0
 0 31 32 33 17 255 28 0 34 25 35 12 36 37 0 38 +18 29 70 39 40 12 41 22 ?1 81 1
 39 184 30 29 0 0 42 43 44 17 40 0 45 46 38 29 47 48 0 49 -18 41 65 50 51 29 52
 53 ?1 29 22 72 0 29 53 9 .006 -.00373850000000013 457834205861254e-33 29 53 67
 0 41 54 22 -.006 -.0037385 457834205861238e-33 29 54 160 0 52 55 53 .006 .00373
850000000013 0 18 52 136 42 56 41 57 54 ?1 29 55 161 0 57 58 54 -.006 .0037385 0
 18 57 133 43 59 52 60 55 ?1 29 58 367 0 60 61 55 -.006 .00247717222857031 .0028
 18 60 295 62 63 57 64 58 ?1 29 61 368 0 64 65 58 -.006 -.00247717222857041 .002
8 18 64 296 31 35 60 66 61 ?1 29 65 578 0 66 0 61 .006 .00247717222857041 .0028
 18 66 532 32 67 64 0 65 ?1 81 1 32 601 30 66 0 0 27 24 68 17 67 0 69 56 70 66 6
3 26 0 25 -15 255 69 472 0 67 17 0 17 56 0 69 71 67 52 72 73 0 46 +17 70 0 69 67
 71 60 59 74 0 0 -17 63 0 34 35 25 60 67 26 0 75 +16 26 220 76 ?63 11 37 21 0 0
 1 17 25 0 34 63 28 66 38 11 0 72 +15 34 317 0 63 77 0 17 38 0 45 40 72 12 25 11
 0 47 -17 72 0 45 38 46 66 56 73 0 0 -15 45 466 0 38 19 0 17 46 0 45 72 40 52 78
 79 0 80 +16 73 461 81 ?56 48 82 83 48 48 1 81 1 81 607 30 73 0 0 84 85 86 16 48
 164 85 ?47 37 73 83 73 73 1 16 82 163 87 ?88 73 74 89 74 74 1 31 83 177 0 48 89
 90 0 +.006 0 0 -1 0 0 0 0 1 .00373850000000013 31 89 176 0 82 91 83 0 +-.006 0
 0 -1 0 0 0 0 1 .0037385 30 255 90 219 0 37 83 21 0 -0 -.00247717222857041 .0028
 -1 0 0 16 37 218 92 ?28 26 48 90 0 0 1 30 21 222 0 26 90 8 0 +0 .00247717222857
041 .0028 -1 0 0 81 1 92 603 30 37 0 0 24 76 93 80 7 CCCCCDI12 legal_owners0 16
 1 lCZ1 30 94 95 9000 0 0 0 0 3 6 0 0 0 FFTFTFTTFFFFFFFF1 81 1 24 602 30 11 0 0
 32 92 96 81 1 76 604 30 26 0 0 92 97 98 82 255 3 93 12 1 1 81 1 97 605 30 77 0
 99 76 84 100 82 3 98 12 2 1 14 255 77 322 99 ?0 101 34 6 102 +0 0 0 101 23 81 1
 99 619 103 77 97 0 104 0 105 81 1 84 606 30 19 0 106 97 81 107 82 3 100 12 0 2
 14 19 166 106 ?101 108 45 6 7 +0 0 101 108 23 81 1 106 617 103 19 84 0 109 104
 110 82 3 107 12 1 2 80 1 103 0 111 8001 0 0 0 0 3 5 0 0 0 FFFFTFTFFFFFFFFF2 81
 1 109 616 103 108 112 0 113 106 114 81 1 104 618 103 101 115 0 106 99 116 83 25
5 3 110 .231372549019608 .380392156862745 .705882352941177 14 101 1 104 ?77 19 1
17 6 118 +0 0 77 19 23 81 1 115 194 30 101 0 104 119 120 121 83 3 116 .231372549
019608 .380392156862745 .705882352941177 81 1 119 192 30 122 0 0 123 115 124 81
 1 120 197 30 1 0 125 115 126 127 82 3 121 6 1 2 81 1 125 611 128 1 120 14 0 0 1
29 81 1 126 406 30 130 0 0 120 131 132 82 3 127 6 0 3 16 130 252 126 ?35 133 0 1
34 0 0 1 81 1 131 411 30 135 0 113 126 136 137 82 3 132 10 1 1 14 135 172 113 ?1
08 17 138 6 139 -0 0 108 17 23 81 1 113 615 103 135 131 0 140 109 141 81 1 136 4
12 30 74 0 0 131 87 142 82 3 137 10 3 2 16 74 207 136 ?59 82 79 89 82 82 1 81 1
 87 413 30 82 0 0 136 62 143 82 3 142 10 3 1 81 1 62 414 30 60 0 0 87 31 144 82
 3 143 10 4 1 81 1 31 415 30 64 0 0 62 27 145 82 3 144 10 0 0 82 3 145 10 1 0 17
 59 0 138 146 75 57 70 74 0 147 +16 79 45 148 ?46 74 149 91 0 0 1 81 1 148 189 3
0 79 0 0 50 150 151 16 149 35 123 ?152 79 122 153 0 0 1 31 91 47 0 79 153 89 0 +
.006 -1327877820429424e-31 162618132244766e-46 0 1224646799147352e-31 1 1 0 0 .0
037385 30 153 37 0 149 154 91 0 +61357192937539e-23 -.0037385 457834205861238e-3
3 -1 498732999343332e-29 -61077177127497e-44 31 154 17 0 122 155 153 0 +-.006 -4
26574389148732e-32 522402960269232e-48 0 -1224646799147352e-31 -1 1 0 0 .0037385
 16 122 15 119 ?147 149 133 154 0 0 1 30 155 156 0 133 134 154 0 +61357192937539
e-23 .0037385 0 -1 -498732999343332e-29 0 16 133 111 150 ?71 122 130 155 0 0 1 3
1 134 354 0 130 0 155 0 +-.006 -426574389148732e-32 .0028 0 0 1 1 0 0 .002477172
22857031 81 1 150 190 30 133 0 0 148 123 156 17 71 0 69 70 56 57 80 133 0 0 +17
 80 0 117 78 147 52 71 133 0 0 -15 117 6 0 147 101 0 17 78 0 117 152 80 29 46 79
 0 0 -17 147 0 117 80 152 57 146 122 0 71 +17 152 0 117 147 78 41 49 149 0 0 +17
 146 0 138 88 59 41 147 122 0 152 -15 138 227 0 75 135 0 17 88 0 138 75 146 64 5
1 82 0 0 +17 75 0 138 59 88 60 35 130 0 70 -17 51 0 157 49 36 41 88 82 0 146 -15
 157 221 0 47 108 0 17 49 0 157 47 51 29 152 149 0 78 -17 36 0 157 51 47 64 28 3
7 0 88 -17 47 0 157 36 49 12 40 48 0 0 +14 108 107 109 ?19 135 157 6 20 -17 17 1
9 135 23 51 255 20 174 0 108 139 7 0 -0 0 0 -1 0 0 .003738500000000065 0 0 1 14
 17 473 140 ?135 0 69 6 20 -108 108 135 0 23 13 23 108 0 0 0 0 0 0 10 17 81 1 14
0 614 103 17 158 0 0 113 159 81 1 158 609 30 17 0 140 85 112 160 83 3 159 .23137
2549019608 .380392156862745 .705882352941177 81 1 85 608 30 48 0 0 81 158 161 81
 1 112 610 30 108 0 109 158 0 162 82 3 160 12 2 2 82 3 162 12 3 2 82 3 161 12 4
 1 53 139 173 0 135 118 20 0 --.006 -426574389148732e-32 522402960269232e-48 .00
37385 -1 0 0 0 -1 1224646799147352e-31 50 255 118 3 0 101 102 139 0 +0 -65919492
0871187e-31 807280949859092e-47 0 -1224646799147352e-31 -1 1 0 0 50 102 348 0 77
 0 118 0 +-.0233489710398512 -.0003112794164890165 .0028 0 0 1 1 0 0 17 35 0 34
 28 63 64 75 130 0 36 +81 1 123 191 30 149 0 0 150 119 163 82 3 156 6 3 1 82 3 1
63 6 4 1 81 1 50 186 30 41 0 0 43 148 164 82 3 151 6 2 1 81 1 43 185 30 57 0 0 3
9 50 165 82 3 164 6 3 0 82 3 165 6 2 0 83 3 141 .231372549019608 .38039215686274
5 .705882352941177 80 1 128 166 167 8038 0 0 0 0 0 0 0 0 0 TTTTTTTTTTTTTFTF10 81
 1 14 612 166 1 125 2 0 0 168 98 255 6 129 80 97 114 116 32 49 80 1 166 169 170
 8017 0 0 0 0 0 0 0 0 0 TTTTTTTTTTTTTFTF3 84 255 6 168 Part 179 255 13 170 SDL/T
YSA_NAME79 14 167 SDL/TYSA_UNAME82 3 124 6 5 1 83 3 114 .231372549019608 .380392
156862745 .705882352941177 79 15 111 SDL/TYSA_COLOUR83 3 105 .231372549019608 .3
80392156862745 .705882352941177 82 3 96 12 0 1 79 9 95 BTI/DetId82 3 86 12 3 1 8
2 3 68 12 1 0 81 1 42 183 30 52 0 0 0 39 171 82 3 171 6 0 0 82 3 44 6 1 0 82 3 3
3 12 0 0 19 18 86 0 1 0 10 6 0 S0 74 4 CI16 index_map_offset0 0 1 dCCZ20 16 5 0
 0 112 125 14 2 99 0 0 0 0 0 0 0 0 0 0 0 0 0 0 0 80 1 13 103 172 8040 0 0 0 0 3
 5 0 0 0 TTTFFFFFFFFFFFFF2 83 3 15 .231372549019608 .380392156862745 .7058823529
41177 79 17 172 SDL/TYSA_COLOUR_21 0 
