**ABCDEFGHIJKLMNOPQRSTUVWXYZabcdefghijklmnopqrstuvwxyz**************************
**PARASOLID !"#$%&'()*+,-./:;<=>?@[\]^_`{|}~0123456789**************************
**PART1;
MC=unknown;
MC_MODEL=unknown;
MC_ID=unknown;
OS=unknown;
OS_RELEASE=unknown;
FRU=Parasolid 34.1.198;
APPL=Onshape;
SITE=unknown;
USER=unknown;
FORMAT=text;
GUISE=transmit;
KEY=BTGapi::writeModels_.xmt;
FILE=BTGapi::writeModels_.xmt;
DATE=2023-01-03T18:44:09 (UTC);
**PART2;
SCH=SCH_3401198_34101;
USFLD_SIZE=0;
**PART3;
**END_OF_HEADER*****************************************************************
T51 : TRANSMIT FILE created by modeller version 340119823 SCH_3401198_34101_1300
6231 0 12 36 CCCI7 lattice222 0 CCCI4 mesh1006 0 I8 polyline1008 0 CCCCCCCDI5 ow
ner1040 0 CCCI16 boundary_lattice222 0 CCCI13 boundary_mesh1006 0 I17 boundary_p
olyline1008 0 CCCA16 index_map_offset0 0 1 dA9 index_map82 0 A17 node_id_index_m
ap82 0 A20 schema_embedding_map82 0 A5 child12 0 A14 lowest_node_id0 0 1 dA16 me
sh_offset_data206 0 Z1 778 2 3 0 0 0 0 0 0 0 1e3 1e-8 0 4 5 1 0 1 1 6 0 7 8 9 0
 0 10 11 12 0 0 0 0 0 0 0 81 255 1 2 764 13 1 14 0 0 0 15 70 11 CI9 list_type0 0
 1 uI10 notransmit0 0 1 lCCCDCCDI12 finger_index0 0 1 dI12 finger_block1012 0 CZ
3 0 4 T1 0 0 5 20 1 16 16 13 255 6 137 0 1 0 17 0 0 18 0 50 255 7 132 0 17 19 0
 0 +.357 .01027421023868056 .0289062104831867 0 .224951054343865 -.9743700647852
35 0 .974370064785235 .224951054343865 30 255 8 136 0 11 20 0 0 +.357 .135480763
5635832 .0578124209663734 -1 0 0 29 255 9 279 0 12 21 0 .12735 .0088126551415027
 .0285687839016709 19 9 CCCCCCI5 frame230 0 CA5 owner12 0 Z10 48 0 1 18 0 22 0 V
0 16 255 11 120 23 ?24 0 25 8 0 0 1 18 255 12 277 26 27 0 28 9 ?1 81 1 26 752 29
 12 0 0 30 31 32 17 255 27 0 33 34 35 12 36 37 0 38 -18 28 260 39 40 12 41 21 ?1
 81 1 39 748 29 28 0 0 42 43 44 17 40 0 45 46 47 28 48 49 0 50 -18 41 239 51 52
 28 53 54 ?1 29 21 262 0 28 54 9 .30965 .0088126551415027 .0285687839016709 29 5
4 241 0 41 55 21 .04735 .00487601169048506 .0456202600354125 29 55 220 0 53 56 5
4 .22965 .00487601169048506 .0456202600354125 18 53 218 57 58 41 59 55 ?1 29 56
 113 0 60 61 55 0 -.1149323430862222 -3469446951953615e-33 18 60 92 62 63 64 65
 56 ?1 29 61 114 0 65 66 56 0 -.11886898653724 .01705147613374155 18 65 96 67 68
 60 69 61 ?1 29 66 115 0 69 70 61 0 .1315441201125656 .074863897100115 18 69 100
 71 72 65 73 66 ?1 29 70 116 0 73 74 66 0 .1354807635635832 .0578124209663734 18
 73 104 75 24 69 76 70 ?1 29 74 44 0 59 77 70 .357 -.1149323430862222 -346944695
1953615e-33 18 59 42 78 79 53 80 74 ?1 29 77 39 0 80 81 74 .357 -.11886898653724
 .01705147613374155 18 80 37 82 83 59 84 77 ?1 29 81 34 0 84 85 77 .357 .1315441
201125656 .074863897100115 18 84 32 86 87 80 64 81 ?1 29 85 29 0 64 88 81 .357 .
1354807635635832 .0578124209663734 18 64 27 89 90 84 60 85 ?1 29 88 629 0 76 91
 85 .12735 .0867622603243215 .0465648682491801 18 76 401 92 93 73 94 88 ?1 29 91
 630 0 94 95 88 .04735 .0867622603243216 .0465648682491801 18 94 404 30 96 76 97
 91 ?1 29 95 632 0 97 98 91 .04735 .00881265514150263 .02856878390167085 18 97 4
07 31 34 94 99 95 ?1 29 98 633 0 99 100 95 .30965 .0867622603243215 .04656486824
91801 18 99 530 101 102 97 103 98 ?1 29 100 634 0 103 104 98 .22965 .08676226032
43215 .0465648682491801 18 103 533 42 105 99 106 100 ?1 29 104 636 0 106 107 100
 .22965 .00881265514150261 .02856878390167085 18 106 536 43 46 103 108 104 ?1 29
 107 637 0 109 110 104 .30965 .00487601169048506 .0456202600354125 18 109 539 11
1 48 112 113 107 ?1 29 110 639 0 113 114 107 .22965 .0828256168733039 .063616344
3829217 18 113 534 115 116 109 117 110 ?1 29 114 640 0 117 118 110 .30965 .08282
56168733039 .0636163443829217 18 117 531 119 120 113 0 114 ?1 29 118 645 0 108 1
21 114 .12735 .0828256168733039 .0636163443829217 18 108 402 122 123 106 124 118
 ?1 29 121 646 0 124 125 118 .04735 .0828256168733039 .0636163443829217 18 124 4
05 126 127 108 112 121 ?1 29 125 648 0 112 0 121 .12735 .00487601169048506 .0456
202600354125 18 112 410 128 36 124 109 125 ?1 81 1 128 718 29 112 0 0 126 51 129
 17 36 0 130 131 38 112 27 37 0 35 +15 255 130 431 0 36 132 0 17 131 0 130 133 3
6 108 134 135 0 136 -17 38 0 130 36 133 12 137 138 0 139 -16 37 345 140 ?36 141
 135 142 0 0 1 17 35 0 33 27 143 112 144 145 0 134 -15 33 443 0 143 146 0 17 143
 0 33 35 34 41 147 141 0 144 +17 144 0 148 149 134 41 35 145 0 0 +16 145 371 150
 ?144 151 152 153 0 0 1 17 134 0 148 144 136 112 131 135 0 0 +15 148 237 0 136 1
54 0 17 136 0 148 134 149 108 155 156 0 0 -16 135 354 157 ?134 37 156 158 0 0 1
 81 1 157 734 29 135 0 0 150 159 160 16 156 382 161 ?155 135 151 162 0 0 1 30 15
8 621 0 135 162 163 0 +.12735 .04385081428189445 .0546183022091671 0 -.974370064
785235 -.2249510543438655 30 162 622 0 156 164 158 0 +.08735 .0828256168733039 .
0636163443829217 -1 0 0 30 163 620 0 165 158 166 0 +.12735 .0884493932319005 .03
925709276329085 0 -.2249510543438655 .974370064785235 16 165 324 167 ?123 168 16
9 163 0 0 1 30 166 619 0 169 163 170 0 +.04735 .0884493932319005 .03925709276329
085 0 -.2249510543438655 .974370064785235 16 169 327 171 ?127 165 141 166 0 0 1
 30 170 618 0 141 166 142 0 +.04735 .01049978804908162 .0212610084157816 0 -.224
9510543438655 .974370064785235 16 141 336 172 ?143 169 37 170 0 0 1 30 142 617 0
 37 170 173 0 +.12735 .0104997880490817 .0212610084157816 0 -.2249510543438655 .
974370064785235 30 173 612 0 174 142 175 0 +.30965 .0438508142818944 .0546183022
091671 0 -.974370064785235 -.2249510543438655 16 174 483 176 ?177 178 0 173 0 0
 1 30 175 611 0 178 173 179 0 +.26965 .0828256168733039 .0636163443829217 -1 0 0
 16 178 511 180 ?181 182 174 175 0 0 1 30 179 610 0 182 175 183 0 +.22965 .04385
08142818944 .0546183022091671 0 -.974370064785235 -.2249510543438655 16 182 516
 184 ?58 185 178 179 0 0 1 30 183 609 0 185 179 186 0 +.26965 .00487601169048506
 .0456202600354125 -1 0 0 16 185 500 187 ?188 49 182 183 0 0 1 30 186 608 0 49 1
83 189 0 +.30965 .0104997880490817 .0212610084157816 0 -.2249510543438655 .97437
0064785235 16 49 474 190 ?48 191 185 186 0 0 1 30 189 607 0 191 186 192 0 +.2296
5 .0104997880490816 .0212610084157816 0 -.2249510543438655 .974370064785235 16 1
91 465 193 ?194 195 49 189 0 0 1 30 192 606 0 195 189 196 0 +.22965 .08844939323
19005 .03925709276329085 0 -.2249510543438655 .974370064785235 16 195 456 197 ?1
16 152 191 192 0 0 1 30 196 605 0 152 192 198 0 +.30965 .0884493932319005 .03925
709276329085 0 -.2249510543438655 .974370064785235 16 152 453 199 ?120 145 195 1
96 0 0 1 30 198 604 0 168 196 200 0 +.357 .0088126551415027 .0285687839016709 1
 0 0 16 168 494 201 ?202 203 165 198 0 0 1 30 200 603 0 203 198 204 0 +.22965 .0
1027421023868056 .0289062104831867 0 .974370064785235 .224951054343865 16 203 46
8 205 ?105 206 168 200 0 0 1 30 204 602 0 206 200 207 0 +.357 .0867622603243216
 .0465648682491801 1 0 0 16 206 459 208 ?102 209 203 204 0 0 1 30 207 601 0 209
 204 210 0 +.30965 .01027421023868056 .0289062104831867 0 .974370064785235 .2249
51054343865 16 209 477 211 ?212 213 206 207 0 0 1 30 210 600 0 213 207 214 0 +.3
57 .0088126551415027 .0285687839016709 1 0 0 16 213 365 215 ?139 216 209 210 0 0
 1 30 214 599 0 216 210 217 0 +.04735 .01027421023868056 .0289062104831867 0 .97
4370064785235 .224951054343865 16 216 339 218 ?96 219 213 214 0 0 1 30 217 598 0
 219 214 220 0 +.357 .0867622603243216 .0465648682491801 1 0 0 16 219 330 221 ?9
3 138 216 217 0 0 1 30 220 597 0 138 217 222 0 +.12735 .01027421023868056 .02890
62104831867 0 .974370064785235 .224951054343865 16 138 348 223 ?137 224 219 220
 0 0 1 30 222 9 0 225 220 226 0 +.357 .01027421023868056 .0289062104831867 0 -.9
74370064785235 -.224951054343865 16 225 7 227 ?228 229 230 222 0 0 1 30 226 14 0
 229 222 231 0 +.357 .1335124418380744 .0663381590332442 0 .2249510543438645 -.9
74370064785235 16 229 12 232 ?233 234 225 226 0 0 1 30 231 19 0 234 226 235 0 +.
357 .0063375667876629 .0459576866169283 0 .974370064785235 .2249510543438655 16
 234 17 236 ?237 238 229 231 0 0 1 30 235 24 0 238 231 239 0 +.357 -.11690066481
1731 .00852573806687077 0 -.2249510543438655 .974370064785235 16 238 22 240 ?241
 242 234 235 0 0 1 30 239 112 0 224 235 243 0 +0 .01027421023868056 .02890621048
31867 0 -.974370064785235 -.224951054343865 16 224 88 244 ?245 246 138 239 0 0 1
 30 243 111 0 246 239 247 0 +0 .1335124418380744 .0663381590332442 0 .2249510543
438645 -.974370064785235 16 246 84 248 ?249 250 224 243 0 0 1 30 247 110 0 250 2
43 251 0 +0 .0063375667876629 .0459576866169283 0 .974370064785235 .224951054343
8655 16 250 80 252 ?253 230 246 247 0 0 1 30 251 109 0 230 247 254 0 +0 -.116900
664811731 .00852573806687077 0 -.2249510543438655 .974370064785235 16 230 76 255
 ?256 225 250 251 0 0 1 30 254 133 0 242 251 257 0 +.357 -.1149323430862222 -346
9446951953615e-33 -1 0 0 16 242 117 258 ?63 259 238 254 0 0 1 30 257 134 0 259 2
54 20 0 +.357 -.11886898653724 .01705147613374155 -1 0 0 16 259 118 260 ?68 25 2
42 257 0 0 1 30 20 135 0 25 257 8 0 +.357 .1315441201125656 .074863897100115 -1
 0 0 16 25 119 261 ?72 11 259 20 0 0 1 81 1 261 163 29 25 0 0 260 244 262 17 72
 0 263 264 237 69 87 25 0 265 +15 263 123 0 264 154 266 17 264 0 263 83 72 65 25
3 250 0 256 -17 237 0 263 72 83 84 267 234 0 0 +17 87 0 268 233 265 84 72 25 0 2
69 -17 265 0 268 87 24 69 249 246 0 253 -15 268 125 0 265 270 0 17 24 0 268 265
 233 73 90 11 0 271 +17 249 0 272 245 253 73 265 246 0 0 +17 253 0 272 249 256 6
9 264 250 0 0 +15 272 75 0 245 273 0 17 256 0 272 253 245 65 274 230 0 0 +17 245
 0 272 256 249 60 271 224 0 274 +17 274 0 275 79 68 60 256 230 0 0 -15 275 121 0
 274 276 0 17 79 0 275 241 274 59 63 242 0 228 -17 68 0 275 274 241 65 83 259 0
 264 +17 241 0 275 68 79 80 277 238 0 0 +17 83 0 263 237 264 80 68 259 0 267 -17
 267 0 278 277 269 80 237 234 0 241 -15 278 6 0 279 280 0 17 277 0 278 279 267 5
9 241 238 0 0 -17 269 0 278 267 279 84 233 229 0 237 -17 279 0 278 269 277 64 22
8 225 0 233 -17 233 0 268 24 87 64 269 229 0 0 +17 228 0 281 63 90 59 279 225 0
 277 +15 281 127 0 271 17 282 17 63 0 281 271 228 60 79 242 0 245 +17 90 0 281 2
28 271 64 24 11 0 279 -17 271 0 281 90 63 73 245 224 0 249 -14 255 17 128 283 ?1
54 0 281 6 7 +0 0 154 0 22 15 282 258 0 202 17 284 17 202 0 282 212 285 28 46 16
8 0 0 +15 284 275 0 139 17 0 17 139 0 284 137 286 12 34 213 0 0 +17 137 0 284 28
7 139 76 38 138 0 0 +17 286 0 284 139 287 97 96 216 0 0 -17 34 0 33 143 27 97 13
9 213 0 147 -17 147 0 288 96 52 97 143 141 0 286 -15 288 439 0 96 289 0 17 96 0
 288 127 147 94 286 216 0 290 +17 52 0 288 147 127 41 149 151 0 143 +17 127 0 28
8 52 96 124 290 169 0 155 +17 149 0 148 136 144 124 52 151 0 0 -16 151 387 159 ?
52 156 145 164 0 0 1 81 1 159 735 29 151 0 0 157 291 292 30 164 623 0 151 153 16
2 0 +.04735 .04385081428189445 .0546183022091671 0 -.974370064785235 -.224951054
3438655 30 153 624 0 145 0 164 0 +.08735 .00487601169048506 .0456202600354125 -1
 0 0 80 7 CCCCCDI12 legal_owners0 16 1 lCZ1 29 293 294 9000 0 0 0 0 3 6 0 0 0 FF
TFTFTTFFFFFFFF1 81 1 291 736 29 295 0 296 159 297 298 82 255 3 292 10 15 1 14 29
5 561 296 ?299 300 301 6 302 -0 0 299 300 22 81 1 296 772 303 295 291 0 304 305
 306 81 1 297 737 29 307 0 308 291 309 310 82 3 298 10 0 2 14 307 569 308 ?132 2
99 45 6 311 +0 0 132 299 22 81 1 308 774 303 307 297 0 305 312 313 81 1 309 738
 29 300 0 304 297 314 315 82 3 310 10 1 2 14 300 557 304 ?295 273 316 6 317 +0 0
 295 273 22 81 1 304 771 303 300 309 0 318 296 319 81 1 314 739 29 299 0 305 309
 320 321 82 3 315 10 2 2 14 299 565 305 ?307 295 322 6 323 -0 0 307 295 22 81 1
 305 773 303 299 314 0 296 308 324 81 1 320 740 29 325 0 326 314 327 328 82 3 32
1 10 3 2 14 325 432 326 ?289 132 329 6 330 -0 0 289 132 22 81 1 326 776 303 325
 320 0 312 331 332 81 1 327 741 29 146 0 333 320 334 335 82 3 328 10 4 2 14 146
 440 333 ?0 289 33 6 336 +0 0 0 289 22 81 1 333 778 303 146 327 0 331 0 337 81 1
 334 742 29 132 0 312 327 338 339 82 3 335 10 5 2 14 132 428 312 ?325 307 130 6
 340 +0 0 325 307 22 81 1 312 775 303 132 334 0 308 326 341 81 1 338 743 29 289
 0 331 334 342 343 82 3 339 10 6 2 14 289 436 331 ?146 325 288 6 344 -0 0 146 32
5 22 81 1 331 777 303 289 338 0 326 333 345 81 1 342 744 29 17 0 283 338 346 347
 82 3 343 10 7 2 81 1 283 765 303 17 342 0 0 348 349 81 1 346 745 29 154 0 348 3
42 101 350 82 3 347 10 8 2 14 154 124 348 ?270 17 263 6 351 +0 0 270 17 22 81 1
 348 766 303 154 346 0 283 352 353 81 1 101 746 29 99 0 0 346 42 354 82 3 350 10
 9 2 81 1 42 747 29 103 0 0 101 39 355 82 3 354 10 8 0 82 3 355 10 9 0 80 1 303
 0 356 8001 0 0 0 0 3 5 0 0 0 FFFFTFTFFFFFFFFF2 81 1 352 767 303 270 357 0 348 3
58 359 83 255 3 353 .447058823529412 .3411764705882355 .156862745098039 14 270 1
26 352 ?276 154 268 6 19 +0 0 276 154 22 81 1 357 177 29 270 0 352 360 361 362 8
1 1 358 768 303 276 360 0 352 363 364 83 3 359 .447058823529412 .341176470588235
5 .156862745098039 14 276 122 358 ?280 270 275 6 365 +0 0 280 270 22 81 1 360 17
5 29 276 0 358 366 357 367 81 1 363 769 303 280 366 0 358 318 368 83 3 364 .4470
58823529412 .3411764705882355 .156862745098039 14 280 1 363 ?273 276 278 6 369 +
0 0 273 276 22 81 1 366 174 29 280 0 363 370 360 371 81 1 318 770 303 273 370 0
 363 304 372 83 3 368 .447058823529412 .3411764705882355 .156862745098039 14 273
 68 318 ?300 280 272 6 373 -0 0 300 280 22 81 1 370 173 29 273 0 318 232 366 374
 83 3 372 .447058823529412 .3411764705882355 .156862745098039 81 1 232 171 29 22
9 0 0 248 370 375 82 3 374 6 1 2 81 1 248 170 29 246 0 0 236 232 376 82 3 375 6
 11 1 81 1 236 169 29 234 0 0 252 248 377 82 3 376 6 10 1 81 1 252 168 29 250 0
 0 240 236 378 82 3 377 6 9 1 81 1 240 167 29 238 0 0 255 252 379 82 3 378 6 8 1
 81 1 255 166 29 230 0 0 227 240 380 82 3 379 6 7 1 81 1 227 165 29 225 0 0 244
 255 381 82 3 380 6 6 1 81 1 244 164 29 224 0 0 261 227 382 82 3 381 6 5 1 82 3
 382 6 4 1 50 373 108 0 273 369 365 0 +0 .00830588851317177 .03743194855005745 1
 0 0 0 1 0 13 22 49 0 0 0 0 0 0 10 17 50 369 3 0 280 317 373 0 +.357 .0083058885
1317177 .03743194855005745 1 0 0 0 1 0 50 365 129 0 276 373 351 0 +.357 -.116900
664811731 .00852573806687077 0 -.974370064785235 -.2249510543438655 0 .224951054
3438655 -.974370064785235 50 351 130 0 154 365 19 0 +.357 .0063375667876629 .045
9576866169283 0 -.2249510543438655 .974370064785235 0 -.974370064785235 -.224951
0543438655 50 19 131 0 270 351 7 0 +.357 .1335124418380744 .0663381590332442 0 .
974370064785235 .2249510543438645 0 -.2249510543438645 .974370064785235 50 317 5
85 0 300 302 369 0 +.30965 .0494745906404911 .0302590505895362 -1 0 0 0 0 1 50 3
02 586 0 295 323 317 0 +.26965 .0884493932319005 .03925709276329085 0 .974370064
785235 .2249510543438655 0 -.2249510543438655 .974370064785235 50 323 587 0 299
 311 302 0 +.22965 .0494745906404911 .0302590505895362 -1 0 0 0 0 1 50 311 588 0
 307 336 323 0 +.26965 .0104997880490817 .0212610084157816 0 .974370064785235 .2
249510543438655 0 -.2249510543438655 .974370064785235 50 336 591 0 146 344 311 0
 +.08735 .0104997880490817 .0212610084157816 0 .974370064785235 .224951054343865
5 0 -.2249510543438655 .974370064785235 50 344 592 0 289 330 336 0 +.04735 .0494
745906404911 .0302590505895362 -1 0 0 0 0 1 50 330 593 0 325 340 344 0 +.08735 .
0884493932319005 .03925709276329085 0 .974370064785235 .2249510543438655 0 -.224
9510543438655 .974370064785235 50 340 594 0 132 0 330 0 +.12735 .049474590640491
1 .0302590505895362 -1 0 0 0 0 1 82 3 371 6 2 2 82 3 367 6 3 2 81 1 361 178 29 1
 0 383 357 119 384 82 3 362 6 5 2 81 1 383 762 385 1 361 14 0 0 386 81 1 119 712
 29 117 0 0 361 115 387 82 3 384 6 0 3 81 1 115 713 29 113 0 0 119 111 388 82 3
 387 10 0 0 81 1 111 714 29 109 0 0 115 57 389 82 3 388 10 1 0 81 1 57 715 29 53
 0 0 111 122 390 82 3 389 10 2 0 81 1 122 716 29 108 0 0 57 126 391 82 3 390 10
 3 0 81 1 126 717 29 124 0 0 122 128 392 82 3 391 10 4 0 82 3 392 10 5 0 80 1 38
5 393 394 8038 0 0 0 0 0 0 0 0 0 TTTTTTTTTTTTTFTF10 81 1 14 763 393 1 383 2 0 0
 395 98 255 6 386 80 97 114 116 32 49 80 1 393 396 397 8017 0 0 0 0 0 0 0 0 0 TT
TTTTTTTTTTTFTF3 84 255 6 395 Part 179 255 13 397 SDL/TYSA_NAME79 14 394 SDL/TYSA
_UNAME79 15 356 SDL/TYSA_COLOUR83 3 349 .447058823529412 .3411764705882355 .1568
62745098039 83 3 345 .447058823529412 .3411764705882355 .156862745098039 83 3 34
1 .447058823529412 .3411764705882355 .156862745098039 83 3 337 .447058823529412
 .3411764705882355 .156862745098039 83 3 332 .447058823529412 .3411764705882355
 .156862745098039 15 329 435 0 93 325 0 17 93 0 329 123 290 76 287 219 0 133 +17
 123 0 329 155 93 108 133 165 0 131 +17 290 0 329 93 155 94 127 169 0 287 -17 28
7 0 284 286 137 94 93 219 0 0 -17 133 0 130 38 131 76 123 165 0 137 -17 155 0 32
9 290 123 124 136 156 0 149 +83 3 324 .447058823529412 .3411764705882355 .156862
745098039 15 322 568 0 105 299 0 17 105 0 322 116 398 103 285 203 0 399 +17 116
 0 322 58 105 113 399 195 0 181 +17 398 0 322 105 58 106 194 191 0 285 -17 285 0
 282 202 400 106 105 203 0 0 -17 399 0 301 102 181 103 116 195 0 400 -15 301 564
 0 102 295 0 17 102 0 301 120 399 99 400 206 0 401 +17 181 0 301 399 120 113 402
 178 0 403 +17 400 0 282 285 212 103 102 206 0 0 -17 212 0 282 400 202 99 50 209
 0 0 +17 50 0 316 48 401 28 212 209 0 202 -15 316 560 0 48 300 0 17 48 0 316 404
 50 109 40 49 0 47 +17 401 0 316 50 404 99 120 152 0 212 -17 404 0 316 401 48 11
7 177 174 0 402 -17 120 0 301 181 102 117 401 152 0 404 +17 177 0 266 188 402 10
9 404 174 0 0 +17 402 0 266 177 403 117 181 178 0 0 -15 266 216 0 402 154 148 17
 403 0 266 402 188 113 58 182 0 0 -17 188 0 266 403 177 53 47 185 0 0 +17 58 0 3
22 398 116 53 403 182 0 194 +17 194 0 45 47 46 53 398 191 0 188 +15 45 572 0 194
 307 0 17 47 0 45 40 194 109 188 185 0 177 -17 46 0 45 194 40 106 202 168 0 398
 -83 3 319 .447058823529412 .3411764705882355 .156862745098039 83 3 313 .4470588
23529412 .3411764705882355 .156862745098039 83 3 306 .447058823529412 .341176470
5882355 .156862745098039 79 9 294 BTI/DetId81 1 260 162 29 259 0 0 258 261 405 8
2 3 262 6 3 1 81 1 258 161 29 242 0 0 23 260 406 82 3 405 6 2 1 81 1 23 160 29 1
1 0 0 86 258 407 82 3 406 6 1 1 81 1 86 159 29 84 0 0 71 23 408 82 3 407 6 0 1 8
1 1 71 158 29 69 0 0 82 86 409 82 3 408 6 7 0 81 1 82 157 29 80 0 0 67 71 410 82
 3 409 6 6 0 81 1 67 156 29 65 0 0 78 82 411 82 3 410 6 5 0 81 1 78 155 29 59 0
 0 62 67 412 82 3 411 6 4 0 81 1 62 154 29 60 0 0 89 78 413 82 3 412 6 3 0 81 1
 89 153 29 64 0 0 75 62 414 82 3 413 6 2 0 81 1 75 152 29 73 0 0 0 89 415 82 3 4
14 6 1 0 82 3 415 6 0 0 81 1 223 760 29 138 0 0 215 218 416 81 1 215 759 29 213
 0 0 221 223 417 81 1 218 761 29 216 0 0 223 0 418 82 3 416 10 22 1 82 3 418 10
 23 1 81 1 221 758 29 219 0 0 205 215 419 82 3 417 10 21 1 81 1 205 757 29 203 0
 0 211 221 420 82 3 419 10 20 1 81 1 211 756 29 209 0 0 201 205 421 82 3 420 10
 19 1 81 1 201 755 29 168 0 0 208 211 422 82 3 421 10 18 1 81 1 208 754 29 206 0
 0 31 201 423 82 3 422 10 17 1 81 1 31 753 29 97 0 0 26 208 424 82 3 423 10 16 1
 82 3 424 10 15 0 81 1 199 720 29 152 0 0 51 197 425 81 1 51 719 29 41 0 0 128 1
99 426 81 1 197 721 29 195 0 0 199 190 427 82 3 425 10 0 1 81 1 190 722 29 49 0
 0 197 193 428 82 3 427 10 1 1 81 1 193 723 29 191 0 0 190 167 429 82 3 428 10 2
 1 81 1 167 724 29 165 0 0 193 171 430 82 3 429 10 3 1 81 1 171 725 29 169 0 0 1
67 140 431 82 3 430 10 4 1 81 1 140 726 29 37 0 0 171 172 432 82 3 431 10 5 1 81
 1 172 727 29 141 0 0 140 180 433 82 3 432 10 6 1 81 1 180 728 29 178 0 0 172 18
7 434 82 3 433 10 7 1 81 1 187 729 29 185 0 0 180 176 435 82 3 434 10 8 1 81 1 1
76 730 29 174 0 0 187 184 436 82 3 435 10 9 1 81 1 184 731 29 182 0 0 176 161 43
7 82 3 436 10 10 1 81 1 161 732 29 156 0 0 184 150 438 82 3 437 10 11 1 81 1 150
 733 29 145 0 0 161 157 439 82 3 438 10 12 1 82 3 439 10 13 1 82 3 426 10 7 0 82
 3 160 10 14 1 82 3 129 10 6 0 81 1 43 749 29 106 0 0 39 92 440 81 1 92 750 29 7
6 0 0 43 30 441 82 3 440 10 11 0 81 1 30 751 29 94 0 0 92 26 442 82 3 441 10 12
 0 82 3 442 10 13 0 82 3 44 10 10 0 82 3 32 10 14 0 19 18 138 0 1 0 10 6 0 S0 74
 4 CI16 index_map_offset0 0 1 dCCZ20 16 5 0 0 218 383 14 2 333 0 0 0 0 0 0 0 0 0
 0 0 0 0 0 0 80 1 13 303 443 8040 0 0 0 0 3 5 0 0 0 TTTFFFFFFFFFFFFF2 83 3 15 .4
47058823529412 .3411764705882355 .156862745098039 79 17 443 SDL/TYSA_COLOUR_21 0
 
